<svg width="134" height="199" viewBox="0 0 134 199" fill="none" xmlns="http://www.w3.org/2000/svg">
<path d="M31.6523 179.133L33.4791 192.179C33.7531 194.14 35.5799 195.6 37.7721 195.6H96.3205C98.5126 195.6 100.339 194.14 100.613 192.179L102.44 179.133H31.6523Z" fill="#D6D6D4"/>
<path d="M94.9961 195.6L99.2434 194.505L102.349 179.133H31.6523L32.3374 184.151H90.7031C90.7488 184.151 90.7488 184.151 90.7945 184.151C99.152 184.151 94.9961 195.6 94.9961 195.6Z" fill="#BABABA"/>
<path d="M109.427 174.708L125.412 47.2119H8.58887L24.5732 174.708C24.8929 177.217 27.0851 179.133 29.6882 179.133H104.358C106.961 179.133 109.108 177.263 109.427 174.708Z" fill="#5EB173"/>
<path opacity="0.34" d="M63.7578 151.581C62.616 151.581 61.7483 150.988 61.4286 150.76C60.4239 149.939 59.8302 148.57 59.7845 146.928C59.6932 144.921 60.4239 142.959 61.7026 141.728C62.068 141.409 63.1184 140.359 64.4885 140.359C64.6255 140.359 64.7625 140.359 64.8995 140.405C65.8129 140.542 66.635 141.135 67.2743 142.138C68.2791 143.644 68.5987 145.696 68.1877 147.43C67.6854 149.437 65.9956 151.581 63.8491 151.626L63.7578 151.581ZM64.2145 145.286C63.8034 146.244 63.8948 146.837 64.0318 146.974C64.0318 146.974 64.0775 146.974 64.0775 147.019C64.1231 146.974 64.2145 146.837 64.3058 146.609C64.4428 146.153 64.3515 145.651 64.2145 145.286Z" fill="#60A06C"/>
<path opacity="0.34" d="M69.0555 157.237C68.4618 157.237 67.8681 157.055 67.4114 156.736C66.4067 156.051 66.4523 155.139 66.7263 151.809C66.909 149.711 67.183 146.472 67.4114 141.454C67.4114 141.181 67.4571 140.953 67.4571 140.679C67.4114 140.679 67.4114 140.679 67.3657 140.679C67.2744 140.679 67.1374 140.679 67.046 140.679C66.6807 140.725 66.3153 140.725 65.95 140.725C65.5389 140.725 65.1736 140.77 64.8082 140.816C64.6712 140.816 64.5342 140.861 64.3972 140.861C64.1232 140.907 63.8948 140.907 63.7122 140.907C63.3011 140.907 62.9814 140.77 62.7074 140.496C61.7484 139.539 62.7988 137.486 63.5751 136.71C64.2145 136.117 65.0822 135.798 66.1326 135.798C66.7263 135.798 67.4114 135.889 68.2334 136.072C68.7358 134.612 69.4665 133.563 70.3799 132.924C70.7453 132.651 71.75 131.966 73.0744 131.966C73.2571 131.966 73.4398 131.966 73.6225 132.012C73.8965 132.058 74.7642 132.194 75.4949 132.879C76.18 133.563 76.3626 134.475 76.3626 135.114C76.728 134.977 77.0933 134.886 77.55 134.886C77.7327 134.886 77.8697 134.886 78.0524 134.931C78.3264 134.977 79.1028 135.068 79.7422 135.752C80.7926 136.802 80.5186 138.307 80.4729 138.581L80.2902 139.356C80.4272 139.31 80.5642 139.219 80.6556 139.128C80.9296 138.854 81.1123 138.444 81.158 137.851L81.295 135.98L83.6241 138.17L83.7154 138.307C84.1265 139.128 83.8525 140.177 82.8934 141.363C82.2083 142.23 80.8839 142.64 78.8745 142.64C78.2808 142.64 77.5957 142.595 76.865 142.504C76.591 144.739 76.6367 147.202 76.6367 147.202C76.6823 148.114 76.6823 148.981 76.728 149.711C76.865 153.771 76.9107 155.413 75.6319 156.371C75.1752 156.69 74.5815 156.873 73.9878 156.873C73.4398 156.873 72.9374 156.736 72.4807 156.416C72.024 156.097 71.7957 155.778 71.7043 155.139C71.5217 155.687 71.202 156.097 70.7453 156.462C70.3799 157.009 69.7405 157.237 69.0555 157.237ZM72.161 141.682C71.9784 143.963 72.024 146.153 72.024 146.153C72.0697 147.202 72.0697 148.16 72.1154 149.027C72.1154 149.392 72.161 149.711 72.161 150.03C72.298 148.342 72.4351 146.153 72.5721 143.233C72.5721 142.732 72.6177 142.275 72.6634 141.819C72.4807 141.774 72.3437 141.728 72.161 141.682ZM78.0524 139.447C78.6004 139.539 79.0571 139.63 79.4225 139.63C79.5595 139.63 79.6965 139.63 79.8335 139.584L79.2398 139.265C79.0571 139.174 78.8745 139.128 78.7374 139.128C78.6918 139.128 78.6461 139.128 78.6004 139.128C78.5548 139.128 78.2807 139.219 78.0524 139.447ZM73.5768 137.942C73.8051 137.395 74.1248 136.893 74.4445 136.528C74.3988 136.528 74.3988 136.528 74.3532 136.528C74.3075 136.528 74.2162 136.528 74.1705 136.528C74.1705 136.528 73.7138 136.619 73.2571 137.121C73.1658 137.212 73.0287 137.395 72.8917 137.714C72.9831 137.714 73.4398 137.896 73.5768 137.942Z" fill="#60A06C"/>
<path opacity="0.34" d="M79.3768 152.721C78.3264 152.721 77.413 152.402 76.8193 151.809C75.9516 150.942 75.6319 149.346 76.0429 147.521C76.454 145.514 77.7784 142.823 80.1989 141.819C80.4272 141.728 81.2493 141.409 82.2083 141.409C83.076 141.409 83.8068 141.682 84.4005 142.139C85.5422 143.096 85.7249 144.739 85.4052 145.879C85.0855 147.065 84.2178 147.84 83.2131 148.342C83.3044 148.479 83.4414 148.662 83.4414 148.981C83.5328 149.665 83.1674 150.76 82.391 151.535C81.7059 152.265 80.5642 152.721 79.3768 152.721ZM81.7059 145.012C81.5689 145.058 81.4319 145.149 81.2492 145.286C81.4319 145.195 81.5689 145.104 81.7059 145.012Z" fill="#60A06C"/>
<path opacity="0.34" d="M86.7296 152.904C85.6792 152.904 84.6288 152.539 84.0351 151.855C83.1674 150.942 82.8934 149.483 83.2131 147.749C83.6698 145.56 85.0399 143.689 86.684 143.005C87.2777 142.777 87.9627 142.64 88.6021 142.64C89.6525 142.64 90.4745 142.959 91.0226 143.598C92.0273 144.738 91.6619 146.335 91.5249 146.791C91.2509 147.749 90.6116 148.479 89.8352 148.981C89.9722 149.118 90.1092 149.346 90.1092 149.665C90.1549 150.304 89.8352 151.353 89.1045 151.991C88.5564 152.584 87.6887 152.904 86.7296 152.904Z" fill="#60A06C"/>
<path opacity="0.34" d="M53.2995 156.508C52.5688 156.508 51.8838 156.416 51.1987 156.188C48.9153 155.504 47.0885 153.634 46.0381 150.942C44.8963 148.023 45.2617 144.328 46.9058 140.998C46.2208 141.135 45.6271 141.5 45.079 141.819C44.4853 142.184 43.9829 142.458 43.4349 142.458C43.1152 142.458 42.8412 142.367 42.5672 142.184C42.0648 141.774 41.7908 141.044 41.8365 140.132C41.8821 139.037 42.3845 137.531 43.6176 136.847C44.0743 136.574 44.6223 136.437 45.216 136.437C46.4034 136.437 47.7735 136.984 49.1893 137.623C50.5594 136.072 52.1578 135.023 53.8019 134.475C54.7153 134.202 55.6287 134.019 56.4051 134.019C57.5925 134.019 58.5516 134.384 59.1453 135.068C60.5154 136.619 59.876 139.402 58.4602 141.044C57.7752 141.819 56.4964 142.777 54.2129 142.914C54.0759 142.914 53.9846 142.914 53.8476 142.914C52.9799 142.914 52.2491 142.732 51.4271 142.458C51.1987 142.412 51.0161 142.321 50.8334 142.275C49.9657 145.332 50.3767 148.616 51.8381 149.848C52.2948 150.213 53.0712 150.623 53.8933 150.623C54.0759 150.623 54.2586 150.623 54.3956 150.578C54.4413 150.578 55.6744 150.258 55.9027 149.3C56.0397 148.844 55.9484 148.251 55.6744 147.932C55.4917 147.704 55.2177 147.613 54.9437 147.476C54.6696 147.384 53.9389 147.065 54.0303 146.29C54.1216 145.423 55.2177 145.012 56.1767 145.012C56.4508 145.012 56.7248 145.058 56.9988 145.104C59.0996 145.651 60.6523 148.616 60.15 151.216C59.739 153.406 58.0949 154.592 57.5468 155.002C56.3594 156.051 54.8523 156.508 53.2995 156.508ZM52.4318 139.265C52.9799 139.539 53.3452 139.675 53.7106 139.675C53.8019 139.675 53.8932 139.675 53.9846 139.675C54.761 139.584 55.6744 139.128 55.9027 138.398C56.0397 138.033 55.9941 137.668 55.9027 137.623C55.9027 137.623 55.7657 137.531 55.5374 137.531C54.9893 137.531 54.3043 137.76 53.8476 138.033L53.8019 138.079C53.2995 138.353 52.8429 138.763 52.4318 139.265Z" fill="#60A06C"/>
<path d="M8.58887 47.2119L9.82195 57.2474H107.007C110.706 57.2474 113.583 60.4861 113.127 64.181L102.988 169.097C102.577 173.112 99.5627 176.396 95.5895 177.126L84.1721 179.178H100.43H104.312C106.916 179.178 109.108 177.308 109.427 174.754L125.412 47.2575H8.58887V47.2119Z" fill="#60A06C"/>
<path d="M31.6523 179.133L33.4791 192.179C33.7531 194.14 35.5799 195.6 37.7721 195.6H96.3205C98.5126 195.6 100.339 194.14 100.613 192.179L102.44 179.133H31.6523Z" stroke="#474747" stroke-width="6" stroke-miterlimit="10" stroke-linecap="round" stroke-linejoin="round"/>
<path d="M109.427 174.708L125.412 47.2119H8.58887L24.5732 174.708C24.8929 177.217 27.0851 179.133 29.6882 179.133H104.358C106.961 179.133 109.108 177.263 109.427 174.708Z" stroke="#474747" stroke-width="6" stroke-miterlimit="10" stroke-linecap="round" stroke-linejoin="round"/>
<path d="M127.923 47.2121C87.3232 47.2121 46.6772 47.2121 6.07697 47.2121C2.10371 47.2577 2.65175 45.1138 4.02184 41.054C4.84389 38.6363 4.84389 36.0363 4.02184 33.6642C2.65175 29.5588 2.10371 27.4605 6.07697 27.5061C46.6772 27.5061 87.3232 27.5061 127.923 27.5061C131.897 27.4605 131.349 29.6044 129.979 33.6642C129.157 36.0819 129.157 38.682 129.979 41.054C131.349 45.1138 131.897 47.2577 127.923 47.2121Z" fill="#646464"/>
<path d="M129.979 33.6182C130.847 30.9725 131.395 29.1479 130.618 28.1899C130.436 28.7829 130.207 29.4672 129.979 30.197C129.385 31.9304 129.248 33.8007 129.476 35.6253C129.613 34.9411 129.75 34.3025 129.979 33.6182Z" fill="#7C7C7C"/>
<path d="M4.52433 35.6253C4.79834 33.8007 4.66133 31.976 4.02196 30.197C3.79361 29.4672 3.56526 28.8286 3.38259 28.1899C2.6062 29.1479 3.10857 30.9725 4.02196 33.6182C4.25031 34.3025 4.43299 34.9411 4.52433 35.6253Z" fill="#7C7C7C"/>
<path d="M130.618 43.0151C130.161 43.5169 129.339 43.7906 127.923 43.7906C87.3231 43.7906 46.6771 43.7906 6.07686 43.7906C4.66111 43.7906 3.83906 43.5625 3.38236 43.0151C2.60598 45.7977 2.78865 47.2118 6.07686 47.2118C46.6771 47.2118 87.3231 47.2118 127.923 47.2118C131.212 47.2574 131.394 45.7977 130.618 43.0151Z" fill="#7C7C7C"/>
<path d="M129.979 41.0539C129.888 40.8258 129.842 40.5977 129.796 40.3696C129.203 42.5136 129.248 44.7944 129.933 46.9383C131.623 46.2541 131.029 44.247 129.979 41.0539Z" fill="#646464"/>
<path d="M4.66157 38.1344C5.11827 37.9519 6.89938 33.5272 9.63956 33.5272C50.2398 33.5272 84.8117 33.5272 125.412 33.5272C128.7 33.5272 129.294 40.1871 129.796 40.3696C129.796 40.324 129.979 33.6641 129.979 33.6184C131.349 29.513 131.897 27.4147 127.924 27.4603C87.3692 27.4603 46.769 27.4603 6.21434 27.4603C2.10407 27.3691 2.65211 29.513 4.0222 33.6184C4.06787 33.7097 4.6159 38.0888 4.66157 38.1344Z" fill="#646464"/>
<path d="M4.11344 46.9383C4.79849 44.7944 4.84415 42.5136 4.25045 40.3696C4.20478 40.5977 4.11344 40.8258 4.06777 41.0539C2.9717 44.247 2.378 46.2541 4.11344 46.9383Z" fill="#646464"/>
<path d="M127.923 47.2121C87.3232 47.2121 46.6772 47.2121 6.07697 47.2121C2.10371 47.2577 2.65175 45.1138 4.02184 41.054C4.84389 38.6363 4.84389 36.0363 4.02184 33.6642C2.65175 29.5588 2.10371 27.4605 6.07697 27.5061C46.6772 27.5061 87.3232 27.5061 127.923 27.5061C131.897 27.4605 131.349 29.6044 129.979 33.6642C129.157 36.0819 129.157 38.682 129.979 41.054C131.349 45.1138 131.897 47.2577 127.923 47.2121Z" stroke="#474747" stroke-width="6" stroke-miterlimit="10" stroke-linecap="round" stroke-linejoin="round"/>
<path d="M124.407 27.4604H9.63916L10.7809 23.4462C12.562 17.06 18.6817 12.6353 25.6692 12.6353H108.377C115.364 12.6353 121.438 17.06 123.265 23.4462L124.407 27.4604Z" fill="#D6D6D4"/>
<path d="M124.407 27.4604H9.63916L10.7809 23.4462C12.562 17.06 18.6817 12.6353 25.6692 12.6353H108.377C115.364 12.6353 121.438 17.06 123.265 23.4462L124.407 27.4604Z" fill="#D6D6D4"/>
<path d="M33.7073 17.3793L112.031 17.3337C117.694 17.3337 121.165 21.3935 122.763 21.8953C119.977 17.7442 113.812 12.6353 108.423 12.6353H25.6238C18.6363 12.6353 12.5623 17.06 10.7355 23.4462L9.59375 27.4604H19.5497C21.9702 22.169 27.4962 17.3793 33.7073 17.3793Z" fill="white"/>
<path d="M124.407 27.4604H9.63916L10.7809 23.4462C12.562 17.06 18.6817 12.6353 25.6692 12.6353H108.377C115.364 12.6353 121.438 17.06 123.265 23.4462L124.407 27.4604Z" stroke="#474747" stroke-width="6" stroke-miterlimit="10" stroke-linecap="round" stroke-linejoin="round"/>
<path d="M101.801 12.6352H70.4712V9.71575C70.4712 6.34018 73.2114 3.55762 76.6366 3.55762H95.6808C99.0604 3.55762 101.846 6.29456 101.846 9.71575V12.6352H101.801Z" fill="#D6D6D4"/>
<path d="M101.801 12.6352H70.4712V9.71575C70.4712 6.34018 73.2114 3.55762 76.6366 3.55762H95.6808C99.0604 3.55762 101.846 6.29456 101.846 9.71575V12.6352H101.801Z" fill="#D6D6D4"/>
<path d="M70.5169 12.5442C70.5169 9.30549 73.12 6.7054 76.3626 6.7054H96.0005C98.969 6.7054 101.435 8.94056 101.801 11.8144V9.44235C101.801 6.20362 99.1974 3.60352 95.9548 3.60352H76.3169C73.0744 3.60352 70.4712 6.20362 70.4712 9.44235V12.6355H70.5169V12.5442Z" fill="white"/>
<path d="M63.301 119.741C58.46 119.741 49.6914 116.32 46.9056 107.151C44.1654 99.67 45.3528 90.8662 49.9655 84.2519C53.345 79.4166 57.9576 76.6797 62.6159 76.6797C64.0317 76.6797 65.4475 76.9534 66.8175 77.4552L66.8632 77.5008L66.9089 77.5464C67.8679 78.0938 68.416 78.7324 68.5987 79.5079C68.8727 80.8307 68.005 82.0624 66.8632 83.6133C64.5797 86.7608 61.4742 91.0487 64.5341 99.0314C68.0963 108.246 68.0963 117.004 65.9042 119.102C65.4475 119.513 64.5341 119.741 63.301 119.741Z" fill="#60A06C"/>
<path d="M101.801 12.6352H70.4712V9.71575C70.4712 6.34018 73.2114 3.55762 76.6366 3.55762H95.6808C99.0604 3.55762 101.846 6.29456 101.846 9.71575V12.6352H101.801Z" stroke="#474747" stroke-width="6" stroke-miterlimit="10" stroke-linecap="round" stroke-linejoin="round"/>
<path d="M75.8603 119.604C74.0792 119.604 72.4351 118.92 71.2934 117.734C70.3343 116.684 69.832 115.362 69.9233 113.947C70.1516 110.298 68.9186 106.831 67.7312 103.456C66.6351 100.4 65.5847 97.4802 65.5847 94.4695C65.539 83.3393 73.0288 79.8269 73.9422 79.4619C74.5359 79.097 75.221 78.9146 75.9517 78.9146C78.9202 78.9146 82.5738 81.834 85.2226 86.3499C87.0037 89.3606 92.2557 100.172 85.3596 112.579C82.8478 117.049 79.4226 119.604 75.8603 119.604Z" fill="#60A06C"/>
<path d="M66.9547 76.9081C72.3437 79.9644 58.6885 83.7048 64.1688 97.937C67.9137 107.653 67.3657 115.499 65.7673 117.004C64.1688 118.51 51.6554 116.731 48.1845 105.509C42.5214 90.0911 54.8522 72.3921 66.9547 76.9081Z" fill="#F6F9E4"/>
<path d="M74.81 78.9147C74.81 78.9147 66.9091 82.0166 66.9548 93.1468C66.9548 99.3506 71.7501 105.6 71.2934 112.67C70.9737 117.597 79.4226 120.881 85.04 110.8C94.8589 93.01 80.2446 75.4479 74.81 78.9147Z" fill="#F6F9E4"/>
<path d="M61.8857 141.454C59.7849 143.461 59.6936 147.612 61.566 149.117C61.7031 149.208 62.3881 149.801 63.3928 149.756C65.1283 149.71 66.4527 147.794 66.8637 146.243C67.5031 143.78 66.1787 140.678 64.3519 140.359C63.2102 140.176 62.2054 141.134 61.8857 141.454ZM64.6716 145.97C64.6259 146.106 64.3519 146.928 63.7125 147.019C63.3015 147.064 62.9818 146.791 62.9361 146.745C62.3881 146.243 62.4338 145.103 62.9818 143.871C63.3472 143.324 63.6212 143.187 63.8039 143.233C64.4432 143.233 65.1283 144.784 64.6716 145.97Z" fill="#F6F9E4"/>
<path d="M67.4571 155.093C66.498 154.454 67.3201 152.994 67.8681 140.587C68.0051 137.166 68.7359 134.064 70.517 132.832C70.8823 132.604 71.887 131.874 73.1201 132.057C73.3941 132.102 73.9879 132.194 74.4446 132.695C75.3123 133.562 75.0383 134.885 74.9926 134.976C74.7186 134.839 74.2162 134.611 73.5768 134.703C73.5768 134.703 72.8461 134.839 72.1611 135.569C70.4256 137.439 70.6083 145.285 70.6083 145.285C70.791 151.808 71.1107 154.089 69.8319 155.002C69.2382 155.503 68.1878 155.549 67.4571 155.093Z" fill="#F6F9E4"/>
<path d="M72.6635 154.956C71.8415 154.409 72.5265 153.131 73.0289 142.412C73.1659 139.447 73.8053 136.755 75.3124 135.706C75.6321 135.478 76.4998 134.885 77.5502 135.068C77.7785 135.113 78.2809 135.204 78.7376 135.615C79.4683 136.345 79.24 137.485 79.1943 137.622C78.9659 137.485 78.5093 137.303 77.9612 137.394C77.9612 137.394 77.3219 137.485 76.7281 138.124C75.2211 139.766 75.4037 146.517 75.4037 146.517C75.5407 152.173 75.8147 154.135 74.7187 154.91C74.1706 155.321 73.3029 155.367 72.6635 154.956Z" fill="#F6F9E4"/>
<path d="M80.3364 148.935C79.9253 149.026 79.3773 149.026 78.9663 148.752C78.0072 148.068 78.3269 145.65 79.5143 144.236C79.697 144.054 80.7474 142.868 81.7064 143.187C81.9805 143.278 82.3458 143.552 82.3458 143.871C82.3915 144.647 80.7931 145.513 79.3773 145.605C78.6009 145.65 77.9615 145.468 77.5962 145.331C77.1851 145.924 77.2308 146.289 77.2765 146.426C77.5505 147.292 79.5143 147.247 79.7883 147.201C79.971 147.201 83.3962 146.973 84.0356 144.647C84.264 143.78 84.1269 142.548 83.3049 141.819C82.1175 140.815 80.2907 141.499 80.0623 141.636C76.8198 142.913 75.3584 148.478 77.0025 150.121C77.9615 151.079 80.1994 150.942 81.2954 149.893C82.0261 149.163 82.2088 148.022 81.9805 147.885C81.8435 147.885 81.3868 148.707 80.3364 148.935Z" fill="#F6F9E4"/>
<path d="M87.2324 149.528C86.867 149.619 86.3647 149.619 86.045 149.391C85.1772 148.752 85.5426 146.608 86.5473 145.376C86.6844 145.194 87.4607 144.236 88.1001 144.464C88.4198 144.555 88.6481 144.92 88.6481 145.24C88.6025 145.969 87.3694 146.517 86.456 146.608C85.771 146.699 85.1773 146.517 84.8576 146.38C84.4922 146.882 84.5379 147.247 84.5836 147.338C84.8119 148.022 86.1363 148.113 86.8214 148.022C88.0088 147.931 89.7899 147.201 90.2466 145.605C90.2922 145.422 90.6576 144.099 89.9269 143.278C89.1048 142.366 87.5521 142.548 86.593 142.913C83.8985 144.008 82.6654 148.706 84.2182 150.303C85.1316 151.215 87.141 151.307 88.1001 150.44C88.7851 149.847 88.9222 148.798 88.7395 148.661C88.5568 148.57 88.1458 149.299 87.2324 149.528Z" fill="#F6F9E4"/>
<path d="M81.7061 137.075C81.6604 137.668 81.4777 138.397 80.9297 138.945C77.7785 141.955 66.9091 133.517 63.8492 136.527C63.1642 137.166 62.6162 138.626 62.9815 139.036C63.1642 139.219 63.4839 139.127 64.3059 139.036C65.0367 138.945 65.813 138.99 66.5437 138.899C68.3705 138.717 71.1564 139.812 74.0336 140.45C74.7643 140.587 80.5187 141.773 81.8887 140.04C82.0714 139.812 82.9391 138.671 82.5738 137.941C82.2541 137.622 81.9801 137.348 81.7061 137.075Z" fill="#F6F9E4"/>
<path d="M49.7376 138.215C51.7014 139.173 52.3408 139.811 53.6195 139.675C54.6243 139.538 55.9487 138.945 56.314 137.759C56.451 137.303 56.5424 136.481 56.1313 136.071C55.492 135.387 53.8935 135.843 52.9801 136.299C52.9801 136.299 52.9345 136.345 52.8888 136.345C48.9155 138.489 47.6825 147.064 50.8793 149.756C51.7014 150.44 52.9801 150.987 54.2589 150.668C54.4416 150.622 56.04 150.212 56.451 148.752C56.6337 148.022 56.4967 147.156 56.04 146.563C55.4463 145.878 54.5786 145.833 54.6242 145.605C54.6242 145.377 55.5833 145.012 56.451 145.24C58.0951 145.65 59.3282 148.159 58.9172 150.303C58.5518 152.128 57.1361 153.177 56.6794 153.496C55.0353 154.682 52.8888 154.956 51.062 154.409C47.9565 153.451 46.7691 150.349 46.4951 149.71C44.2572 143.962 48.4588 136.117 53.7109 134.474C54.0762 134.338 56.9077 133.471 58.0951 134.794C59.0999 135.934 58.5518 138.261 57.4101 139.538C56.1313 140.997 54.3046 141.089 53.8022 141.134C52.8888 141.18 52.2038 140.997 51.2904 140.724C48.9612 140.085 48.8242 139.355 47.5455 139.127C45.0793 138.762 43.5265 141.134 42.7045 140.541C41.9738 139.994 42.2934 137.485 43.6635 136.71C44.988 135.934 47.1801 136.983 49.7376 138.215Z" fill="#F6F9E4"/>
</svg>
