<svg width="550" height="279" viewBox="0 0 550 279" fill="none" xmlns="http://www.w3.org/2000/svg">

<path d="M542.245 278.336H7.75497C3.44666 278.336 0 274.889 0 270.581C0 266.272 3.44666 262.826 7.75497 262.826H542.245C546.553 262.826 550 266.272 550 270.581C550 274.889 546.553 278.336 542.245 278.336Z" fill="#9BE9E9"/>
<!-- books -->
<g class="arrive">
<path d="M108.311 198.201C100.039 198.201 93.4038 191.48 93.4038 183.294C93.4038 175.108 100.125 168.387 108.311 168.387H192.754V198.287H108.311V198.201Z" fill="#CECECE"/>
<path d="M197.665 203.371H108.311C97.1952 203.371 88.2339 194.323 88.2339 183.294C88.2339 172.179 97.2813 163.217 108.311 163.217H197.665V203.371V203.371Z" fill="white"/>
<path d="M102.796 178.641H192.754" stroke="#1F3969" stroke-width="4" stroke-miterlimit="10" stroke-linecap="round" stroke-linejoin="round"/>
<path d="M102.796 187.774H192.754" stroke="#1F3969" stroke-width="4" stroke-miterlimit="10" stroke-linecap="round" stroke-linejoin="round"/>
<path d="M108.311 198.201C100.039 198.201 93.4038 191.48 93.4038 183.294C93.4038 175.108 100.125 168.387 108.311 168.387H192.754V198.287H108.311V198.201Z" stroke="#1F3969" stroke-width="4" stroke-miterlimit="10" stroke-linecap="round" stroke-linejoin="round"/>
<path d="M108.311 198.201C100.039 198.201 93.4039 191.48 93.4039 183.294C93.4039 175.108 100.125 168.387 108.311 168.387H194.219L197.665 163.217H108.311C97.1952 163.217 88.2339 172.265 88.2339 183.294C88.2339 194.41 97.2813 203.371 108.311 203.371H197.665L194.219 198.201H108.311Z" fill="#FF3E3E"/>
<path d="M108.311 198.201C100.039 198.201 93.4039 191.48 93.4039 183.294C93.4039 175.108 100.125 168.387 108.311 168.387H194.219L197.665 163.217H108.311C97.1952 163.217 88.2339 172.265 88.2339 183.294C88.2339 194.41 97.2813 203.371 108.311 203.371H197.665L194.219 198.201H108.311Z" stroke="#1F3969" stroke-width="4" stroke-miterlimit="10" stroke-linecap="round" stroke-linejoin="round"/>
<path d="M188.445 236.545H24.8154C21.6272 236.545 18.9561 233.96 18.9561 230.686V209.144C18.9561 205.956 21.541 203.285 24.8154 203.285H188.445C191.633 203.285 194.305 205.87 194.305 209.144V230.686C194.305 233.96 191.72 236.545 188.445 236.545Z" fill="#50B56F"/>
<path d="M188.445 236.545H24.8154C21.6272 236.545 18.9561 233.96 18.9561 230.686V209.144C18.9561 205.956 21.541 203.285 24.8154 203.285H188.445C191.633 203.285 194.305 205.87 194.305 209.144V230.686C194.305 233.96 191.72 236.545 188.445 236.545Z" stroke="#1F3969" stroke-width="4" stroke-miterlimit="10" stroke-linecap="round" stroke-linejoin="round"/>
<path d="M234.545 243.266H44.9785C46.0987 246.023 46.7018 249.47 46.7018 253.089C46.7018 256.708 46.0987 260.068 44.9785 262.912H234.458C233.338 260.154 232.735 256.708 232.735 253.089C232.821 249.383 233.424 246.023 234.545 243.266Z" fill="#CECECE"/>
<path d="M239.714 238.01H39.8945V243.18H239.714V238.01Z" fill="#5F5AFF"/>
<path d="M239.714 238.01H39.8945V243.18H239.714V238.01Z" stroke="#1F3969" stroke-width="4" stroke-miterlimit="10" stroke-linecap="round" stroke-linejoin="round"/>
<path d="M239.714 262.826H39.8945V267.996H239.714V262.826Z" fill="#F6F9FD"/>
<path d="M239.714 262.826H39.8945V267.996H239.714V262.826Z" fill="#5F5AFF"/>
<path d="M239.714 262.826H39.8945V267.996H239.714V262.826Z" stroke="#1F3969" stroke-width="4" stroke-miterlimit="10" stroke-linecap="round" stroke-linejoin="round"/>
</g>
<path d="M338.978 249.642L336.393 220.604H293.827L291.242 249.642C290.639 256.363 286.589 262.826 280.212 267.996V268.082H350.007V267.996C343.631 262.826 339.581 256.363 338.978 249.642Z" fill="#BFCFE2"/>
<path opacity="0.28" d="M293.827 220.604L292.276 238.01H337.944L336.393 220.604H293.827Z" fill="#1F3969" stroke="#1F3969" stroke-width="4" stroke-miterlimit="10" stroke-linecap="round" stroke-linejoin="round"/>
<path d="M338.978 249.642L336.393 220.604H293.827L291.242 249.642C290.639 256.363 286.589 262.826 280.212 267.996V268.082H350.007V267.996C343.631 262.826 339.581 256.363 338.978 249.642Z" stroke="#1F3969" stroke-width="4" stroke-miterlimit="10" stroke-linecap="round" stroke-linejoin="round"/>
<path d="M451.253 224.912H178.967C173.28 224.912 168.627 220.259 168.627 214.572V37.0697C168.627 31.3827 173.28 26.7297 178.967 26.7297H451.253C456.94 26.7297 461.593 31.3827 461.593 37.0697V214.572C461.593 220.346 456.94 224.912 451.253 224.912Z" fill="white"/>
<path d="M451.253 224.912H178.967C173.28 224.912 168.627 220.259 168.627 214.572V37.0697C168.627 31.3827 173.28 26.7297 178.967 26.7297H451.253C456.94 26.7297 461.593 31.3827 461.593 37.0697V214.572C461.593 220.346 456.94 224.912 451.253 224.912Z" fill="#BFCFE2"/>
<path d="M451.253 224.912H178.967C173.28 224.912 168.627 220.259 168.627 214.572V37.0697C168.627 31.3827 173.28 26.7297 178.967 26.7297H451.253C456.94 26.7297 461.593 31.3827 461.593 37.0697V214.572C461.593 220.346 456.94 224.912 451.253 224.912Z" stroke="#1F3969" stroke-width="4" stroke-miterlimit="10" stroke-linecap="round" stroke-linejoin="round"/>
<path d="M446.992 191.849V41.4023L183.323 41.4023V191.849L446.992 191.849Z" fill="#F6F9FD"/>
<!-- windows -->
<g class="appear">
<path opacity="0.28" d="M192.754 26.7297V146.156C192.754 149.948 195.856 153.05 199.647 153.05H362.588C366.379 153.05 369.481 149.948 369.481 146.156V26.7297H192.754Z" fill="#1F3969" stroke="#1F3969" stroke-width="4" stroke-miterlimit="10" stroke-linecap="round" stroke-linejoin="round"/>
</g>
<path d="M446.992 191.849V41.4023L183.323 41.4023V191.849L446.992 191.849Z" stroke="#1F3969" stroke-width="4" stroke-miterlimit="10" stroke-linecap="round" stroke-linejoin="round"/>
<path d="M303.564 208.282H326.742" stroke="#1F3969" stroke-width="4" stroke-miterlimit="10" stroke-linecap="round" stroke-linejoin="round"/>
<g class="appear">
<path d="M370.342 143.571H207.402C203.61 143.571 200.508 140.469 200.508 136.678V8.97949C200.508 5.18817 203.61 2.08618 207.402 2.08618H370.342C374.134 2.08618 377.236 5.18817 377.236 8.97949V136.764C377.236 140.556 374.134 143.571 370.342 143.571Z" fill="#2D425E"/>
<path d="M377.236 18.8024H200.508V8.89331C200.508 5.10199 203.61 2 207.402 2H370.342C374.134 2 377.236 5.10199 377.236 8.89331V18.8024Z" stroke="#1F3969" stroke-width="4" stroke-miterlimit="10" stroke-linecap="round" stroke-linejoin="round"/>
<path d="M377.236 22.0768H200.508V8.89331C200.508 5.10199 203.61 2 207.402 2H370.342C374.134 2 377.236 5.10199 377.236 8.89331V22.0768Z" fill="#D0DDF0"/>
<path d="M377.236 22.0768H200.508V8.89331C200.508 5.10199 203.61 2 207.402 2H370.342C374.134 2 377.236 5.10199 377.236 8.89331V22.0768Z" stroke="#1F3969" stroke-width="4" stroke-miterlimit="10" stroke-linecap="round" stroke-linejoin="round"/>
<path d="M377.236 22.0768H200.508V8.89331C200.508 5.10199 203.61 2 207.402 2H370.342C374.134 2 377.236 5.10199 377.236 8.89331V22.0768Z" stroke="#1F3969" stroke-width="4" stroke-miterlimit="10" stroke-linecap="round" stroke-linejoin="round"/>
<path d="M370.342 143.571H207.402C203.61 143.571 200.508 140.469 200.508 136.678V8.97949C200.508 5.18817 203.61 2.08618 207.402 2.08618H370.342C374.134 2.08618 377.236 5.18817 377.236 8.97949V136.764C377.236 140.556 374.134 143.571 370.342 143.571Z" stroke="#1F3969" stroke-width="4" stroke-miterlimit="10" stroke-linecap="round" stroke-linejoin="round"/>
<path opacity="0.28" d="M455.389 174.074H355.436C351.644 174.074 348.542 170.972 348.542 167.181V61.2825C348.542 57.4912 351.644 54.3892 355.436 54.3892H455.389C459.18 54.3892 462.282 57.4912 462.282 61.2825V167.181C462.282 171.058 459.18 174.074 455.389 174.074Z" fill="#1F3969" stroke="#1F3969" stroke-width="4" stroke-miterlimit="10" stroke-linecap="round" stroke-linejoin="round"/>
<path d="M462.282 168.043H362.329C358.538 168.043 355.436 164.941 355.436 161.149V55.2507C355.436 51.4594 358.538 48.3574 362.329 48.3574H462.282C466.074 48.3574 469.176 51.4594 469.176 55.2507V161.149C469.176 165.027 466.074 168.043 462.282 168.043Z" fill="#2AA1FF"/>
<path d="M462.282 168.043H362.329C358.538 168.043 355.436 164.941 355.436 161.149V55.2507C355.436 51.4594 358.538 48.3574 362.329 48.3574H462.282C466.074 48.3574 469.176 51.4594 469.176 55.2507V161.149C469.176 165.027 466.074 168.043 462.282 168.043Z" stroke="#1F3969" stroke-width="4" stroke-miterlimit="10" stroke-linecap="round" stroke-linejoin="round"/>
<path opacity="0.34" d="M447.375 81.1867H377.064C374.565 81.1867 372.583 79.2048 372.583 76.706V69.9851C372.583 67.4862 374.565 65.5044 377.064 65.5044H447.375C449.874 65.5044 451.856 67.4862 451.856 69.9851V76.706C451.856 79.2048 449.874 81.1867 447.375 81.1867Z" stroke="white" stroke-width="2" stroke-miterlimit="10" stroke-linecap="round" stroke-linejoin="round"/>
<!-- <g opacity="0.34"> -->
<path opacity="0.34" d="M416.528 106.433H377.236C374.737 106.433 372.755 104.452 372.755 101.953V95.2319C372.755 92.733 374.737 90.7512 377.236 90.7512H416.528C419.027 90.7512 421.009 92.733 421.009 95.2319V101.953C420.922 104.452 418.941 106.433 416.528 106.433Z" stroke="white" stroke-width="2" stroke-miterlimit="10" stroke-linecap="round" stroke-linejoin="round"/>
<path opacity="0.34" d="M447.462 106.433H432.21C429.711 106.433 427.729 104.452 427.729 101.953V95.2319C427.729 92.733 429.711 90.7512 432.21 90.7512H447.462C449.96 90.7512 451.942 92.733 451.942 95.2319V101.953C451.942 104.452 449.96 106.433 447.462 106.433Z" stroke="white" stroke-width="2" stroke-miterlimit="10" stroke-linecap="round" stroke-linejoin="round"/>
<!-- </g> -->
<path d="M372.669 132.628H451.856" stroke="white" stroke-width="2" stroke-miterlimit="10" stroke-linecap="round" stroke-linejoin="round"/>
<path d="M372.669 141.934H451.856" stroke="white" stroke-width="2" stroke-miterlimit="10" stroke-linecap="round" stroke-linejoin="round"/>
<path d="M372.669 151.24H420.922" stroke="white" stroke-width="2" stroke-miterlimit="10" stroke-linecap="round" stroke-linejoin="round"/>
<path d="M217.828 15.5281C219.731 15.5281 221.274 13.985 221.274 12.0814C221.274 10.1779 219.731 8.63477 217.828 8.63477C215.924 8.63477 214.381 10.1779 214.381 12.0814C214.381 13.985 215.924 15.5281 217.828 15.5281Z" fill="#1F3969"/>
<path d="M229.805 15.5281C231.709 15.5281 233.252 13.985 233.252 12.0814C233.252 10.1779 231.709 8.63477 229.805 8.63477C227.902 8.63477 226.358 10.1779 226.358 12.0814C226.358 13.985 227.902 15.5281 229.805 15.5281Z" fill="#1F3969"/>
<path d="M241.782 15.5281C243.685 15.5281 245.229 13.985 245.229 12.0814C245.229 10.1779 243.685 8.63477 241.782 8.63477C239.878 8.63477 238.335 10.1779 238.335 12.0814C238.335 13.985 239.878 15.5281 241.782 15.5281Z" fill="#1F3969"/>
<path d="M302.012 38.0176H313.214" stroke="white" stroke-width="4" stroke-miterlimit="10" stroke-linecap="round" stroke-linejoin="round"/>
<path d="M245.228 38.0176H293.74" stroke="#7BFFA0" stroke-width="4" stroke-miterlimit="10" stroke-linecap="round" stroke-linejoin="round"/>
<path d="M221.274 38.0176H238.335" stroke="#9169FF" stroke-width="4" stroke-miterlimit="10" stroke-linecap="round" stroke-linejoin="round"/>
<path d="M243.505 122.892H280.556" stroke="#9169FF" stroke-width="4" stroke-miterlimit="10" stroke-linecap="round" stroke-linejoin="round"/>
<path d="M221.274 122.891H233.252" stroke="#7BFFA0" stroke-width="4" stroke-miterlimit="10" stroke-linecap="round" stroke-linejoin="round"/>
<path d="M293.741 48.616H300.721" stroke="white" stroke-width="4" stroke-miterlimit="10" stroke-linecap="round" stroke-linejoin="round"/>
<path d="M262.032 48.616H285.469" stroke="#9169FF" stroke-width="4" stroke-miterlimit="10" stroke-linecap="round" stroke-linejoin="round"/>
<path d="M229.806 48.616H253.674" stroke="#FFC47D" stroke-width="4" stroke-miterlimit="10" stroke-linecap="round" stroke-linejoin="round"/>
<path d="M266.77 59.2141H287.364" stroke="white" stroke-width="4" stroke-miterlimit="10" stroke-linecap="round" stroke-linejoin="round"/>
<path d="M240.92 59.2144H260.308" stroke="#FF5757" stroke-width="4" stroke-miterlimit="10" stroke-linecap="round" stroke-linejoin="round"/>
<path d="M269.529 69.813H273.751" stroke="white" stroke-width="4" stroke-miterlimit="10" stroke-linecap="round" stroke-linejoin="round"/>
<path d="M252.468 69.813H262.033" stroke="#9169FF" stroke-width="4" stroke-miterlimit="10" stroke-linecap="round" stroke-linejoin="round"/>
<path d="M229.806 69.813H245.229" stroke="#7BFFA0" stroke-width="4" stroke-miterlimit="10" stroke-linecap="round" stroke-linejoin="round"/>
<path d="M262.894 80.4976H290.381" stroke="#FFC47D" stroke-width="4" stroke-miterlimit="10" stroke-linecap="round" stroke-linejoin="round"/>
<path d="M229.806 80.4976H254.449" stroke="#FF5757" stroke-width="4" stroke-miterlimit="10" stroke-linecap="round" stroke-linejoin="round"/>
<path d="M294.688 91.0959H309.595" stroke="#9169FF" stroke-width="4" stroke-miterlimit="10" stroke-linecap="round" stroke-linejoin="round"/>
<path d="M262.893 91.0959H286.761" stroke="#FF5757" stroke-width="4" stroke-miterlimit="10" stroke-linecap="round" stroke-linejoin="round"/>
<path d="M240.92 91.0959H254.449" stroke="#7BFFA0" stroke-width="4" stroke-miterlimit="10" stroke-linecap="round" stroke-linejoin="round"/>
<path d="M273.75 101.694H286.761" stroke="white" stroke-width="4" stroke-miterlimit="10" stroke-linecap="round" stroke-linejoin="round"/>
<path d="M240.92 101.694H264.789" stroke="#9169FF" stroke-width="4" stroke-miterlimit="10" stroke-linecap="round" stroke-linejoin="round"/>
<path d="M307.615 112.293H322.521" stroke="white" stroke-width="4" stroke-miterlimit="10" stroke-linecap="round" stroke-linejoin="round"/>
<path d="M262.032 112.293H299.515" stroke="#FFC47D" stroke-width="4" stroke-miterlimit="10" stroke-linecap="round" stroke-linejoin="round"/>
<path d="M229.806 112.293H253.674" stroke="white" stroke-width="4" stroke-miterlimit="10" stroke-linecap="round" stroke-linejoin="round"/>
</g>
<!-- books -->
<g class="arrive">
<path d="M47.1328 249.211H232.821" stroke="#1F3969" stroke-width="4" stroke-miterlimit="10" stroke-linecap="round" stroke-linejoin="round"/>
<path d="M47.1328 256.104H232.821" stroke="#1F3969" stroke-width="4" stroke-miterlimit="10" stroke-linecap="round" stroke-linejoin="round"/>
<path d="M234.545 243.266H44.9785C46.0987 246.023 46.7018 249.47 46.7018 253.089C46.7018 256.708 46.0987 260.068 44.9785 262.912H234.458C233.338 260.154 232.735 256.708 232.735 253.089C232.821 249.383 233.424 246.023 234.545 243.266Z" stroke="#1F3969" stroke-width="4" stroke-miterlimit="10" stroke-linecap="round" stroke-linejoin="round"/>
</g>
<!-- pens -->
<g class="arrive">
<path d="M489.554 173.016L481.167 174L488.461 236.132L496.848 235.147L489.554 173.016Z" fill="#FFA364"/>
<path d="M489.565 173.082L481.178 174.066L481.922 180.399L490.309 179.415L489.565 173.082Z" fill="#2AA1FF"/>
<path d="M489.565 173.082L481.178 174.066L481.922 180.399L490.309 179.415L489.565 173.082Z" stroke="#1F3969" stroke-width="4" stroke-miterlimit="10" stroke-linecap="round" stroke-linejoin="round"/>
<path d="M489.554 173.016L481.167 174L488.461 236.132L496.848 235.147L489.554 173.016Z" stroke="#1F3969" stroke-width="4" stroke-miterlimit="10" stroke-linecap="round" stroke-linejoin="round"/>
<path d="M512.551 185.742L504.157 184.83L497.395 247.017L505.789 247.93L512.551 185.742Z" fill="#FF5252"/>
<path d="M512.551 185.742L504.157 184.83L497.395 247.017L505.789 247.93L512.551 185.742Z" stroke="#1F3969" stroke-width="4" stroke-miterlimit="10" stroke-linecap="round" stroke-linejoin="round"/>
<path d="M512.614 185.757L504.219 184.844L503.53 191.183L511.924 192.096L512.614 185.757Z" fill="#2D425E"/>
<path d="M512.614 185.757L504.219 184.844L503.53 191.183L511.924 192.096L512.614 185.757Z" stroke="#1F3969" stroke-width="4" stroke-miterlimit="10" stroke-linecap="round" stroke-linejoin="round"/>
<path d="M517.774 268.254H483.91L478.396 216.382H523.288L517.774 268.254Z" fill="#6567C3"/>
<path d="M478.396 216.382L478.482 217.33H512.69L507.261 268.254H517.774L523.288 216.382H478.396Z" fill="#6567C3"/>
<path d="M517.774 268.254H483.91L478.396 216.382H523.288L517.774 268.254Z" stroke="#1F3969" stroke-width="4" stroke-miterlimit="10" stroke-linecap="round" stroke-linejoin="round"/>
</g>
<g class="arrive">
<path d="M70.7695 222.225V212.272H73.5791C74.445 212.272 75.2106 212.464 75.876 212.846C76.5413 213.229 77.054 213.774 77.4141 214.48C77.7786 215.187 77.9632 215.998 77.9678 216.914V217.55C77.9678 218.488 77.7855 219.311 77.4209 220.017C77.0609 220.724 76.5436 221.266 75.8691 221.644C75.1992 222.023 74.4176 222.216 73.5244 222.225H70.7695ZM72.082 213.352V221.152H73.4629C74.4746 221.152 75.2607 220.838 75.8213 220.209C76.3864 219.58 76.6689 218.684 76.6689 217.522V216.941C76.6689 215.811 76.4023 214.934 75.8691 214.309C75.3405 213.68 74.5885 213.361 73.6133 213.352H72.082ZM82.5328 222.225H81.2682V214.829H82.5328V222.225ZM81.1656 212.867C81.1656 212.662 81.2271 212.489 81.3502 212.347C81.4778 212.206 81.6646 212.135 81.9107 212.135C82.1568 212.135 82.3437 212.206 82.4713 212.347C82.5989 212.489 82.6627 212.662 82.6627 212.867C82.6627 213.072 82.5989 213.243 82.4713 213.38C82.3437 213.516 82.1568 213.585 81.9107 213.585C81.6646 213.585 81.4778 213.516 81.3502 213.38C81.2271 213.243 81.1656 213.072 81.1656 212.867ZM88.9299 221.33C89.3811 221.33 89.7753 221.193 90.1125 220.92C90.4497 220.646 90.6366 220.304 90.673 219.894H91.8693C91.8466 220.318 91.7007 220.721 91.4318 221.104C91.163 221.487 90.8029 221.792 90.3518 222.02C89.9051 222.248 89.4312 222.362 88.9299 222.362C87.9227 222.362 87.1206 222.027 86.5236 221.357C85.9312 220.683 85.635 219.762 85.635 218.595V218.384C85.635 217.663 85.7671 217.023 86.0314 216.463C86.2958 215.902 86.674 215.467 87.1662 215.157C87.663 214.847 88.2486 214.692 88.923 214.692C89.7525 214.692 90.4406 214.941 90.9875 215.437C91.5389 215.934 91.8329 216.579 91.8693 217.372H90.673C90.6366 216.893 90.4543 216.501 90.1262 216.196C89.8026 215.886 89.4016 215.731 88.923 215.731C88.2805 215.731 87.7814 215.964 87.426 216.428C87.0751 216.889 86.8996 217.556 86.8996 218.431V218.671C86.8996 219.523 87.0751 220.179 87.426 220.639C87.7769 221.1 88.2782 221.33 88.9299 221.33ZM96.407 213.038V214.829H97.7879V215.806H96.407V220.393C96.407 220.69 96.4686 220.913 96.5916 221.063C96.7147 221.209 96.9243 221.282 97.2205 221.282C97.3663 221.282 97.5669 221.255 97.8221 221.2V222.225C97.4894 222.316 97.1658 222.362 96.8514 222.362C96.2863 222.362 95.8602 222.191 95.5731 221.849C95.2859 221.508 95.1424 221.022 95.1424 220.393V215.806H93.7957V214.829H95.1424V213.038H96.407ZM102.045 222.225H100.781V214.829H102.045V222.225ZM100.678 212.867C100.678 212.662 100.74 212.489 100.863 212.347C100.99 212.206 101.177 212.135 101.423 212.135C101.669 212.135 101.856 212.206 101.984 212.347C102.111 212.489 102.175 212.662 102.175 212.867C102.175 213.072 102.111 213.243 101.984 213.38C101.856 213.516 101.669 213.585 101.423 213.585C101.177 213.585 100.99 213.516 100.863 213.38C100.74 213.243 100.678 213.072 100.678 212.867ZM105.141 218.459C105.141 217.734 105.282 217.082 105.564 216.504C105.852 215.925 106.248 215.478 106.754 215.164C107.264 214.849 107.845 214.692 108.497 214.692C109.504 214.692 110.318 215.041 110.938 215.738C111.562 216.435 111.874 217.363 111.874 218.52V218.609C111.874 219.329 111.735 219.976 111.457 220.551C111.184 221.12 110.789 221.565 110.274 221.884C109.764 222.203 109.176 222.362 108.511 222.362C107.508 222.362 106.695 222.013 106.07 221.316C105.451 220.619 105.141 219.696 105.141 218.548V218.459ZM106.412 218.609C106.412 219.429 106.601 220.088 106.979 220.585C107.362 221.081 107.873 221.33 108.511 221.33C109.153 221.33 109.664 221.079 110.042 220.578C110.42 220.072 110.609 219.366 110.609 218.459C110.609 217.648 110.416 216.991 110.028 216.49C109.646 215.984 109.135 215.731 108.497 215.731C107.873 215.731 107.369 215.98 106.986 216.476C106.604 216.973 106.412 217.684 106.412 218.609ZM116.056 214.829L116.097 215.759C116.662 215.048 117.401 214.692 118.312 214.692C119.875 214.692 120.664 215.574 120.677 217.338V222.225H119.413V217.331C119.408 216.798 119.285 216.403 119.044 216.148C118.807 215.893 118.435 215.765 117.929 215.765C117.519 215.765 117.159 215.875 116.849 216.094C116.539 216.312 116.298 216.599 116.125 216.955V222.225H114.86V214.829H116.056ZM128.551 222.225C128.478 222.08 128.419 221.82 128.373 221.446C127.785 222.057 127.084 222.362 126.268 222.362C125.539 222.362 124.939 222.157 124.47 221.747C124.005 221.332 123.773 220.808 123.773 220.175C123.773 219.404 124.064 218.807 124.648 218.384C125.236 217.955 126.06 217.741 127.122 217.741H128.353V217.16C128.353 216.718 128.221 216.367 127.956 216.107C127.692 215.843 127.302 215.711 126.787 215.711C126.336 215.711 125.958 215.825 125.653 216.052C125.347 216.28 125.195 216.556 125.195 216.88H123.923C123.923 216.51 124.053 216.155 124.313 215.813C124.577 215.467 124.932 215.193 125.379 214.993C125.83 214.792 126.325 214.692 126.863 214.692C127.715 214.692 128.382 214.906 128.865 215.335C129.349 215.759 129.599 216.344 129.617 217.092V220.496C129.617 221.175 129.704 221.715 129.877 222.116V222.225H128.551ZM126.452 221.261C126.849 221.261 127.225 221.159 127.58 220.954C127.936 220.749 128.193 220.482 128.353 220.154V218.636H127.362C125.812 218.636 125.037 219.09 125.037 219.997C125.037 220.393 125.169 220.703 125.434 220.927C125.698 221.15 126.038 221.261 126.452 221.261ZM136.575 215.964C136.384 215.932 136.176 215.916 135.953 215.916C135.124 215.916 134.561 216.269 134.264 216.975V222.225H133V214.829H134.23L134.251 215.683C134.665 215.023 135.253 214.692 136.014 214.692C136.261 214.692 136.447 214.724 136.575 214.788V215.964ZM141.687 220.373L143.41 214.829H144.763L141.789 223.367C141.329 224.597 140.598 225.213 139.595 225.213L139.356 225.192L138.884 225.103V224.078L139.226 224.105C139.654 224.105 139.987 224.019 140.224 223.845C140.466 223.672 140.664 223.356 140.819 222.895L141.099 222.143L138.46 214.829H139.841L141.687 220.373Z" fill="white"/>
</g>
</svg>
