<svg width="534" height="267" viewBox="0 0 534 267" fill="none" xmlns="http://www.w3.org/2000/svg">
<path d="M260.089 130.261H151.107V262.01H260.089V130.261Z" fill="#EA633A"/>
<path d="M255.154 196.816H243.148V202.458H255.154V196.816Z" fill="#D85335"/>
<path d="M163.113 178.324H151.107V183.967H163.113V178.324Z" fill="#D85335"/>
<path d="M205.265 234.953H193.26V240.596H205.265V234.953Z" fill="#D85335"/>
<path d="M228.208 256.027H216.203V261.67H228.208V256.027Z" fill="#D85335"/>
<path d="M248.484 189.813H236.479V195.456H248.484V189.813Z" fill="#D85335"/>
<path d="M260.089 130.261H151.107V161.533H260.089V130.261Z" fill="#CE4829" stroke="#CE4829" stroke-width="6" stroke-miterlimit="10" stroke-linecap="round" stroke-linejoin="round"/>
<path d="M260.089 130.261H151.107V262.01H260.089V130.261Z" stroke="#1C1A34" stroke-width="6" stroke-miterlimit="10" stroke-linecap="round" stroke-linejoin="round"/>
<path d="M282.966 154.599H126.764L166.982 45.8286H323.251L282.966 154.599Z" fill="#EC1E39"/>
<path d="M152.842 141.479H140.836V147.121H152.842V141.479Z" fill="#F22F50"/>
<path d="M159.711 134.476H147.706V140.119H159.711V134.476Z" fill="#DD1738"/>
<path d="M146.172 134.476H134.167V140.119H146.172V134.476Z" fill="#F22F50"/>
<path d="M178.52 67.9229H166.515V73.5649H178.52V67.9229Z" fill="#F22F50"/>
<path d="M171.85 60.8521H159.845V66.4946H171.85V60.8521Z" fill="#F22F50"/>
<path opacity="0.82" d="M261.357 154.599L250.085 109.935L241.614 116.937C237.946 119.928 232.61 119.248 229.809 115.441C227.141 111.77 227.875 106.604 231.41 103.817L287.702 59.9688C290.703 57.6574 294.838 57.6574 297.773 60.0368L315.714 74.4488L261.357 154.599Z" fill="#C91B38"/>
<path d="M282.966 154.599H126.764L166.982 45.8286H323.251L282.966 154.599Z" stroke="#1C1A34" stroke-width="6" stroke-miterlimit="10" stroke-linecap="round" stroke-linejoin="round"/>
<path d="M245.95 21.1509H220.338V45.8281H245.95V21.1509Z" fill="#1C1931"/>
<path d="M245.149 36.855H235.278V42.4971H245.149V36.855Z" fill="#272544"/>
<path d="M228.208 31.2124H219.004V36.855H228.208V31.2124Z" fill="#272544"/>
<path d="M245.95 21.1509H220.338V45.8281H245.95V21.1509Z" stroke="#1C1A34" stroke-width="6" stroke-miterlimit="10" stroke-linecap="round" stroke-linejoin="round"/>
<path d="M252.419 11.2939H213.936V21.1509H252.419V11.2939Z" fill="#282642"/>
<path d="M252.419 11.2939H213.936V21.1509H252.419V11.2939Z" stroke="#1C1A34" stroke-width="6" stroke-miterlimit="10" stroke-linecap="round" stroke-linejoin="round"/>
<path d="M234.945 169.623H176.252V218.569H234.945V169.623Z" fill="#71B8BC"/>
<path opacity="0.62" d="M176.252 197.427V215.375L210.334 169.623H196.928L176.252 197.427Z" fill="#D0F6FB"/>
<path opacity="0.62" d="M178.453 218.569H185.123L221.606 169.623H214.936L178.453 218.569Z" fill="#D0F6FB"/>
<path d="M234.945 169.623H176.252V218.569H234.945V169.623Z" stroke="#1C1A34" stroke-width="6" stroke-miterlimit="10" stroke-linecap="round" stroke-linejoin="round"/>
<path d="M238.28 221.289H172.917V229.446H238.28V221.289Z" fill="#D14D2F" stroke="#CE4829" stroke-width="6" stroke-miterlimit="10" stroke-linecap="round" stroke-linejoin="round"/>
<path d="M238.28 218.569H172.917V226.727H238.28V218.569Z" fill="#656B82"/>
<path d="M238.28 218.569H172.917V226.727H238.28V218.569Z" stroke="#1C1A34" stroke-width="6" stroke-miterlimit="10" stroke-linecap="round" stroke-linejoin="round"/>
<path d="M512.402 144.129C522.673 161.601 530.143 218.773 497.928 218.773C465.781 218.773 473.251 161.601 483.455 144.129C487.724 136.923 493.326 133.592 497.928 133.592C502.53 133.592 508.133 136.923 512.402 144.129Z" fill="#1FBE6A"/>
<path d="M512.402 144.129C522.673 161.601 530.143 218.773 497.928 218.773C465.781 218.773 473.251 161.601 483.455 144.129C487.724 136.923 493.326 133.592 497.928 133.592C502.53 133.592 508.133 136.923 512.402 144.129Z" stroke="#1C1A34" stroke-width="6" stroke-miterlimit="10" stroke-linecap="round" stroke-linejoin="round"/>
<path d="M481.654 124.415C491.926 144.81 499.396 211.567 467.181 211.567C434.967 211.567 442.504 144.81 452.708 124.415C456.977 115.986 462.579 112.111 467.181 112.111C471.783 112.111 477.386 115.986 481.654 124.415Z" fill="#2CDF78"/>
<path d="M481.654 124.415C491.926 144.81 499.396 211.567 467.181 211.567C434.967 211.567 442.504 144.81 452.708 124.415C456.977 115.986 462.579 112.111 467.181 112.111C471.783 112.111 477.386 115.986 481.654 124.415Z" stroke="#1C1A34" stroke-width="6" stroke-miterlimit="10" stroke-linecap="round" stroke-linejoin="round"/>
<path d="M101.886 209.528C88.0128 209.528 77.4748 194.98 77.4081 179.141C77.0079 139.236 87.0123 96.8151 103.486 53.4429C104.22 51.4715 106.621 51.5395 107.288 53.5789C121.628 97.7668 128.297 139.847 126.43 180.092C125.83 195.66 115.425 209.528 101.886 209.528Z" fill="#2BCCA0"/>
<path d="M101.886 209.528C88.0128 209.528 77.4748 194.98 77.4081 179.141C77.0079 139.236 87.0123 96.8151 103.486 53.4429C104.22 51.4715 106.621 51.5395 107.288 53.5789C121.628 97.7668 128.297 139.847 126.43 180.092C125.83 195.66 115.425 209.528 101.886 209.528Z" stroke="#1C1A34" stroke-width="6" stroke-miterlimit="10" stroke-linecap="round" stroke-linejoin="round"/>
<path d="M72.4728 93.6193C82.744 117.141 90.214 194.096 57.9997 194.096C25.7854 194.096 33.3221 117.141 43.5266 93.6193C47.7952 83.8979 53.3977 79.4111 57.9997 79.4111C62.6018 79.4111 68.2709 83.8979 72.4728 93.6193Z" fill="#21AA7F"/>
<path d="M72.4728 93.6193C82.744 117.141 90.214 194.096 57.9997 194.096C25.7854 194.096 33.3221 117.141 43.5266 93.6193C47.7952 83.8979 53.3977 79.4111 57.9997 79.4111C62.6018 79.4111 68.2709 83.8979 72.4728 93.6193Z" stroke="#1C1A34" stroke-width="6" stroke-miterlimit="10" stroke-linecap="round" stroke-linejoin="round"/>
<path d="M41.7257 124.415C51.997 144.81 59.467 211.567 27.2526 211.567C-4.96168 211.567 2.575 144.81 12.7795 124.415C17.0481 115.986 22.6506 112.111 27.2526 112.111C31.8547 112.111 37.5239 115.986 41.7257 124.415Z" fill="#2BCCA0"/>
<path d="M41.7257 124.415C51.997 144.81 59.467 211.567 27.2526 211.567C-4.96168 211.567 2.575 144.81 12.7795 124.415C17.0481 115.986 22.6506 112.111 27.2526 112.111C31.8547 112.111 37.5239 115.986 41.7257 124.415Z" stroke="#1C1A34" stroke-width="6" stroke-miterlimit="10" stroke-linecap="round" stroke-linejoin="round"/>
<path d="M420.294 262.078H260.089V87.4334L340.192 17.2085L420.294 87.4334V262.078Z" fill="#FF9839"/>
<path d="M420.494 128.834H408.489V134.476H420.494V128.834Z" fill="#ED852F"/>
<path d="M413.824 135.835H401.819V141.478H413.824V135.835Z" fill="#ED852F"/>
<path d="M407.155 128.834H395.149V134.476H407.155V128.834Z" fill="#ED852F"/>
<path d="M357.866 69.4863H345.861V75.1284H357.866V69.4863Z" fill="#ED852F"/>
<path d="M278.764 135.835H266.759V141.478H278.764V135.835Z" fill="#ED852F"/>
<path d="M405.354 231.69H393.349V237.333H405.354V231.69Z" fill="#ED852F"/>
<path d="M311.179 95.5229H299.173V101.165H311.179V95.5229Z" fill="#ED852F"/>
<path d="M272.095 128.834H260.089V134.476H272.095V128.834Z" fill="#ED852F"/>
<path d="M266.092 48.4116H254.087V54.0542H266.092V48.4116Z" fill="#DD1738"/>
<path d="M240.948 132.3H228.942V137.943H240.948V132.3Z" fill="#DD1738"/>
<path d="M345.394 188.454H333.389V194.096H345.394V188.454Z" fill="#ED852F"/>
<path d="M338.724 181.452H326.719V187.094H338.724V181.452Z" fill="#ED852F"/>
<path d="M260.089 87.4331V98.0381L339.992 29.0372L420.294 98.3101V87.4331L340.192 17.2085L260.089 87.4331Z" fill="#EA633A"/>
<path d="M420.294 262.078H260.089V87.4335L340.192 17.2085L420.294 87.4335V262.078Z" stroke="#1C1A34" stroke-width="6" stroke-miterlimit="10" stroke-linecap="round" stroke-linejoin="round"/>
<path d="M393.349 169.623H345.327V262.078H393.349V169.623Z" fill="#99393E"/>
<path d="M393.349 169.623H387.88V262.078H393.349V169.623Z" fill="#822E36"/>
<path d="M393.349 169.623H345.327V262.078H393.349V169.623Z" stroke="#1C1A34" stroke-width="6" stroke-miterlimit="10" stroke-linecap="round" stroke-linejoin="round"/>
<path d="M326.719 169.623H285.367V218.569H326.719V169.623Z" fill="#89C6CC"/>
<path opacity="0.92" d="M285.367 210.344L315.714 169.623H302.308L285.367 192.397V210.344Z" fill="#D0F6FB"/>
<path opacity="0.92" d="M326.719 170.031V169.623H320.316L285.367 216.53V218.569H290.503L326.719 170.031Z" fill="#D0F6FB"/>
<path d="M331.388 221.289H280.698V229.446H331.388V221.289Z" fill="#EA633A" stroke="#EA633A" stroke-width="6" stroke-miterlimit="10" stroke-linecap="round" stroke-linejoin="round"/>
<path d="M326.719 169.623H285.367V218.569H326.719V169.623Z" stroke="#1C1A34" stroke-width="6" stroke-miterlimit="10" stroke-linecap="round" stroke-linejoin="round"/>
<path d="M331.388 218.569H280.698V226.727H331.388V218.569Z" fill="#656B82"/>
<path d="M331.388 218.569H280.698V226.727H331.388V218.569Z" stroke="#1C1A34" stroke-width="6" stroke-miterlimit="10" stroke-linecap="round" stroke-linejoin="round"/>
<path d="M340.192 113.877C350.874 113.877 359.534 105.051 359.534 94.1631C359.534 83.2751 350.874 74.4487 340.192 74.4487C329.51 74.4487 320.85 83.2751 320.85 94.1631C320.85 105.051 329.51 113.877 340.192 113.877Z" fill="#98AAB5"/>
<path d="M340.192 74.4487C338.324 74.4487 336.523 74.7206 334.856 75.1965C342.926 77.5758 348.862 85.1217 348.862 94.1631C348.862 103.137 342.926 110.75 334.856 113.13C336.523 113.606 338.324 113.877 340.192 113.877C350.863 113.877 359.534 105.04 359.534 94.1631C359.534 83.2182 350.863 74.4487 340.192 74.4487Z" fill="#7B929E"/>
<path d="M340.192 113.877C350.874 113.877 359.534 105.051 359.534 94.1631C359.534 83.2751 350.874 74.4487 340.192 74.4487C329.51 74.4487 320.85 83.2751 320.85 94.1631C320.85 105.051 329.51 113.877 340.192 113.877Z" stroke="#1C1A34" stroke-width="6" stroke-miterlimit="10" stroke-linecap="round" stroke-linejoin="round"/>
<path d="M401.352 262.078H337.324V256.64C337.324 251.405 341.526 247.122 346.661 247.122H392.015C397.15 247.122 401.352 251.405 401.352 256.64V262.078Z" fill="#6E818E"/>
<path d="M401.352 255.687H337.324V262.01H401.352V255.687Z" fill="#5C6F7A"/>
<path d="M401.352 262.078H337.324V256.64C337.324 251.405 341.526 247.122 346.661 247.122H392.015C397.15 247.122 401.352 251.405 401.352 256.64V262.078Z" stroke="#1C1A34" stroke-width="6" stroke-miterlimit="10" stroke-linecap="round" stroke-linejoin="round"/>
<path d="M4.04248 262.078H529.209" stroke="#1C1A34" stroke-width="8" stroke-miterlimit="10" stroke-linecap="round" stroke-linejoin="round"/>
<path d="M442.771 100.146C440.503 102.933 436.368 103.341 433.633 100.961L339.992 20.1313L246.35 100.961C243.615 103.341 239.547 102.933 237.213 100.146C234.945 97.3584 235.278 93.2795 238.013 90.9681L330.054 11.6336L340.058 3L349.996 11.6336L442.037 90.9681C444.705 93.2115 445.038 97.3584 442.771 100.146Z" fill="#FF4B53"/>
<path d="M277.097 71.5933H267.493V77.2358H277.097V71.5933Z" fill="#EA3F54"/>
<path d="M347.795 11.9736H338.924V17.6157H347.795V11.9736Z" fill="#EA3F54"/>
<path d="M442.771 100.146C440.503 102.933 436.368 103.341 433.633 100.961L339.992 20.1313L246.35 100.961C243.615 103.341 239.547 102.933 237.213 100.146C234.945 97.3584 235.278 93.2795 238.013 90.9681L330.054 11.6336L340.058 3L349.996 11.6336L442.037 90.9681C444.705 93.2115 445.038 97.3584 442.771 100.146Z" stroke="#1C1A34" stroke-width="6" stroke-miterlimit="10" stroke-linecap="round" stroke-linejoin="round"/>
<path d="M467.515 262.078V158.338" stroke="#1C1A34" stroke-width="6" stroke-miterlimit="10" stroke-linecap="round" stroke-linejoin="round"/>
<path d="M498.329 262.078V158.338" stroke="#1C1A34" stroke-width="6" stroke-miterlimit="10" stroke-linecap="round" stroke-linejoin="round"/>
<path d="M340.192 113.877V74.4487" stroke="#1C1A34" stroke-width="6" stroke-miterlimit="10" stroke-linecap="round" stroke-linejoin="round"/>
<path d="M320.85 94.1631H359.534" stroke="#1C1A34" stroke-width="6" stroke-miterlimit="10" stroke-linecap="round" stroke-linejoin="round"/>
<path d="M164.58 215.85H39.1914V218.569H164.58V215.85Z" stroke="#1C1A34" stroke-width="6" stroke-miterlimit="10" stroke-linecap="round" stroke-linejoin="round"/>
<path d="M164.58 235.089H39.1914V237.808H164.58V235.089Z" stroke="#1C1A34" stroke-width="6" stroke-miterlimit="10" stroke-linecap="round" stroke-linejoin="round"/>
<path d="M58.3999 262.078V122.443" stroke="#1C1A34" stroke-width="6" stroke-miterlimit="10" stroke-linecap="round" stroke-linejoin="round"/>
<path d="M27.6528 262.078V158.338" stroke="#1C1A34" stroke-width="6" stroke-miterlimit="10" stroke-linecap="round" stroke-linejoin="round"/>
<path d="M103.486 262.078V132.777" stroke="#1C1A34" stroke-width="6" stroke-miterlimit="10" stroke-linecap="round" stroke-linejoin="round"/>
<path d="M156.31 262.078H146.972V202.934L151.641 194.504L156.31 202.934V262.078Z" fill="#663333"/>
<path d="M156.31 262.078H146.972V202.934L151.641 194.504L156.31 202.934V262.078Z" stroke="#1C1A34" stroke-width="6" stroke-miterlimit="10" stroke-linecap="round" stroke-linejoin="round"/>
<path d="M131.499 262.078H122.161V202.934L126.83 194.504L131.499 202.934V262.078Z" fill="#663333"/>
<path d="M131.499 262.078H122.161V202.934L126.83 194.504L131.499 202.934V262.078Z" stroke="#1C1A34" stroke-width="6" stroke-miterlimit="10" stroke-linecap="round" stroke-linejoin="round"/>
<path d="M106.754 262.078H97.417V202.934L102.086 194.504L106.754 202.934V262.078Z" fill="#663333"/>
<path d="M106.754 262.078H97.417V202.934L102.086 194.504L106.754 202.934V262.078Z" stroke="#1C1A34" stroke-width="6" stroke-miterlimit="10" stroke-linecap="round" stroke-linejoin="round"/>
<path d="M82.0103 262.078H72.6729V202.934L77.3416 194.504L82.0103 202.934V262.078Z" fill="#663333"/>
<path d="M82.0103 262.078H72.6729V202.934L77.3416 194.504L82.0103 202.934V262.078Z" stroke="#1C1A34" stroke-width="6" stroke-miterlimit="10" stroke-linecap="round" stroke-linejoin="round"/>
<path d="M57.2657 262.078H47.9282V202.934L52.597 194.504L57.2657 202.934V262.078Z" fill="#663333"/>
<path d="M57.2657 262.078H47.9282V202.934L52.597 194.504L57.2657 202.934V262.078Z" stroke="#1C1A34" stroke-width="6" stroke-miterlimit="10" stroke-linecap="round" stroke-linejoin="round"/>
<path d="M353.131 216.394V231.69" stroke="#1C1A34" stroke-width="6" stroke-miterlimit="10" stroke-linecap="round" stroke-linejoin="round"/>
<path d="M498.929 177.169L504.331 171.187" stroke="#1C1A34" stroke-width="6" stroke-miterlimit="10" stroke-linecap="round" stroke-linejoin="round"/>
<path d="M498.329 197.496L506.732 191.784" stroke="#1C1A34" stroke-width="6" stroke-miterlimit="10" stroke-linecap="round" stroke-linejoin="round"/>
<path d="M497.928 187.298L492.326 182.947" stroke="#1C1A34" stroke-width="6" stroke-miterlimit="10" stroke-linecap="round" stroke-linejoin="round"/>
<path d="M467.515 171.187L474.718 165.748" stroke="#1C1A34" stroke-width="6" stroke-miterlimit="10" stroke-linecap="round" stroke-linejoin="round"/>
<path d="M467.515 190.901L478.72 182.947" stroke="#1C1A34" stroke-width="6" stroke-miterlimit="10" stroke-linecap="round" stroke-linejoin="round"/>
<path d="M467.181 179.82L459.645 172.546" stroke="#1C1A34" stroke-width="6" stroke-miterlimit="10" stroke-linecap="round" stroke-linejoin="round"/>
<path d="M113.357 166.767L103.486 178.324" stroke="#1C1A34" stroke-width="6" stroke-miterlimit="10" stroke-linecap="round" stroke-linejoin="round"/>
<path d="M110.023 139.643L103.486 149.432" stroke="#1C1A34" stroke-width="6" stroke-miterlimit="10" stroke-linecap="round" stroke-linejoin="round"/>
<path d="M103.487 164.729L94.6826 158.338" stroke="#1C1A34" stroke-width="6" stroke-miterlimit="10" stroke-linecap="round" stroke-linejoin="round"/>
<path d="M382.01 185.123H356.732V210.208H382.01V185.123Z" fill="#89C6CC"/>
<path opacity="0.92" d="M356.732 204.293L371.005 185.123H357.666L356.732 186.347V204.293Z" fill="#D0F6FB"/>
<path opacity="0.92" d="M374.807 185.123L356.732 209.392V210.208H359.467L378.142 185.123H374.807Z" fill="#D0F6FB"/>
<path d="M382.01 185.123H356.732V210.208H382.01V185.123Z" stroke="#1C1A34" stroke-width="6" stroke-miterlimit="10" stroke-linecap="round" stroke-linejoin="round"/>
<path d="M66.6702 134.476L58.3999 142.974" stroke="#1C1A34" stroke-width="6" stroke-miterlimit="10" stroke-linecap="round" stroke-linejoin="round"/>
<path d="M58.3999 164.729L69.0046 154.599" stroke="#1C1A34" stroke-width="6" stroke-miterlimit="10" stroke-linecap="round" stroke-linejoin="round"/>
<path d="M58.4 151.812L50.5298 144.538" stroke="#1C1A34" stroke-width="6" stroke-miterlimit="10" stroke-linecap="round" stroke-linejoin="round"/>
<path d="M27.6528 185.463L34.7893 176.965" stroke="#1C1A34" stroke-width="6" stroke-miterlimit="10" stroke-linecap="round" stroke-linejoin="round"/>
<path d="M27.319 172.546L20.6494 166.767" stroke="#1C1A34" stroke-width="6" stroke-miterlimit="10" stroke-linecap="round" stroke-linejoin="round"/>
</svg>
