<svg width="560" height="485" viewBox="0 0 585 508" fill="none" xmlns="http://www.w3.org/2000/svg">
<path opacity="0.34" d="M527.093 507.046H69.7123C63.8769 507.046 59.1494 501.803 59.1494 495.331C59.1494 488.859 63.8769 483.616 69.7123 483.616H527.093C532.929 483.616 537.656 488.859 537.656 495.331C537.656 501.803 532.929 507.046 527.093 507.046Z" fill="black"/>
<path id="back" d="M559.545 350.882H463.307C453.522 350.882 445.572 342.08 445.572 331.246C445.572 320.412 453.522 311.61 463.307 311.61H517.044C528.663 311.61 538.065 301.199 538.065 288.334C538.065 275.469 528.663 265.058 517.044 265.058H469.269C456.198 265.058 445.572 253.294 445.572 238.82C445.572 224.347 456.198 212.582 469.269 212.582H522.395C534.014 212.582 543.493 202.087 543.493 189.222C543.493 176.357 534.014 165.862 522.395 165.862H445.649H427.303C415.684 165.862 406.205 155.367 406.205 142.502C406.205 129.637 415.684 119.141 427.303 119.141H448.095C459.714 119.141 469.192 108.646 469.192 95.7811C469.192 82.916 459.714 72.4208 448.095 72.4208H436.247H434.259H308.667H304.387H173.214H143.173C131.554 72.4208 122.076 82.916 122.076 95.7811C122.076 108.646 131.554 119.141 143.173 119.141H152.117C163.736 119.141 173.214 129.637 173.214 142.502C173.214 155.367 163.736 165.862 152.117 165.862H71.6249C62.6813 165.862 55.4194 173.903 55.4194 183.805C55.4194 193.708 62.6813 201.749 71.6249 201.749H156.397C165.723 201.749 173.291 210.128 173.291 220.454C173.291 230.78 165.723 239.159 156.397 239.159H21.0976C9.47864 239.159 0 249.654 0 262.519C0 275.384 9.47864 285.88 21.0976 285.88H152.117C163.736 285.88 173.214 296.375 173.214 309.24C173.214 322.105 163.736 332.6 152.117 332.6H73.0008C54.3493 332.6 39.214 349.359 39.214 370.01C39.214 390.662 54.3493 407.421 73.0008 407.421H173.214H217.703H242.699H445.649H559.545C573.61 407.421 585 394.81 585 379.236C585 363.493 573.61 350.882 559.545 350.882Z" fill="#9BE9E9"/>
<path d="M388.156 495.35H401.452V273.499H388.156V495.35Z" fill="#2F262D"/>
<path d="M337.552 318.21C335.41 312.885 337.552 306.577 342.427 304.119C343.683 303.546 345.012 303.218 346.342 303.218C350.109 303.218 353.581 305.676 355.132 309.526L402.407 427.661L384.827 436.345L337.552 318.21Z" fill="#FC9F6F"/>
<path d="M258.519 495.35H271.814V273.499H258.519V495.35Z" fill="#2F262D"/>
<path d="M320.045 287.98C274.322 287.98 237.315 249.312 237.315 201.714C237.315 189.425 239.826 177.71 244.258 167.059C215.155 180.413 194.842 210.807 194.842 246.035C194.842 293.715 231.849 332.301 277.572 332.301C311.477 332.301 340.58 311.083 353.359 280.689C343.092 285.358 331.864 287.98 320.045 287.98Z" fill="#F2F2F2"/>
<path d="M274.248 311.328C299.256 311.328 319.529 290.678 319.529 265.205C319.529 239.732 299.256 219.082 274.248 219.082C249.241 219.082 228.968 239.732 228.968 265.205C228.968 290.678 249.241 311.328 274.248 311.328Z" fill="#3B323A"/>
<path d="M192.7 273.479H91.4289C87.5879 273.479 84.4116 269.957 84.4116 265.697V258.323C84.4116 254.063 87.5879 250.541 91.4289 250.541H192.7C196.541 250.541 199.717 254.063 199.717 258.323V265.697C199.717 269.957 196.541 273.479 192.7 273.479Z" fill="#AFAFAF"/>
<path d="M313.472 230.059C299.289 230.059 287.766 217.279 287.766 201.55V173.04C287.766 162.144 279.862 153.378 270.038 153.378V201.55C270.038 228.175 289.465 249.721 313.472 249.721H349.444V230.059H313.472Z" fill="#EF9067"/>
<path d="M319.307 79.5644C316.648 116.84 287.101 158.13 259.475 152.887C233.031 147.889 214.86 101.602 223.798 69.1599C229.338 49.1704 244.554 36.6359 256.816 26.5592C269.521 16.0729 278.09 9.02735 287.84 10.7478C307.193 14.0247 321.449 49.9077 319.307 79.5644Z" fill="#603936"/>
<path d="M282.004 185.657C281.487 185.001 277.351 179.676 276.612 178.939C274.692 170.173 270.777 160.506 271.589 149.2C266.049 144.694 256.89 138.96 246.475 139.779C243.372 140.025 240.122 140.844 238.497 141.254C229.485 143.547 223.797 147.234 221.951 148.463C219.439 150.183 218.184 151.003 216.706 152.641C212.717 157.229 211.757 162.8 211.24 166.077C206.808 194.586 210.28 221.949 210.723 224.325C211.536 228.667 212.644 232.517 212.644 232.517C214.49 238.989 216.706 243.004 217.297 244.806C220.252 253.654 226.974 272.251 234.065 286.423C239.236 287.325 250.98 293.059 258.736 290.11C270.555 285.604 294.931 275.527 303.647 273.479C292.789 259.962 282.817 244.888 280.232 226.537C279.567 221.785 278.976 217.115 278.533 212.528C279.567 211.954 285.845 208.431 287.101 201.386C288.431 193.767 283.038 186.967 282.004 185.657Z" fill="#F05364"/>
<path d="M255.329 168.364C261.774 166.371 265.301 158.007 263.208 149.683C261.115 141.36 254.195 136.228 247.75 138.221C241.306 140.214 237.779 148.577 239.872 156.901C241.964 165.225 248.885 170.357 255.329 168.364Z" fill="#EF9067"/>
<path d="M249.651 134.7C253.714 145.35 260.435 149.036 264.72 151.822C273.067 157.229 288.726 156.737 288.726 156.737C289.243 152.969 289.76 149.692 292.42 143.466C296.261 134.208 299.806 131.996 304.755 123.64C312.142 111.023 315.835 95.7854 313.472 94.3108C311.773 93.1639 307.119 99.0624 304.09 102.503C295.448 112.334 276.095 126.917 249.651 134.7Z" fill="#603936"/>
<path d="M249.355 158.13H246.253C239.457 158.13 233.991 152.068 233.991 144.531V92.8361H258.515V147.89C258.515 153.542 254.378 158.13 249.355 158.13Z" fill="#EF9067"/>
<path d="M111.287 495.35H124.583L124.583 273.499H111.287L111.287 495.35Z" fill="#2F262D"/>
<path d="M193.064 495.35H206.36L206.36 273.499H193.064L193.064 495.35Z" fill="#494149"/>
<path d="M468.185 495.35H481.481V273.499H468.185V495.35Z" fill="#494149"/>
<path opacity="0.71" d="M233.991 98.3251C235.616 113.973 245.367 126.917 258.515 131.832V89.723H233.991V98.3251Z" fill="#D36B46"/>
<path d="M270.038 129.784C252.015 129.784 237.463 113.645 237.463 93.6552V49.5797C237.463 47.6955 238.792 46.2208 240.491 46.2208H286.806C295.522 46.2208 302.613 54.0856 302.613 63.7527V93.6552C302.613 113.645 288.061 129.784 270.038 129.784Z" fill="#FC9F6F"/>
<path d="M302.613 88.4942C302.243 89.4773 301.357 90.1327 300.397 90.1327H286.067C284.737 90.1327 283.629 88.9038 283.629 87.4292V78.4994C283.629 77.0247 284.737 75.7959 286.067 75.7959H300.397C301.357 75.7959 302.243 76.4513 302.613 77.4344V73.9935C301.948 73.5839 301.209 73.3381 300.397 73.3381H286.067C283.481 73.3381 281.413 75.632 281.413 78.4994V87.4292C281.413 90.2966 283.481 92.5905 286.067 92.5905H300.397C301.209 92.5905 301.948 92.3447 302.613 91.9351V88.4942Z" fill="#DD9883"/>
<path d="M273.805 91.2795H259.475C257.48 91.2795 255.929 89.4772 255.929 87.3472V78.4174C255.929 76.2054 257.554 74.485 259.475 74.485H273.805C275.799 74.485 277.351 76.2873 277.351 78.4174V87.3472C277.351 89.5591 275.725 91.2795 273.805 91.2795Z" stroke="#DD9883" stroke-width="3" stroke-miterlimit="10" stroke-linecap="round" stroke-linejoin="round"/>
<path opacity="0.6" d="M257.702 100.537V56.4617C257.702 54.5774 259.032 53.1028 260.731 53.1028L287.471 42.6984C284.59 38.5203 291.903 46.3031 286.806 46.3031H240.491C238.792 46.3031 237.463 47.7777 237.463 49.662V93.7372C237.463 113.727 252.015 129.866 270.038 129.866C270.407 129.866 270.777 129.866 271.22 129.866C263.021 123.23 257.702 112.58 257.702 100.537Z" fill="#EF9067"/>
<path d="M300.397 89.6409H286.067C284.073 89.6409 282.521 87.8386 282.521 85.7086V76.7789C282.521 74.567 284.147 72.8466 286.067 72.8466H300.397C302.392 72.8466 303.943 74.6489 303.943 76.7789V85.7086C303.943 87.9205 302.318 89.6409 300.397 89.6409Z" stroke="#F6CDF7" stroke-width="3" stroke-miterlimit="10" stroke-linecap="round" stroke-linejoin="round"/>
<path d="M278.533 111.597C274.396 111.597 271.072 107.91 271.072 103.404V99.5538H285.846V103.404C285.846 107.91 282.595 111.597 278.533 111.597Z" fill="#FCFAFA"/>
<path d="M265.163 80.2198H271.811" stroke="#161515" stroke-width="3" stroke-miterlimit="10" stroke-linecap="round" stroke-linejoin="round"/>
<path d="M290.277 80.2198H296.925" stroke="#161515" stroke-width="3" stroke-miterlimit="10" stroke-linecap="round" stroke-linejoin="round"/>
<path d="M273.805 89.6409H259.475C257.48 89.6409 255.929 87.8386 255.929 85.7086V76.7789C255.929 74.567 257.554 72.8466 259.475 72.8466H273.805C275.799 72.8466 277.351 74.6489 277.351 76.7789V85.7086C277.351 87.9205 275.725 89.6409 273.805 89.6409Z" stroke="#F6CDF7" stroke-width="3" stroke-miterlimit="10" stroke-linecap="round" stroke-linejoin="round"/>
<path d="M283.703 13.0418C274.766 0.261586 259.549 0.507362 256.742 0.179664C254.231 -0.393806 240.418 0.343515 230.298 3.29279C206.956 10.1744 190.706 33.6048 190.706 60.476V94.8842C190.706 117.987 206.07 146.005 225.792 153.296C236.724 157.392 248.838 160.506 251.719 160.014C237.094 129.948 239.088 112.17 243.225 101.766C253.123 76.3693 282.152 77.2705 289.317 49.0066C289.465 48.1873 293.971 27.7882 283.703 13.0418Z" fill="#754743"/>
<path d="M374.854 249.476C375.593 247.346 375.962 245.052 375.962 242.676C375.962 231.78 368.059 223.014 358.234 223.014C348.41 223.014 340.506 231.78 340.506 242.676C340.506 245.052 340.876 247.346 341.614 249.476H374.854Z" fill="#EF9067"/>
<path d="M317.977 250.541C316.5 243.004 308.301 237.269 298.329 237.269C288.431 237.269 280.158 243.004 278.68 250.541H317.977Z" fill="#F4EFF0"/>
<path d="M220.695 193.193C226.651 193.193 231.48 184.794 231.48 174.433C231.48 164.071 226.651 155.672 220.695 155.672C214.739 155.672 209.911 164.071 209.911 174.433C209.911 184.794 214.739 193.193 220.695 193.193Z" fill="#EF9067"/>
<path d="M253.344 230.715C239.162 230.715 227.639 217.935 227.639 202.205V167.387C227.639 161.98 223.65 157.557 218.775 157.557C213.899 157.557 209.911 161.98 209.911 167.387V202.205C209.911 228.831 229.337 250.377 253.344 250.377H289.317V230.715H271.294H253.344Z" fill="#FC9F6F"/>
<path d="M402.702 250.541H319.972C318.938 250.541 318.051 249.558 318.051 248.411C318.051 247.264 318.938 246.281 319.972 246.281H402.776C403.81 246.281 404.697 247.264 404.697 248.411C404.697 249.558 403.81 250.541 402.702 250.541Z" fill="white"/>
<path d="M402.702 248.411H319.972C319.233 248.411 318.642 248.001 318.273 247.346C318.125 247.673 317.978 248.001 317.978 248.411C317.978 249.558 318.864 250.541 319.898 250.541H402.702C403.736 250.541 404.623 249.558 404.623 248.411C404.623 248.001 404.549 247.673 404.327 247.346C404.032 247.919 403.441 248.411 402.702 248.411Z" fill="#F4EFF0"/>
<path d="M336.001 250.541H319.972C318.938 250.541 318.051 249.558 318.051 248.411C318.051 247.264 318.938 246.281 319.972 246.281H336.001C337.035 246.281 337.921 247.264 337.921 248.411C337.921 249.558 337.109 250.541 336.001 250.541Z" fill="#F4EFF0"/>
<path d="M396.867 246.281H390.81V244.724C390.81 243.905 391.401 243.168 392.214 243.168H395.464C396.202 243.168 396.867 243.823 396.867 244.724V246.281Z" fill="#F4EFF0"/>
<path d="M389.48 246.281H383.423V244.724C383.423 243.905 384.014 243.168 384.827 243.168H388.077C388.816 243.168 389.48 243.823 389.48 244.724V246.281Z" fill="#F4EFF0"/>
<path d="M382.094 246.281H376.037V244.724C376.037 243.905 376.628 243.168 377.44 243.168H380.69C381.429 243.168 382.094 243.823 382.094 244.724V246.281Z" fill="#F4EFF0"/>
<path d="M374.707 246.281H368.65V244.724C368.65 243.905 369.241 243.168 370.053 243.168H373.303C374.042 243.168 374.707 243.823 374.707 244.724V246.281Z" fill="#F4EFF0"/>
<path d="M367.32 246.281H361.263V244.724C361.263 243.905 361.854 243.168 362.667 243.168H365.917C366.655 243.168 367.32 243.823 367.32 244.724V246.281Z" fill="#F4EFF0"/>
<path d="M359.933 246.281H353.876V244.724C353.876 243.905 354.467 243.168 355.28 243.168H358.53C359.269 243.168 359.933 243.823 359.933 244.724V246.281Z" fill="#F4EFF0"/>
<path d="M352.547 246.281H346.49V244.724C346.49 243.905 347.081 243.168 347.894 243.168H351.144C351.882 243.168 352.547 243.823 352.547 244.724V246.281Z" fill="#F4EFF0"/>
<path d="M345.161 246.281H339.104V244.724C339.104 243.905 339.694 243.168 340.507 243.168H343.757C344.496 243.168 345.161 243.823 345.161 244.724V246.281Z" fill="#F4EFF0"/>
<path d="M337.774 246.281H331.717V244.724C331.717 243.905 332.308 243.168 333.12 243.168H336.37C337.109 243.168 337.774 243.823 337.774 244.724V246.281Z" fill="#F4EFF0"/>
<path d="M330.387 246.281H324.33V244.724C324.33 243.905 324.921 243.168 325.734 243.168H328.984C329.722 243.168 330.387 243.823 330.387 244.724V246.281Z" fill="#F4EFF0"/>
<path d="M319.972 250.541H336.001C337.035 250.541 337.921 249.558 337.921 248.411H317.978C317.978 249.558 318.864 250.541 319.972 250.541Z" fill="#E2E2E2"/>
<path d="M327.137 317.063H268.708L268.265 282.655H340.654C345.529 282.655 349.444 286.997 349.444 292.404C349.37 306.086 339.398 317.063 327.137 317.063Z" fill="#352934"/>
<path d="M280.158 441.834L315.983 307.478C317.165 302.972 320.932 299.859 325.216 299.859C326.103 299.859 327.063 300.023 327.949 300.269C333.046 301.907 335.927 307.888 334.45 313.541L298.624 447.896L280.158 441.834Z" fill="#EF9067"/>
<path d="M309.926 430.856L280.158 421.107L317.682 280.443C320.119 271.349 328.762 266.106 336.961 268.81C345.16 271.513 349.888 281.098 347.45 290.192L309.926 430.856Z" fill="#352934"/>
<path d="M457.806 210.725H333.711C331.273 210.725 329.279 208.513 329.279 205.81L344.643 107.501C344.643 104.797 346.637 102.585 349.075 102.585H473.171C475.608 102.585 477.603 104.797 477.603 107.501L462.238 205.81C462.238 208.513 460.318 210.725 457.806 210.725Z" fill="#CECECE"/>
<path d="M465.193 210.725H341.098C338.66 210.725 336.666 208.513 336.666 205.81L352.03 107.501C352.03 104.797 354.024 102.585 356.462 102.585H480.557C482.995 102.585 484.989 104.797 484.989 107.501L469.625 205.81C469.625 208.513 467.705 210.725 465.193 210.725Z" fill="#F4EFF0"/>
<path d="M427.299 245.216L417.106 187.95H398.935C396.719 187.95 395.02 190.244 395.463 192.62L404.475 243.168C404.844 245.052 403.514 246.772 401.816 246.772H390.736C388.741 246.772 387.19 248.575 387.19 250.705H405.804H423.089C425.822 250.787 427.817 248.083 427.299 245.216Z" fill="#CECECE"/>
<path d="M428.26 250.786H409.424L398.492 189.343C398.344 188.606 398.861 188.032 399.526 188.032H420.726L431.215 246.936C431.51 248.902 430.107 250.786 428.26 250.786Z" fill="#F4EFF0"/>
<path d="M405.878 250.786H409.424L408.464 245.215H404.844L405.878 250.786Z" fill="#F4EFF0"/>
<path d="M405.879 250.786C407.725 250.786 409.129 248.902 408.759 246.854L408.464 245.215H404.475L405.879 250.786Z" fill="#CECECE"/>
<path d="M422.129 158.621C418.14 158.621 414.89 155.017 414.89 150.593C414.89 149.118 415.259 147.807 415.85 146.66C414.816 146.333 413.708 146.087 412.526 146.087C406.248 146.087 401.225 151.74 401.225 158.621C401.225 165.503 406.321 171.156 412.526 171.156C418.805 171.156 423.828 165.503 423.828 158.621C423.828 158.54 423.828 158.458 423.828 158.376C423.237 158.54 422.72 158.621 422.129 158.621Z" fill="#CECECE"/>
<path d="M336.222 298.302L275.356 316.08C258.81 320.914 242.043 307.888 233.991 286.341L328.319 264.959C336.592 262.583 345.086 268.072 347.229 277.248C349.444 286.505 344.495 295.927 336.222 298.302Z" fill="#3B323A"/>
<path d="M397.458 400.708L369.093 414.717L319.381 290.683C315.909 281.999 319.455 271.841 327.284 267.99C335.114 264.14 344.274 268.072 347.745 276.756L397.458 400.708Z" fill="#3B323A"/>
<path d="M186.569 273.479H502.865C506.706 273.479 509.883 269.957 509.883 265.697V258.323C509.883 254.063 506.706 250.541 502.865 250.541H186.569C182.728 250.541 179.552 254.063 179.552 258.323V265.697C179.552 269.957 182.654 273.479 186.569 273.479Z" fill="#F2F2F2"/>
<path d="M443.698 440.605L380.838 453.304C378.4 453.795 376.11 452.075 375.593 449.535L375.15 447.323C373.894 440.933 377.587 434.461 383.644 432.741L429.442 419.878C438.306 417.421 447.243 421.927 448.869 430.201L449.459 433.15C450.124 436.509 447.539 439.868 443.698 440.605Z" fill="#535452"/>
<path d="M446.136 434.297L375.888 448.47C375.741 448.47 375.593 448.552 375.445 448.552L375.667 449.535C376.184 452.157 378.474 453.795 380.911 453.304L443.772 440.605C447.613 439.868 450.272 436.509 449.607 433.15L449.533 432.904C448.499 433.559 447.391 434.051 446.136 434.297Z" fill="#FFFDFD"/>
<path d="M313.914 484.435L261.395 444.128C259.401 442.572 258.81 439.54 260.14 437.328L261.248 435.362C264.424 429.873 271.22 428.153 276.538 431.758L317.091 458.629C324.994 463.872 328.392 474.112 324.256 481.158L322.778 483.698C321.153 486.565 317.091 486.893 313.914 484.435Z" fill="#424441"/>
<path d="M319.676 481.895L260.952 436.837C260.805 436.755 260.731 436.591 260.583 436.509L260.14 437.328C258.884 439.54 259.401 442.571 261.396 444.128L313.915 484.435C317.091 486.893 321.154 486.565 322.779 483.698L322.926 483.452C321.818 483.206 320.71 482.633 319.676 481.895Z" fill="#CECECE"/>
<path d="M168.471 250.541H156.505C150.448 250.541 145.499 245.052 145.499 238.334V202.205H179.478V238.334C179.551 245.052 174.602 250.541 168.471 250.541Z" fill="#FF6161"/>
<path d="M149.34 207.121C141.437 207.121 135.084 214.248 135.084 222.932C135.084 231.616 141.51 238.744 149.34 238.744C157.17 238.744 163.596 231.616 163.596 222.932C163.596 214.248 157.17 207.121 149.34 207.121ZM149.34 235.303C143.209 235.303 138.186 229.732 138.186 222.932C138.186 216.133 143.209 210.562 149.34 210.562C155.471 210.562 160.494 216.133 160.494 222.932C160.42 229.814 155.471 235.303 149.34 235.303Z" fill="#F4A36C"/>
<path d="M168.471 250.541H156.505C150.448 250.541 145.499 245.052 145.499 238.334V202.205H179.478V238.334C179.551 245.052 174.602 250.541 168.471 250.541Z" fill="#F7BC8B"/>
<path d="M161.602 239.071C158.204 239.071 155.471 236.04 155.471 232.272V202.205H145.499V238.334C145.499 245.052 150.448 250.541 156.505 250.541H168.472C174.307 250.541 179.108 245.462 179.478 239.071H161.602Z" fill="#EFA573"/>
<path d="M302.465 250.541C303.204 248.411 303.573 246.117 303.573 243.741C303.573 232.845 295.669 224.079 285.845 224.079C276.021 224.079 268.117 232.845 268.117 243.741C268.117 246.117 268.487 248.411 269.225 250.541H302.465Z" fill="#FC9F6F"/>
<path id="back_small" d="M84.3872 118.643C95.6467 118.643 104.774 108.52 104.774 96.032C104.774 83.5442 95.6467 73.4208 84.3872 73.4208C73.1277 73.4208 64 83.5442 64 96.032C64 108.52 73.1277 118.643 84.3872 118.643Z" fill="#9BE9E9"/>
</svg>
