<svg width="70" height="70" viewBox="0 0 70 70" fill="none" xmlns="http://www.w3.org/2000/svg">
<path d="M29.3719 59.8003C29.3719 59.3726 29.2777 58.9501 29.0962 58.5628C28.9146 58.1754 28.6501 57.8328 28.3214 57.5591C27.9927 57.2854 27.6078 57.0874 27.194 56.979C26.7802 56.8706 26.3476 56.8546 25.9269 56.9321C22.1088 57.6328 17.288 57.7381 16.0063 54.1379C14.8886 51.3496 13.0373 48.9157 10.6486 47.0941C10.4782 47.0014 10.3157 46.8947 10.163 46.7751C9.95392 46.2237 9.58259 45.7485 9.09799 45.4124C8.61339 45.0763 8.03827 44.895 7.44852 44.8924H7.43429C6.66312 44.8921 5.92324 45.1974 5.37661 45.7413C4.82998 46.2853 4.52111 47.0237 4.51762 47.7948C4.50621 50.1732 6.88304 51.697 7.84729 52.2126C8.98433 53.355 9.89815 54.6996 10.5418 56.1774C11.6042 59.1624 14.6918 63.6912 23.5671 63.1074C23.57 63.2099 23.5728 63.3068 23.5742 63.3951L23.587 64.1755C23.587 64.949 23.8943 65.6909 24.4413 66.2379C24.9883 66.7849 25.7301 67.0922 26.5037 67.0922C27.2772 67.0922 28.0191 66.7849 28.5661 66.2379C29.1131 65.6909 29.4204 64.949 29.4204 64.1755L29.4061 63.2469C29.3919 62.6942 29.3719 61.8938 29.3719 59.8003ZM60.484 15.6828C60.5766 15.3182 60.6678 14.9138 60.7475 14.458C61.2192 11.2077 60.808 7.89027 59.5569 4.85347C59.399 4.45757 59.1565 4.10099 58.8463 3.80873C58.536 3.51646 58.1656 3.29559 57.761 3.1616C56.7227 2.81125 52.889 2.12195 45.5575 6.80743C39.4632 5.37329 33.1192 5.37329 27.025 6.80743C19.7233 2.19058 15.9094 2.81708 14.8812 3.14748C14.4666 3.27605 14.0861 3.49575 13.7674 3.79048C13.4488 4.08522 13.2002 4.44751 13.0397 4.85081C11.7631 7.94592 11.3564 11.331 11.8634 14.6404C11.9346 15.0136 12.0115 15.3582 12.0913 15.6744C9.67502 18.8927 8.38801 22.8183 8.42977 26.8426C8.4219 27.7404 8.46326 28.638 8.55367 29.5314C9.52784 42.9554 18.2778 46.9858 24.3746 48.3701C24.2478 48.7347 24.1325 49.1249 24.0299 49.5379C23.8472 50.2884 23.9695 51.0807 24.37 51.7411C24.7706 52.4015 25.4166 52.8761 26.1666 53.0608C26.9166 53.2456 27.7092 53.1254 28.3707 52.7266C29.0321 52.3279 29.5085 51.683 29.6952 50.9336C29.8808 49.9618 30.3565 49.069 31.0596 48.3729C31.4847 48.0007 31.7925 47.513 31.9455 46.9691C32.0986 46.4252 32.0902 45.8486 31.9215 45.3093C31.7528 44.77 31.4311 44.2914 30.9954 43.9317C30.5597 43.5719 30.0288 43.3466 29.4674 43.283C19.3929 42.1323 15.0193 38.0279 14.3614 28.9959C14.2885 28.2805 14.2557 27.5616 14.2631 26.8426C14.2163 23.9745 15.1639 21.1787 16.9448 18.93C17.1237 18.6956 17.3143 18.4703 17.5159 18.2549C17.873 17.8554 18.113 17.3651 18.2098 16.838C18.3065 16.311 18.2561 15.7674 18.0642 15.2671C17.8674 14.7407 17.7159 14.1985 17.6113 13.6464C17.3737 12.0764 17.4516 10.4748 17.8406 8.93526C20.3755 9.65122 22.7613 10.8166 24.8843 12.376C25.2354 12.6098 25.6327 12.7654 26.0492 12.8323C26.4657 12.8991 26.8917 12.8756 27.2983 12.7634C33.1932 11.1636 39.408 11.1646 45.3024 12.7663C45.7112 12.8784 46.1395 12.9006 46.5577 12.8312C46.9759 12.7619 47.3741 12.6027 47.7249 12.3647C49.838 10.7989 52.2137 9.62303 54.7403 8.89261C55.1275 10.3951 55.2141 11.9594 54.9952 13.4955C54.8896 14.1008 54.7245 14.6942 54.5024 15.2671C54.3105 15.7675 54.2601 16.311 54.3569 16.8381C54.4536 17.3652 54.6937 17.8554 55.0508 18.255C55.2758 18.5085 55.5008 18.7819 55.703 19.0383C57.4713 21.2489 58.4029 24.0126 58.3335 26.8426C58.3388 27.5998 58.3022 28.3567 58.2239 29.1098C57.5816 38.0221 53.1909 42.1294 43.0694 43.283C42.5079 43.3469 41.977 43.5727 41.5413 43.9328C41.1056 44.2929 40.784 44.7718 40.6155 45.3113C40.447 45.8508 40.4388 46.4277 40.5921 46.9717C40.7453 47.5157 41.0533 48.0035 41.4787 48.3758C42.2038 49.0904 42.6806 50.0189 42.8387 51.0247C43.0358 51.8055 43.1264 52.6093 43.1079 53.4144V60.2219C43.0794 62.1103 43.0794 63.5259 43.0794 64.1753C43.0794 64.9489 43.3867 65.6907 43.9336 66.2377C44.4806 66.7847 45.2225 67.092 45.996 67.092C46.7696 67.092 47.5114 66.7847 48.0584 66.2377C48.6054 65.6907 48.9127 64.9489 48.9127 64.1753C48.9127 63.543 48.9127 62.1559 48.9412 60.2675V53.4144C48.9647 52.1248 48.8128 50.8379 48.4897 49.5891C48.3974 49.1792 48.2842 48.7742 48.1508 48.3758C52.5878 47.6387 56.6192 45.3511 59.5276 41.9201C62.4359 38.4891 64.0324 34.1374 64.0329 29.6396C64.129 28.7104 64.1738 27.7767 64.1669 26.8426C64.2316 22.814 62.9339 18.8816 60.484 15.6829L60.484 15.6828Z" fill="#777777"/>
</svg>
