<svg width="534" height="262" viewBox="0 0 534 262" fill="none" xmlns="http://www.w3.org/2000/svg">
<path d="M260.089 127.855H151.108V257.113H260.089V127.855Z" fill="#9D4328"/>
<path d="M255.154 193.151H243.148V198.687H255.154V193.151Z" fill="#752F1F"/>
<path d="M163.113 175.01H151.108V180.546H163.113V175.01Z" fill="#752F1F"/>
<path d="M205.265 230.568H193.26V236.104H205.265V230.568Z" fill="#752F1F"/>
<path d="M228.208 251.244H216.203V256.779H228.208V251.244Z" fill="#752F1F"/>
<path d="M248.484 186.281H236.479V191.817H248.484V186.281Z" fill="#752F1F"/>
<path d="M260.089 127.855H151.108V158.536H260.089V127.855Z" fill="#CE4829" stroke="#9D4328" stroke-width="6" stroke-miterlimit="10" stroke-linecap="round" stroke-linejoin="round"/>
<path d="M260.089 127.855H151.108V257.113H260.089V127.855Z" stroke="#1C1A34" stroke-width="6" stroke-miterlimit="10" stroke-linecap="round" stroke-linejoin="round"/>
<path d="M282.966 151.733H126.764L166.982 45.0186H323.251L282.966 151.733Z" fill="#A31729"/>
<path d="M152.842 138.86H140.836V144.396H152.842V138.86Z" fill="#7B1D2D"/>
<path d="M159.711 131.991H147.706V137.527H159.711V131.991Z" fill="#7B1D2D"/>
<path d="M146.172 131.991H134.167V137.527H146.172V131.991Z" fill="#7B1D2D"/>
<path d="M178.52 66.6948H166.514V72.2306H178.52V66.6948Z" fill="#7B1D2D"/>
<path d="M171.85 59.7588H159.845V65.2946H171.85V59.7588Z" fill="#7B1D2D"/>
<path opacity="0.82" d="M261.357 151.733L250.085 107.914L241.614 114.783C237.946 117.718 232.61 117.051 229.809 113.316C227.141 109.714 227.875 104.645 231.41 101.911L287.702 58.8917C290.703 56.6241 294.838 56.6241 297.773 58.9584L315.714 73.0981L261.357 151.733Z" fill="#861528"/>
<path d="M282.966 151.733H126.764L166.982 45.0186H323.251L282.966 151.733Z" stroke="#1C1A34" stroke-width="6" stroke-miterlimit="10" stroke-linecap="round" stroke-linejoin="round"/>
<path d="M245.95 20.8081H220.338V45.0189H245.95V20.8081Z" fill="#1C1931"/>
<path d="M245.149 36.2148H235.278V41.7506H245.149V36.2148Z" fill="#272544"/>
<path d="M228.208 30.6792H219.004V36.215H228.208V30.6792Z" fill="#272544"/>
<path d="M245.95 20.8081H220.338V45.0189H245.95V20.8081Z" stroke="#1C1A34" stroke-width="6" stroke-miterlimit="10" stroke-linecap="round" stroke-linejoin="round"/>
<path d="M252.419 11.1372H213.936V20.8082H252.419V11.1372Z" fill="#282642"/>
<path d="M252.419 11.1372H213.936V20.8082H252.419V11.1372Z" stroke="#1C1A34" stroke-width="6" stroke-miterlimit="10" stroke-linecap="round" stroke-linejoin="round"/>
<path d="M234.945 166.473H176.252V214.494H234.945V166.473Z" fill="#FDEA3F"/>
<path opacity="0.62" d="M176.252 193.751V211.359L210.334 166.473H196.928L176.252 193.751Z" fill="#F1F7D0"/>
<path opacity="0.62" d="M178.453 214.494H185.123L221.606 166.473H214.936L178.453 214.494Z" fill="#F1F7D0"/>
<path d="M234.945 166.473H176.252V214.494H234.945V166.473Z" stroke="#1C1A34" stroke-width="6" stroke-miterlimit="10" stroke-linecap="round" stroke-linejoin="round"/>
<path d="M238.28 217.162H172.917V225.165H238.28V217.162Z" fill="#D14D2F" stroke="#CE4829" stroke-width="6" stroke-miterlimit="10" stroke-linecap="round" stroke-linejoin="round"/>
<path d="M238.28 214.494H172.917V222.498H238.28V214.494Z" fill="#656B82"/>
<path d="M238.28 214.494H172.917V222.498H238.28V214.494Z" stroke="#1C1A34" stroke-width="6" stroke-miterlimit="10" stroke-linecap="round" stroke-linejoin="round"/>
<path d="M512.402 141.461C522.673 158.602 530.143 214.694 497.928 214.694C465.781 214.694 473.251 158.602 483.455 141.461C487.724 134.392 493.326 131.124 497.928 131.124C502.53 131.124 508.133 134.392 512.402 141.461Z" fill="#136249"/>
<path d="M512.402 141.461C522.673 158.602 530.143 214.694 497.928 214.694C465.781 214.694 473.251 158.602 483.455 141.461C487.724 134.392 493.326 131.124 497.928 131.124C502.53 131.124 508.133 134.392 512.402 141.461Z" stroke="#1C1A34" stroke-width="6" stroke-miterlimit="10" stroke-linecap="round" stroke-linejoin="round"/>
<path d="M481.654 122.119C491.926 142.128 499.396 207.624 467.181 207.624C434.967 207.624 442.504 142.128 452.708 122.119C456.977 113.849 462.579 110.047 467.181 110.047C471.783 110.047 477.386 113.849 481.654 122.119Z" fill="#136249"/>
<path d="M481.654 122.119C491.926 142.128 499.396 207.624 467.181 207.624C434.967 207.624 442.504 142.128 452.708 122.119C456.977 113.849 462.579 110.047 467.181 110.047C471.783 110.047 477.386 113.849 481.654 122.119Z" stroke="#1C1A34" stroke-width="6" stroke-miterlimit="10" stroke-linecap="round" stroke-linejoin="round"/>
<path d="M101.886 205.623C88.013 205.623 77.475 191.35 77.4083 175.81C77.0081 136.659 87.0126 95.0408 103.487 52.4885C104.22 50.5543 106.621 50.621 107.288 52.6219C121.628 95.9745 128.298 137.26 126.43 176.744C125.83 192.017 115.425 205.623 101.886 205.623Z" fill="#1E7960"/>
<path d="M101.886 205.623C88.013 205.623 77.475 191.35 77.4083 175.81C77.0081 136.659 87.0126 95.0408 103.487 52.4885C104.22 50.5543 106.621 50.621 107.288 52.6219C121.628 95.9745 128.298 137.26 126.43 176.744C125.83 192.017 115.425 205.623 101.886 205.623Z" stroke="#1C1A34" stroke-width="6" stroke-miterlimit="10" stroke-linecap="round" stroke-linejoin="round"/>
<path d="M72.4726 91.9063C82.7438 114.983 90.2138 190.483 57.9995 190.483C25.7851 190.483 33.3218 114.983 43.5264 91.9063C47.7949 82.3687 53.3974 77.9668 57.9995 77.9668C62.6015 77.9668 68.2707 82.3687 72.4726 91.9063Z" fill="#136249"/>
<path d="M72.4726 91.9063C82.7438 114.983 90.2138 190.483 57.9995 190.483C25.7851 190.483 33.3218 114.983 43.5264 91.9063C47.7949 82.3687 53.3974 77.9668 57.9995 77.9668C62.6015 77.9668 68.2707 82.3687 72.4726 91.9063Z" stroke="#1C1A34" stroke-width="6" stroke-miterlimit="10" stroke-linecap="round" stroke-linejoin="round"/>
<path d="M41.7257 122.119C51.997 142.128 59.4669 207.624 27.2526 207.624C-4.96168 207.624 2.575 142.128 12.7795 122.119C17.0481 113.849 22.6506 110.047 27.2526 110.047C31.8547 110.047 37.5239 113.849 41.7257 122.119Z" fill="#1E7960"/>
<path d="M41.7257 122.119C51.997 142.128 59.467 207.624 27.2526 207.624C-4.96168 207.624 2.575 142.128 12.7795 122.119C17.0481 113.849 22.6506 110.047 27.2526 110.047C31.8547 110.047 37.5239 113.849 41.7257 122.119Z" stroke="#1C1A34" stroke-width="6" stroke-miterlimit="10" stroke-linecap="round" stroke-linejoin="round"/>
<path d="M420.294 257.18H260.089V85.8367L340.192 16.9395L420.294 85.8367V257.18Z" fill="#B66F2D"/>
<path d="M420.494 126.455H408.489V131.991H420.494V126.455Z" fill="#905321"/>
<path d="M413.824 133.325H401.819V138.86H413.824V133.325Z" fill="#905321"/>
<path d="M407.155 126.455H395.149V131.991H407.155V126.455Z" fill="#905321"/>
<path d="M357.866 68.229H345.861V73.7648H357.866V68.229Z" fill="#905321"/>
<path d="M278.764 133.325H266.759V138.86H278.764V133.325Z" fill="#915321"/>
<path d="M405.354 227.366H393.349V232.902H405.354V227.366Z" fill="#9E5D25"/>
<path d="M311.179 93.7734H299.173V99.3092H311.179V93.7734Z" fill="#905321"/>
<path d="M272.095 126.455H260.089V131.991H272.095V126.455Z" fill="#905321"/>
<path d="M266.092 47.5532H254.087V53.089H266.092V47.5532Z" fill="#7B1D2D"/>
<path d="M240.948 129.856H228.942V135.392H240.948V129.856Z" fill="#7B1D2D"/>
<path d="M345.394 184.948H333.389V190.484H345.394V184.948Z" fill="#9E5D25"/>
<path d="M338.724 178.078H326.719V183.613H338.724V178.078Z" fill="#905321"/>
<path d="M260.089 85.8367V96.2414L339.992 28.5446L420.294 96.5081V85.8367L340.192 16.9395L260.089 85.8367Z" fill="#EA633A"/>
<path d="M420.294 257.18H260.089V85.8367L340.192 16.9395L420.294 85.8367V257.18Z" stroke="#1C1A34" stroke-width="6" stroke-miterlimit="10" stroke-linecap="round" stroke-linejoin="round"/>
<path d="M393.348 166.473H345.327V257.18H393.348V166.473Z" fill="#752C30"/>
<path d="M393.349 166.473H387.88V257.18H393.349V166.473Z" fill="#822E36"/>
<path d="M393.348 166.473H345.327V257.18H393.348V166.473Z" stroke="#1C1A34" stroke-width="6" stroke-miterlimit="10" stroke-linecap="round" stroke-linejoin="round"/>
<path d="M326.719 166.473H285.367V214.494H326.719V166.473Z" fill="#FDEA3F"/>
<path opacity="0.92" d="M285.367 206.424L315.714 166.473H302.308L285.367 188.816V206.424Z" fill="#FAFBD0"/>
<path opacity="0.92" d="M326.719 166.873V166.473H320.316L285.367 212.493V214.494H290.503L326.719 166.873Z" fill="#F1F7D0"/>
<path d="M331.388 217.162H280.698V225.165H331.388V217.162Z" fill="#EA633A" stroke="#EA633A" stroke-width="6" stroke-miterlimit="10" stroke-linecap="round" stroke-linejoin="round"/>
<path d="M326.719 166.473H285.367V214.494H326.719V166.473Z" stroke="#1C1A34" stroke-width="6" stroke-miterlimit="10" stroke-linecap="round" stroke-linejoin="round"/>
<path d="M331.388 214.494H280.698V222.498H331.388V214.494Z" fill="#656B82"/>
<path d="M331.388 214.494H280.698V222.498H331.388V214.494Z" stroke="#1C1A34" stroke-width="6" stroke-miterlimit="10" stroke-linecap="round" stroke-linejoin="round"/>
<path d="M340.192 111.782C350.874 111.782 359.534 103.122 359.534 92.4396C359.534 81.7573 350.874 73.0977 340.192 73.0977C329.51 73.0977 320.85 81.7573 320.85 92.4396C320.85 103.122 329.51 111.782 340.192 111.782Z" fill="#FFF59A"/>
<path d="M340.192 73.0977C338.324 73.0977 336.523 73.3644 334.856 73.8313C342.926 76.1657 348.862 83.569 348.862 92.4396C348.862 101.243 342.926 108.713 334.856 111.048C336.523 111.515 338.324 111.782 340.192 111.782C350.863 111.782 359.534 103.111 359.534 92.4396C359.534 81.7015 350.863 73.0977 340.192 73.0977Z" fill="#FDEA3F"/>
<path d="M340.192 111.782C350.874 111.782 359.534 103.122 359.534 92.4396C359.534 81.7573 350.874 73.0977 340.192 73.0977C329.51 73.0977 320.85 81.7573 320.85 92.4396C320.85 103.122 329.51 111.782 340.192 111.782Z" stroke="#1C1A34" stroke-width="6" stroke-miterlimit="10" stroke-linecap="round" stroke-linejoin="round"/>
<path d="M401.352 257.18H337.324V251.844C337.324 246.708 341.526 242.506 346.661 242.506H392.015C397.15 242.506 401.352 246.708 401.352 251.844V257.18Z" fill="#6E818E"/>
<path d="M401.352 250.91H337.324V257.113H401.352V250.91Z" fill="#5C6F7A"/>
<path d="M401.352 257.18H337.324V251.844C337.324 246.708 341.526 242.506 346.661 242.506H392.015C397.15 242.506 401.352 246.708 401.352 251.844V257.18Z" stroke="#1C1A34" stroke-width="6" stroke-miterlimit="10" stroke-linecap="round" stroke-linejoin="round"/>
<path d="M4.04224 257.18H529.209" stroke="#1C1A34" stroke-width="8" stroke-miterlimit="10" stroke-linecap="round" stroke-linejoin="round"/>
<path d="M442.771 98.309C440.503 101.044 436.368 101.444 433.633 99.1094L339.992 19.8075L246.35 99.1094C243.615 101.444 239.547 101.044 237.213 98.309C234.945 95.5745 235.278 91.5727 238.013 89.305L330.054 11.4704L340.058 3L349.996 11.4704L442.037 89.305C444.705 91.506 445.038 95.5745 442.771 98.309Z" fill="#993034"/>
<path d="M277.097 70.2964H267.493V75.8322H277.097V70.2964Z" fill="#7B1D2D"/>
<path d="M347.795 11.8042H338.924V17.34H347.795V11.8042Z" fill="#7B1D2D"/>
<path d="M442.771 98.309C440.503 101.044 436.368 101.444 433.633 99.1094L339.992 19.8075L246.35 99.1094C243.615 101.444 239.547 101.044 237.213 98.309C234.945 95.5745 235.278 91.5727 238.013 89.305L330.054 11.4704L340.058 3L349.996 11.4704L442.037 89.305C444.705 91.506 445.038 95.5745 442.771 98.309Z" stroke="#1C1A34" stroke-width="6" stroke-miterlimit="10" stroke-linecap="round" stroke-linejoin="round"/>
<path d="M467.515 257.179V155.401" stroke="#1C1A34" stroke-width="6" stroke-miterlimit="10" stroke-linecap="round" stroke-linejoin="round"/>
<path d="M498.329 257.179V155.401" stroke="#1C1A34" stroke-width="6" stroke-miterlimit="10" stroke-linecap="round" stroke-linejoin="round"/>
<path d="M340.192 111.782V73.0977" stroke="#1C1A34" stroke-width="6" stroke-miterlimit="10" stroke-linecap="round" stroke-linejoin="round"/>
<path d="M320.85 92.4399H359.534" stroke="#1C1A34" stroke-width="6" stroke-miterlimit="10" stroke-linecap="round" stroke-linejoin="round"/>
<path d="M164.58 211.826H39.1912V214.494H164.58V211.826Z" stroke="#1C1A34" stroke-width="6" stroke-miterlimit="10" stroke-linecap="round" stroke-linejoin="round"/>
<path d="M164.58 230.701H39.1912V233.369H164.58V230.701Z" stroke="#1C1A34" stroke-width="6" stroke-miterlimit="10" stroke-linecap="round" stroke-linejoin="round"/>
<path d="M58.3999 257.18V120.186" stroke="#1C1A34" stroke-width="6" stroke-miterlimit="10" stroke-linecap="round" stroke-linejoin="round"/>
<path d="M27.6528 257.179V155.401" stroke="#1C1A34" stroke-width="6" stroke-miterlimit="10" stroke-linecap="round" stroke-linejoin="round"/>
<path d="M103.486 257.18V130.323" stroke="#1C1A34" stroke-width="6" stroke-miterlimit="10" stroke-linecap="round" stroke-linejoin="round"/>
<path d="M156.31 257.18H146.972V199.154L151.641 190.884L156.31 199.154V257.18Z" fill="#663333"/>
<path d="M156.31 257.18H146.972V199.154L151.641 190.884L156.31 199.154V257.18Z" stroke="#1C1A34" stroke-width="6" stroke-miterlimit="10" stroke-linecap="round" stroke-linejoin="round"/>
<path d="M131.499 257.18H122.161V199.154L126.83 190.884L131.499 199.154V257.18Z" fill="#663333"/>
<path d="M131.499 257.18H122.161V199.154L126.83 190.884L131.499 199.154V257.18Z" stroke="#1C1A34" stroke-width="6" stroke-miterlimit="10" stroke-linecap="round" stroke-linejoin="round"/>
<path d="M106.754 257.18H97.417V199.154L102.086 190.884L106.754 199.154V257.18Z" fill="#663333"/>
<path d="M106.754 257.18H97.417V199.154L102.086 190.884L106.754 199.154V257.18Z" stroke="#1C1A34" stroke-width="6" stroke-miterlimit="10" stroke-linecap="round" stroke-linejoin="round"/>
<path d="M82.0103 257.18H72.6729V199.154L77.3416 190.884L82.0103 199.154V257.18Z" fill="#663333"/>
<path d="M82.0103 257.18H72.6729V199.154L77.3416 190.884L82.0103 199.154V257.18Z" stroke="#1C1A34" stroke-width="6" stroke-miterlimit="10" stroke-linecap="round" stroke-linejoin="round"/>
<path d="M57.2657 257.18H47.9282V199.154L52.597 190.884L57.2657 199.154V257.18Z" fill="#663333"/>
<path d="M57.2657 257.18H47.9282V199.154L52.597 190.884L57.2657 199.154V257.18Z" stroke="#1C1A34" stroke-width="6" stroke-miterlimit="10" stroke-linecap="round" stroke-linejoin="round"/>
<path d="M353.131 212.36V227.367" stroke="#1C1A34" stroke-width="6" stroke-miterlimit="10" stroke-linecap="round" stroke-linejoin="round"/>
<path d="M498.929 173.876L504.331 168.007" stroke="#1C1A34" stroke-width="6" stroke-miterlimit="10" stroke-linecap="round" stroke-linejoin="round"/>
<path d="M498.329 193.818L506.732 188.216" stroke="#1C1A34" stroke-width="6" stroke-miterlimit="10" stroke-linecap="round" stroke-linejoin="round"/>
<path d="M497.928 183.814L492.326 179.545" stroke="#1C1A34" stroke-width="6" stroke-miterlimit="10" stroke-linecap="round" stroke-linejoin="round"/>
<path d="M467.515 168.007L474.718 162.671" stroke="#1C1A34" stroke-width="6" stroke-miterlimit="10" stroke-linecap="round" stroke-linejoin="round"/>
<path d="M467.515 187.348L478.72 179.545" stroke="#1C1A34" stroke-width="6" stroke-miterlimit="10" stroke-linecap="round" stroke-linejoin="round"/>
<path d="M467.181 176.477L459.645 169.341" stroke="#1C1A34" stroke-width="6" stroke-miterlimit="10" stroke-linecap="round" stroke-linejoin="round"/>
<path d="M113.357 163.671L103.486 175.01" stroke="#1C1A34" stroke-width="6" stroke-miterlimit="10" stroke-linecap="round" stroke-linejoin="round"/>
<path d="M110.023 137.06L103.486 146.664" stroke="#1C1A34" stroke-width="6" stroke-miterlimit="10" stroke-linecap="round" stroke-linejoin="round"/>
<path d="M103.487 161.67L94.6826 155.401" stroke="#1C1A34" stroke-width="6" stroke-miterlimit="10" stroke-linecap="round" stroke-linejoin="round"/>
<path d="M382.01 181.679H356.732V206.29H382.01V181.679Z" fill="#FDEA3F"/>
<path opacity="0.92" d="M356.732 200.488L371.005 181.679H357.666L356.732 182.88V200.488Z" fill="#D0F6FB"/>
<path opacity="0.92" d="M374.807 181.679L356.732 205.49V206.29H359.467L378.142 181.679H374.807Z" fill="#D0F6FB"/>
<path d="M382.01 181.679H356.732V206.29H382.01V181.679Z" stroke="#1C1A34" stroke-width="6" stroke-miterlimit="10" stroke-linecap="round" stroke-linejoin="round"/>
<path d="M66.6702 131.991L58.3999 140.328" stroke="#1C1A34" stroke-width="6" stroke-miterlimit="10" stroke-linecap="round" stroke-linejoin="round"/>
<path d="M58.3999 161.671L69.0046 151.733" stroke="#1C1A34" stroke-width="6" stroke-miterlimit="10" stroke-linecap="round" stroke-linejoin="round"/>
<path d="M58.3997 148.998L50.5295 141.862" stroke="#1C1A34" stroke-width="6" stroke-miterlimit="10" stroke-linecap="round" stroke-linejoin="round"/>
<path d="M27.6528 182.013L34.7893 173.676" stroke="#1C1A34" stroke-width="6" stroke-miterlimit="10" stroke-linecap="round" stroke-linejoin="round"/>
<path d="M27.3193 169.341L20.6497 163.671" stroke="#1C1A34" stroke-width="6" stroke-miterlimit="10" stroke-linecap="round" stroke-linejoin="round"/>
</svg>
