<svg width="425" height="357" viewBox="0 0 425 357" fill="none" xmlns="http://www.w3.org/2000/svg">
<!-- wheel -->
<g class="appear" opacity="0.39">
<path opacity="0.39" d="M25.3151 170.874C31.2206 170.874 36.0081 166.44 36.0081 160.97C36.0081 155.501 31.2206 151.067 25.3151 151.067C19.4095 151.067 14.6221 155.501 14.6221 160.97C14.6221 166.44 19.4095 170.874 25.3151 170.874Z" fill="white"/>
<path opacity="0.39" d="M25.3153 165.215C27.8464 165.215 29.8982 163.314 29.8982 160.97C29.8982 158.626 27.8464 156.726 25.3153 156.726C22.7842 156.726 20.7324 158.626 20.7324 160.97C20.7324 163.314 22.7842 165.215 25.3153 165.215Z" fill="white"/>
<path opacity="0.39" d="M41.9645 146.763L35.3498 150.3L35.3598 150.316C34.8767 149.925 34.3675 149.563 33.8351 149.232L33.853 149.236L35.8297 142.403C35.9869 141.859 35.9045 141.28 35.6007 140.793C35.2969 140.305 34.7965 139.949 34.2096 139.804L29.0451 138.522C28.4582 138.377 27.8328 138.453 27.3067 138.734C26.7805 139.016 26.3965 139.479 26.2391 140.023L24.2624 146.856H24.2734C23.6395 146.896 23.0089 146.973 22.3853 147.086L22.3937 147.081L18.575 140.955C18.4246 140.714 18.2243 140.502 17.9856 140.333C17.7469 140.163 17.4745 140.038 17.1838 139.966C16.8931 139.894 16.5899 139.876 16.2916 139.912C15.9932 139.948 15.7055 140.039 15.4449 140.178L10.8148 142.655C10.5542 142.795 10.3257 142.98 10.1424 143.201C9.95919 143.422 9.82475 143.675 9.74682 143.944C9.66889 144.213 9.649 144.494 9.68826 144.77C9.72753 145.046 9.8252 145.313 9.97568 145.554L13.7944 151.68L13.8028 151.676C13.3849 152.12 12.9975 152.588 12.6426 153.077L12.6458 153.067L5.26799 151.236C4.68099 151.09 4.05561 151.167 3.52941 151.448C3.0032 151.73 2.61927 152.193 2.46204 152.737L1.07796 157.52C0.920808 158.063 1.00325 158.643 1.30717 159.13C1.61108 159.617 2.11157 159.973 2.69858 160.119L10.0759 161.95L10.0806 161.933C10.124 162.526 10.2079 163.115 10.3318 163.698L10.3224 163.682L3.70767 167.219C3.18142 167.501 2.7974 167.964 2.64003 168.508C2.48267 169.051 2.56486 169.631 2.86852 170.118L5.54334 174.406C5.69371 174.648 5.89396 174.859 6.13267 175.029C6.37137 175.199 6.64385 175.323 6.93452 175.396C7.22519 175.468 7.52837 175.486 7.82674 175.45C8.1251 175.413 8.4128 175.323 8.67341 175.184L15.2876 171.647L15.2729 171.623C15.7619 172.019 16.2776 172.385 16.8169 172.719L16.7849 172.711L14.8082 179.544C14.6509 180.087 14.7332 180.667 15.037 181.154C15.3409 181.642 15.8413 181.997 16.4283 182.143L21.5928 183.424C22.1797 183.57 22.8051 183.494 23.3312 183.212C23.8574 182.931 24.2414 182.467 24.3988 181.924L26.3755 175.091L26.3367 175.081C26.9895 175.041 27.6387 174.962 28.2804 174.844L28.2463 174.863L32.0655 180.989C32.2159 181.23 32.4162 181.442 32.6549 181.612C32.8936 181.781 33.166 181.906 33.4567 181.978C33.7474 182.05 34.0506 182.069 34.3489 182.032C34.6473 181.996 34.935 181.905 35.1956 181.766L39.8257 179.289C40.3519 179.007 40.7359 178.544 40.8933 178C41.0506 177.457 40.9685 176.878 40.6648 176.39L36.8461 170.264L36.812 170.282C37.2429 169.826 37.6415 169.345 38.0052 168.841L37.9947 168.877L45.372 170.708C45.6627 170.78 45.9659 170.799 46.2642 170.762C46.5626 170.726 46.8503 170.636 47.1109 170.496C47.3715 170.357 47.5999 170.171 47.7831 169.95C47.9663 169.729 48.1006 169.477 48.1785 169.207L49.562 164.425C49.64 164.155 49.6599 163.875 49.6207 163.598C49.5815 163.322 49.4839 163.055 49.3334 162.814C49.183 162.573 48.9826 162.361 48.7439 162.191C48.5051 162.022 48.2326 161.897 47.9419 161.825L40.5599 159.997L40.551 160.027C40.5083 159.427 40.424 158.83 40.2988 158.24L40.3134 158.264L46.9281 154.727C47.4544 154.446 47.8384 153.982 47.9958 153.439C48.1531 152.895 48.0709 152.316 47.7673 151.828L45.0925 147.54C44.7887 147.053 44.2886 146.698 43.7021 146.552C43.1156 146.406 42.4907 146.482 41.9645 146.763Z" fill="white"/>
</g>
<!-- big cube -->
<g class="appear">
<path opacity="0.39" d="M90.6704 70.4653C105.602 70.4653 117.706 59.2547 117.706 45.4257C117.706 31.5966 105.602 20.386 90.6704 20.386C75.739 20.386 63.6348 31.5966 63.6348 45.4257C63.6348 59.2547 75.739 70.4653 90.6704 70.4653Z" fill="white"/>
<path d="M90.299 45.698L104.904 37.8374L104.859 52.5428L90.2539 60.4038L90.299 45.698Z" stroke="#1E223B" stroke-width="2" stroke-linecap="round" stroke-linejoin="round"/>
<path d="M76.4814 38.3097L91.0865 30.4487L104.904 37.8375L90.2993 45.698L76.4814 38.3097Z" stroke="#1E223B" stroke-width="2" stroke-linecap="round" stroke-linejoin="round"/>
<path d="M76.4814 38.3097L91.0865 30.4487L104.904 37.8375L90.2993 45.698L76.4814 38.3097Z" fill="#028B9E" stroke="#1E223B" stroke-width="2" stroke-linecap="round" stroke-linejoin="round"/>
<path opacity="0.4" d="M90.299 45.6979L90.2539 60.4036L76.436 53.0148L76.4811 38.3096L90.299 45.6979Z" fill="#028B9E" stroke="#1E223B" stroke-width="2" stroke-linecap="round" stroke-linejoin="round"/>
<path d="M90.299 45.6979L90.2539 60.4036L76.436 53.0148L76.4811 38.3096L90.299 45.6979Z" stroke="#1E223B" stroke-width="2" stroke-linecap="round" stroke-linejoin="round"/>
<path d="M90.6704 70.4653C105.602 70.4653 117.706 59.2547 117.706 45.4257C117.706 31.5966 105.602 20.386 90.6704 20.386C75.739 20.386 63.6348 31.5966 63.6348 45.4257C63.6348 59.2547 75.739 70.4653 90.6704 70.4653Z" stroke="#1E223B" stroke-width="2" stroke-linecap="round" stroke-linejoin="round"/>
</g>
<g style="mix-blend-mode:multiply" opacity="0.11">
<path d="M278.829 240.155H130.927C125.713 240.155 121.486 244.069 121.486 248.898V347.021C121.486 351.85 125.713 355.765 130.927 355.765H278.829C284.043 355.765 288.27 351.85 288.27 347.021V248.898C288.27 244.069 284.043 240.155 278.829 240.155Z" fill="#161616"/>
<path d="M278.829 240.155H130.927C125.713 240.155 121.486 244.069 121.486 248.898V347.021C121.486 351.85 125.713 355.765 130.927 355.765H278.829C284.043 355.765 288.27 351.85 288.27 347.021V248.898C288.27 244.069 284.043 240.155 278.829 240.155Z" stroke="#1E223B" stroke-miterlimit="10"/>
</g>
<g style="mix-blend-mode:multiply" opacity="0.11">
<path d="M284.598 233.354H125.158C123.13 233.354 121.486 234.876 121.486 236.754C121.486 238.632 123.13 240.155 125.158 240.155H284.598C286.626 240.155 288.27 238.632 288.27 236.754C288.27 234.876 286.626 233.354 284.598 233.354Z" fill="#161616"/>
<path d="M284.598 233.354H125.158C123.13 233.354 121.486 234.876 121.486 236.754C121.486 238.632 123.13 240.155 125.158 240.155H284.598C286.626 240.155 288.27 238.632 288.27 236.754C288.27 234.876 286.626 233.354 284.598 233.354Z" stroke="#1E223B" stroke-miterlimit="10"/>
</g>
<path d="M273.584 236.269H125.682C120.468 236.269 116.242 240.183 116.242 245.012V343.135C116.242 347.964 120.468 351.878 125.682 351.878H273.584C278.798 351.878 283.025 347.964 283.025 343.135V245.012C283.025 240.183 278.798 236.269 273.584 236.269Z" fill="#2F4584"/>
<path d="M273.584 236.269H125.682C120.468 236.269 116.242 240.183 116.242 245.012V340.22C116.242 345.049 120.468 348.964 125.682 348.964H273.584C278.798 348.964 283.025 345.049 283.025 340.22V245.012C283.025 240.183 278.798 236.269 273.584 236.269Z" fill="white"/>
<path opacity="0.15" d="M273.322 244.769H125.945C124.786 244.769 123.847 245.639 123.847 246.712V301.603C123.847 302.676 124.786 303.546 125.945 303.546H273.322C274.481 303.546 275.42 302.676 275.42 301.603V246.712C275.42 245.639 274.481 244.769 273.322 244.769Z" fill="#1E223B" stroke="#1E223B" stroke-width="2" stroke-miterlimit="11"/>
<path d="M273.584 236.269H125.682C120.468 236.269 116.242 240.183 116.242 245.012V340.22C116.242 345.049 120.468 348.964 125.682 348.964H273.584C278.798 348.964 283.025 345.049 283.025 340.22V245.012C283.025 240.183 278.798 236.269 273.584 236.269Z" stroke="#1E223B" stroke-width="2" stroke-linecap="round" stroke-linejoin="round"/>
<path d="M273.584 236.269H125.682C120.468 236.269 116.242 240.183 116.242 245.012V343.135C116.242 347.964 120.468 351.878 125.682 351.878H273.584C278.798 351.878 283.025 347.964 283.025 343.135V245.012C283.025 240.183 278.798 236.269 273.584 236.269Z" stroke="#1E223B" stroke-width="2" stroke-linecap="round" stroke-linejoin="round"/>
<path d="M273.584 123.573H125.682C120.468 123.573 116.242 127.488 116.242 132.317V227.525C116.242 232.354 120.468 236.269 125.682 236.269H273.584C278.798 236.269 283.025 232.354 283.025 227.525V132.317C283.025 127.488 278.798 123.573 273.584 123.573Z" fill="#2F4584"/>
<path d="M273.584 123.573H125.682C120.468 123.573 116.242 127.488 116.242 132.317V227.525C116.242 232.354 120.468 236.269 125.682 236.269H273.584C278.798 236.269 283.025 232.354 283.025 227.525V132.317C283.025 127.488 278.798 123.573 273.584 123.573Z" stroke="#1E223B" stroke-width="2" stroke-linecap="round" stroke-linejoin="round"/>
<path d="M279.879 227.525V132.317C279.879 129.098 277.061 126.488 273.585 126.488L125.683 126.488C122.207 126.488 119.389 129.098 119.389 132.317V227.525C119.389 230.744 122.207 233.354 125.683 233.354H273.585C277.061 233.354 279.879 230.744 279.879 227.525Z" fill="white"/>
<path d="M267.291 221.696V138.146H131.976V221.696H267.291Z" fill="#FF5855" stroke="#1E223B" stroke-miterlimit="10"/>
<path d="M279.879 227.525V132.317C279.879 129.098 277.061 126.488 273.585 126.488L125.683 126.488C122.207 126.488 119.389 129.098 119.389 132.317V227.525C119.389 230.744 122.207 233.354 125.683 233.354H273.585C277.061 233.354 279.879 230.744 279.879 227.525Z" stroke="#1E223B" stroke-width="2" stroke-linecap="round" stroke-linejoin="round"/>
<path d="M267.291 221.696V138.146H131.976V221.696H267.291Z" stroke="#1E223B" stroke-width="2" stroke-linecap="round" stroke-linejoin="round"/>
<g opacity="0.1">
<path opacity="0.1" d="M219.957 308.161H179.31C178.079 308.161 177.081 309.085 177.081 310.225V335.241C177.081 336.381 178.079 337.306 179.31 337.306H219.957C221.188 337.306 222.186 336.381 222.186 335.241V310.225C222.186 309.085 221.188 308.161 219.957 308.161Z" fill="#1E223B"/>
</g>
<path d="M219.957 308.161H179.31C178.079 308.161 177.081 309.085 177.081 310.225V335.241C177.081 336.381 178.079 337.306 179.31 337.306H219.957C221.188 337.306 222.186 336.381 222.186 335.241V310.225C222.186 309.085 221.188 308.161 219.957 308.161Z" stroke="#1E223B" stroke-width="2" stroke-linecap="round" stroke-linejoin="round"/>
<path d="M219.826 347.992H179.966V351.878H219.826V347.992Z" fill="#263C72"/>
<path d="M219.826 347.992H179.966V351.878H219.826V347.992Z" stroke="#1E223B" stroke-width="2" stroke-linecap="round" stroke-linejoin="round"/>
<!-- window -->
<g class="zoom" style="mix-blend-mode:multiply" opacity="0.11">
<path d="M252.605 111.916H154.004C152.266 111.916 150.857 113.22 150.857 114.83V217.81C150.857 219.42 152.266 220.725 154.004 220.725H252.605C254.343 220.725 255.752 219.42 255.752 217.81V114.83C255.752 113.22 254.343 111.916 252.605 111.916Z" fill="#161616"/>
<path d="M252.605 111.916H154.004C152.266 111.916 150.857 113.22 150.857 114.83V217.81C150.857 219.42 152.266 220.725 154.004 220.725H252.605C254.343 220.725 255.752 219.42 255.752 217.81V114.83C255.752 113.22 254.343 111.916 252.605 111.916Z" stroke="#1E223B" stroke-miterlimit="10"/>
</g>
<g class="zoom">
<path d="M249.721 109.973H151.12C149.382 109.973 147.973 111.278 147.973 112.887V215.867C147.973 217.476 149.382 218.781 151.12 218.781H249.721C251.459 218.781 252.868 217.476 252.868 215.867V112.887C252.868 111.278 251.459 109.973 249.721 109.973Z" fill="white"/>
<path d="M249.721 109.973H151.12C149.382 109.973 147.973 111.278 147.973 112.887V215.867C147.973 217.476 149.382 218.781 151.12 218.781H249.721C251.459 218.781 252.868 217.476 252.868 215.867V112.887C252.868 111.278 251.459 109.973 249.721 109.973Z" stroke="#1E223B" stroke-width="2" stroke-linecap="round" stroke-linejoin="round"/>
<path d="M150.819 109.973H250.021C250.395 109.973 250.765 110.041 251.111 110.173C251.456 110.306 251.77 110.5 252.034 110.745C252.299 110.99 252.508 111.28 252.651 111.6C252.794 111.92 252.868 112.263 252.868 112.609V118.717H147.973V112.609C147.973 112.263 148.046 111.92 148.189 111.6C148.332 111.28 148.542 110.99 148.806 110.745C149.07 110.5 149.384 110.306 149.73 110.173C150.075 110.041 150.445 109.973 150.819 109.973Z" fill="white"/>
<path d="M150.819 109.973H250.021C250.395 109.973 250.765 110.041 251.111 110.173C251.456 110.306 251.77 110.5 252.034 110.745C252.299 110.99 252.508 111.28 252.651 111.6C252.794 111.92 252.868 112.263 252.868 112.609V118.717H147.973V112.609C147.973 112.263 148.046 111.92 148.189 111.6C148.332 111.28 148.542 110.99 148.806 110.745C149.07 110.5 149.384 110.306 149.73 110.173C150.075 110.041 150.445 109.973 150.819 109.973V109.973Z" stroke="#1E223B" stroke-width="2" stroke-linecap="round" stroke-linejoin="round"/>
<path d="M252.868 118.716H147.973V122.602H252.868V118.716Z" fill="#424960"/>
<path d="M252.868 118.716H147.973V122.602H252.868V118.716Z" stroke="#1E223B" stroke-width="2" stroke-linecap="round" stroke-linejoin="round"/>
<path d="M153.829 115.802C154.698 115.802 155.403 115.149 155.403 114.344C155.403 113.539 154.698 112.887 153.829 112.887C152.96 112.887 152.256 113.539 152.256 114.344C152.256 115.149 152.96 115.802 153.829 115.802Z" fill="#F73E39"/>
<path d="M153.829 115.802C154.698 115.802 155.403 115.149 155.403 114.344C155.403 113.539 154.698 112.887 153.829 112.887C152.96 112.887 152.256 113.539 152.256 114.344C152.256 115.149 152.96 115.802 153.829 115.802Z" stroke="#1E223B" stroke-width="2" stroke-linecap="round" stroke-linejoin="round"/>
<path d="M160.264 115.802C161.133 115.802 161.837 115.149 161.837 114.344C161.837 113.539 161.133 112.887 160.264 112.887C159.395 112.887 158.69 113.539 158.69 114.344C158.69 115.149 159.395 115.802 160.264 115.802Z" fill="#383838"/>
<path d="M160.264 115.802C161.133 115.802 161.837 115.149 161.837 114.344C161.837 113.539 161.133 112.887 160.264 112.887C159.395 112.887 158.69 113.539 158.69 114.344C158.69 115.149 159.395 115.802 160.264 115.802Z" stroke="#1E223B" stroke-width="2" stroke-linecap="round" stroke-linejoin="round"/>
<path d="M166.152 115.802C167.021 115.802 167.725 115.149 167.725 114.344C167.725 113.539 167.021 112.887 166.152 112.887C165.283 112.887 164.578 113.539 164.578 114.344C164.578 115.149 165.283 115.802 166.152 115.802Z" fill="#C6C6C6"/>
<path d="M166.152 115.802C167.021 115.802 167.725 115.149 167.725 114.344C167.725 113.539 167.021 112.887 166.152 112.887C165.283 112.887 164.578 113.539 164.578 114.344C164.578 115.149 165.283 115.802 166.152 115.802Z" stroke="#1E223B" stroke-width="2" stroke-linecap="round" stroke-linejoin="round"/>
<path opacity="0.28" d="M207.501 112.887H174.983C174.114 112.887 173.41 113.539 173.41 114.344C173.41 115.149 174.114 115.802 174.983 115.802H207.501C208.37 115.802 209.074 115.149 209.074 114.344C209.074 113.539 208.37 112.887 207.501 112.887Z" fill="#8289A3"/>
</g>
<g class="appear">
<path d="M25.3151 170.874C31.2206 170.874 36.0081 166.44 36.0081 160.97C36.0081 155.501 31.2206 151.067 25.3151 151.067C19.4095 151.067 14.6221 155.501 14.6221 160.97C14.6221 166.44 19.4095 170.874 25.3151 170.874Z" stroke="#1E223B" stroke-width="2" stroke-linecap="round" stroke-linejoin="round"/>
<path d="M25.3153 165.215C27.8464 165.215 29.8982 163.315 29.8982 160.971C29.8982 158.626 27.8464 156.726 25.3153 156.726C22.7842 156.726 20.7324 158.626 20.7324 160.971C20.7324 163.315 22.7842 165.215 25.3153 165.215Z" stroke="#1E223B" stroke-width="2" stroke-linecap="round" stroke-linejoin="round"/>
<path d="M41.9645 146.763L35.3498 150.3L35.3598 150.316C34.8767 149.925 34.3675 149.563 33.8351 149.232L33.853 149.236L35.8297 142.403C35.9869 141.859 35.9045 141.28 35.6007 140.793C35.2969 140.305 34.7965 139.949 34.2096 139.804L29.0451 138.522C28.4582 138.377 27.8328 138.453 27.3067 138.734C26.7805 139.016 26.3965 139.479 26.2391 140.023L24.2624 146.856H24.2734C23.6395 146.896 23.0089 146.973 22.3853 147.086L22.3937 147.081L18.575 140.955C18.4246 140.714 18.2244 140.502 17.9856 140.333C17.7469 140.163 17.4745 140.038 17.1838 139.966C16.8931 139.894 16.5899 139.876 16.2916 139.912C15.9932 139.948 15.7055 140.039 15.4449 140.178L10.8148 142.655C10.5542 142.795 10.3257 142.98 10.1424 143.201C9.95919 143.422 9.82475 143.675 9.74682 143.944C9.66889 144.213 9.649 144.494 9.68827 144.77C9.72753 145.046 9.8252 145.313 9.97568 145.554L13.7944 151.68L13.8028 151.676C13.3849 152.12 12.9975 152.588 12.6426 153.077L12.6458 153.067L5.26799 151.236C4.68099 151.09 4.05561 151.167 3.52941 151.448C3.0032 151.73 2.61927 152.193 2.46204 152.737L1.07796 157.52C0.920808 158.063 1.00325 158.643 1.30717 159.13C1.61108 159.617 2.11157 159.973 2.69858 160.119L10.0759 161.95L10.0806 161.933C10.124 162.526 10.2079 163.115 10.3318 163.698L10.3224 163.682L3.70767 167.219C3.18142 167.501 2.7974 167.964 2.64003 168.508C2.48267 169.051 2.56486 169.631 2.86852 170.118L5.54334 174.406C5.69371 174.648 5.89396 174.859 6.13267 175.029C6.37137 175.199 6.64385 175.323 6.93452 175.396C7.22519 175.468 7.52837 175.486 7.82674 175.45C8.1251 175.413 8.4128 175.323 8.67341 175.184L15.2876 171.647L15.2729 171.623C15.7619 172.019 16.2776 172.385 16.8169 172.719L16.7849 172.711L14.8082 179.544C14.6509 180.087 14.7332 180.667 15.037 181.154C15.3409 181.642 15.8413 181.997 16.4283 182.143L21.5928 183.424C22.1797 183.57 22.8051 183.494 23.3312 183.212C23.8574 182.931 24.2414 182.467 24.3988 181.924L26.3755 175.091L26.3367 175.081C26.9895 175.041 27.6387 174.962 28.2804 174.844L28.2463 174.863L32.0655 180.989C32.2159 181.23 32.4162 181.442 32.6549 181.612C32.8936 181.781 33.166 181.906 33.4567 181.978C33.7474 182.05 34.0506 182.069 34.3489 182.032C34.6473 181.996 34.935 181.905 35.1956 181.766L39.8257 179.289C40.3519 179.007 40.7359 178.544 40.8933 178C41.0506 177.457 40.9685 176.878 40.6648 176.39L36.8461 170.264L36.812 170.282C37.2429 169.826 37.6415 169.345 38.0052 168.841L37.9947 168.877L45.372 170.708C45.6627 170.78 45.9659 170.799 46.2642 170.762C46.5626 170.726 46.8503 170.636 47.1109 170.496C47.3715 170.357 47.5999 170.171 47.7831 169.95C47.9663 169.729 48.1006 169.477 48.1785 169.207L49.562 164.425C49.64 164.155 49.6599 163.875 49.6207 163.598C49.5815 163.322 49.4839 163.055 49.3334 162.814C49.183 162.573 48.9826 162.361 48.7439 162.191C48.5051 162.022 48.2326 161.897 47.9419 161.825L40.5599 159.997L40.551 160.027C40.5083 159.427 40.424 158.83 40.2987 158.24L40.3134 158.264L46.9281 154.727C47.4544 154.446 47.8384 153.982 47.9958 153.439C48.1531 152.895 48.0709 152.316 47.7673 151.828L45.0925 147.54C44.7887 147.053 44.2886 146.698 43.7021 146.552C43.1156 146.406 42.4907 146.482 41.9645 146.763Z" stroke="#1E223B" stroke-width="2" stroke-linecap="round" stroke-linejoin="round"/>
</g>
<g class="zoom" opacity="0.32">
<path opacity="0.32" d="M168.921 142.652C171.157 142.652 172.97 140.973 172.97 138.902C172.97 136.831 171.157 135.152 168.921 135.152C166.685 135.152 164.872 136.831 164.872 138.902C164.872 140.973 166.685 142.652 168.921 142.652Z" stroke="#1E223B" stroke-linecap="round" stroke-linejoin="round"/>
<path opacity="0.32" d="M168.921 140.509C169.879 140.509 170.656 139.789 170.656 138.902C170.656 138.014 169.879 137.294 168.921 137.294C167.963 137.294 167.186 138.014 167.186 138.902C167.186 139.789 167.963 140.509 168.921 140.509Z" stroke="#1E223B" stroke-linecap="round" stroke-linejoin="round"/>
<path opacity="0.32" d="M177.487 139.226L174.693 138.533V138.54C174.677 138.315 174.646 138.092 174.599 137.871L174.602 137.877L177.107 136.538C177.306 136.431 177.45 136.255 177.51 136.049C177.569 135.843 177.537 135.624 177.421 135.44L176.409 133.816C176.352 133.725 176.277 133.645 176.186 133.581C176.096 133.516 175.993 133.469 175.883 133.442C175.773 133.414 175.658 133.407 175.545 133.421C175.432 133.435 175.323 133.469 175.224 133.522L172.72 134.861V134.865C172.538 134.718 172.347 134.582 172.147 134.458H172.15L172.899 131.87C172.959 131.664 172.927 131.445 172.812 131.26C172.697 131.076 172.508 130.941 172.286 130.886L170.33 130.4C170.108 130.345 169.871 130.374 169.672 130.481C169.472 130.587 169.327 130.763 169.267 130.968L168.519 133.556H168.523C168.282 133.571 168.043 133.6 167.807 133.643H167.81L166.364 131.324C166.249 131.139 166.06 131.004 165.838 130.949C165.615 130.894 165.378 130.923 165.179 131.029L163.426 131.967C163.227 132.073 163.081 132.249 163.022 132.455C162.962 132.661 162.993 132.88 163.108 133.064L164.554 135.384L164.56 135.381C164.401 135.55 164.253 135.729 164.118 135.915V135.909L161.324 135.215C161.214 135.188 161.099 135.181 160.986 135.195C160.873 135.209 160.764 135.243 160.666 135.296C160.567 135.348 160.481 135.419 160.411 135.502C160.342 135.586 160.291 135.682 160.262 135.784L159.737 137.595C159.678 137.801 159.709 138.02 159.824 138.205C159.939 138.389 160.128 138.524 160.351 138.579L163.144 139.272L163.147 139.262C163.164 139.489 163.196 139.715 163.244 139.938L163.237 139.929L160.733 141.268C160.634 141.321 160.547 141.391 160.478 141.475C160.409 141.558 160.358 141.654 160.328 141.756C160.299 141.858 160.291 141.964 160.306 142.069C160.321 142.173 160.358 142.274 160.415 142.366L161.428 143.989C161.484 144.08 161.56 144.161 161.651 144.225C161.741 144.289 161.844 144.336 161.954 144.364C162.064 144.391 162.179 144.398 162.292 144.384C162.405 144.37 162.514 144.336 162.613 144.283L165.117 142.944L165.11 142.932C165.296 143.083 165.493 143.223 165.698 143.35L165.684 143.347L164.936 145.934C164.906 146.036 164.899 146.143 164.914 146.247C164.928 146.352 164.965 146.453 165.022 146.544C165.079 146.636 165.155 146.716 165.246 146.78C165.336 146.844 165.439 146.891 165.549 146.919L167.505 147.404C167.727 147.459 167.964 147.43 168.163 147.324C168.362 147.217 168.508 147.042 168.567 146.836L169.319 144.248L169.305 144.245C169.551 144.23 169.797 144.2 170.039 144.155L170.026 144.162L171.472 146.482C171.587 146.666 171.776 146.801 171.999 146.856C172.221 146.912 172.458 146.883 172.657 146.776L174.41 145.839C174.61 145.732 174.755 145.557 174.814 145.351C174.874 145.145 174.843 144.926 174.728 144.741L173.282 142.421L173.271 142.427C173.433 142.256 173.583 142.075 173.72 141.886V141.896L176.513 142.59C176.735 142.645 176.972 142.616 177.171 142.509C177.371 142.403 177.516 142.227 177.576 142.021L178.1 140.21C178.16 140.004 178.128 139.785 178.013 139.601C177.898 139.416 177.709 139.281 177.487 139.226V139.226Z" stroke="#1E223B" stroke-linecap="round" stroke-linejoin="round"/>
</g>
<g class="appear" opacity="0.49">
<path opacity="0.49" d="M368.342 68.6777C373.873 68.6777 378.357 64.5247 378.357 59.4017C378.357 54.2787 373.873 50.1257 368.342 50.1257C362.81 50.1257 358.326 54.2787 358.326 59.4017C358.326 64.5247 362.81 68.6777 368.342 68.6777Z" fill="white"/>
<path opacity="0.49" d="M368.342 63.3772C370.712 63.3772 372.634 61.5974 372.634 59.4019C372.634 57.2063 370.712 55.4265 368.342 55.4265C365.971 55.4265 364.049 57.2063 364.049 59.4019C364.049 61.5974 365.971 63.3772 368.342 63.3772Z" fill="white"/>
<path opacity="0.49" d="M383.937 46.095L377.741 49.4078L377.75 49.4224C377.298 49.0564 376.821 48.7174 376.322 48.4072L376.339 48.4116L378.19 42.0113C378.338 41.5021 378.26 40.9597 377.976 40.5032C377.691 40.0468 377.223 39.7137 376.673 39.5772L371.836 38.3769C371.564 38.3093 371.28 38.292 371 38.3261C370.721 38.3601 370.451 38.4448 370.207 38.5753C369.963 38.7058 369.749 38.8795 369.578 39.0866C369.406 39.2937 369.28 39.53 369.207 39.7822L367.356 46.182L367.366 46.1849C366.772 46.2222 366.18 46.294 365.596 46.4001L365.603 46.3957L362.027 40.658C361.742 40.2013 361.273 39.868 360.724 39.7314C360.174 39.5947 359.588 39.6659 359.095 39.9293L354.758 42.2483C354.514 42.3788 354.3 42.5525 354.128 42.7595C353.956 42.9666 353.83 43.2029 353.757 43.4551C353.684 43.7072 353.665 43.9702 353.702 44.2291C353.739 44.4879 353.83 44.7376 353.971 44.9637L357.548 50.7014L357.556 50.697C357.164 51.1127 356.801 51.5507 356.469 52.0086V51.9993L349.559 50.2842C349.009 50.1478 348.424 50.2193 347.931 50.4829C347.438 50.7465 347.078 51.1807 346.931 51.6899L345.635 56.17C345.487 56.6792 345.565 57.2217 345.849 57.6782C346.134 58.1347 346.603 58.4678 347.152 58.6041L354.062 60.3189L354.067 60.3038C354.107 60.8584 354.186 61.41 354.302 61.9554L354.293 61.9408L348.098 65.2536C347.853 65.384 347.639 65.5577 347.468 65.7647C347.296 65.9717 347.17 66.208 347.097 66.4601C347.024 66.7122 347.005 66.9752 347.042 67.234C347.079 67.4928 347.17 67.7424 347.311 67.9685L349.815 71.9852C350.099 72.4419 350.568 72.7752 351.118 72.9118C351.667 73.0484 352.253 72.9772 352.746 72.7138L358.942 69.401L358.928 69.3786C359.386 69.7491 359.869 70.0919 360.374 70.405L360.344 70.3973L358.493 76.7976C358.42 77.0497 358.401 77.3126 358.438 77.5714C358.475 77.8301 358.566 78.0797 358.707 78.3057C358.848 78.5317 359.035 78.7299 359.259 78.8887C359.483 79.0476 359.738 79.1641 360.01 79.2317L364.847 80.432C365.119 80.4996 365.403 80.5168 365.683 80.4828C365.962 80.4487 366.232 80.364 366.476 80.2336C366.72 80.1031 366.934 79.9293 367.105 79.7222C367.277 79.5152 367.403 79.2788 367.476 79.0267L369.327 72.6269L369.291 72.6176C369.902 72.5804 370.51 72.5064 371.111 72.3961L371.079 72.4131L374.656 78.1509C374.797 78.377 374.985 78.5753 375.208 78.7343C375.432 78.8933 375.687 79.01 375.959 79.0777C376.232 79.1453 376.516 79.1626 376.795 79.1286C377.075 79.0946 377.344 79.01 377.588 78.8795L381.925 76.5605C382.169 76.4301 382.383 76.2565 382.555 76.0494C382.726 75.8423 382.852 75.606 382.925 75.3538C382.999 75.1016 383.017 74.8386 382.98 74.5797C382.944 74.3209 382.852 74.0713 382.711 73.8452L379.134 68.1074L379.103 68.1244C379.506 67.6974 379.879 67.2466 380.22 66.775L380.211 66.8085L387.121 68.5237C387.67 68.6601 388.256 68.5886 388.749 68.325C389.242 68.0613 389.602 67.6272 389.749 67.118L391.045 62.6383C391.192 62.1291 391.115 61.5865 390.831 61.1299C390.546 60.6734 390.077 60.3402 389.527 60.2037L382.617 58.489L382.61 58.5167C382.569 57.9549 382.49 57.3961 382.373 56.8438L382.387 56.8656L388.582 53.5528C388.826 53.4224 389.041 53.2488 389.212 53.0417C389.384 52.8347 389.51 52.5984 389.583 52.3463C389.656 52.0942 389.675 51.8312 389.638 51.5724C389.601 51.3136 389.51 51.064 389.369 50.8379L386.871 46.8227C386.73 46.5963 386.542 46.3979 386.318 46.2388C386.095 46.0797 385.839 45.963 385.567 45.8955C385.294 45.8279 385.01 45.8107 384.73 45.845C384.45 45.8792 384.181 45.9642 383.937 46.095Z" fill="white"/>
</g>
<!-- second wheel -->
<g class="appear">
<path d="M368.345 68.6775C373.877 68.6775 378.361 64.5245 378.361 59.4016C378.361 54.2787 373.877 50.1257 368.345 50.1257C362.814 50.1257 358.33 54.2787 358.33 59.4016C358.33 64.5245 362.814 68.6775 368.345 68.6775Z" stroke="#1E223B" stroke-width="2" stroke-linecap="round" stroke-linejoin="round"/>
<path d="M368.346 63.377C370.716 63.377 372.638 61.5971 372.638 59.4016C372.638 57.2061 370.716 55.4263 368.346 55.4263C365.975 55.4263 364.053 57.2061 364.053 59.4016C364.053 61.5971 365.975 63.377 368.346 63.377Z" stroke="#1E223B" stroke-width="2" stroke-linecap="round" stroke-linejoin="round"/>
<path d="M389.532 60.2052L382.622 58.4905L382.617 58.5066C382.577 57.952 382.498 57.4004 382.383 56.855L382.391 56.8686L388.587 53.5557C388.831 53.4254 389.045 53.2517 389.217 53.0447C389.388 52.8377 389.514 52.6014 389.587 52.3492C389.66 52.0971 389.679 51.8342 389.642 51.5753C389.606 51.3165 389.514 51.0669 389.373 50.8409L386.871 46.8227C386.587 46.366 386.118 46.0327 385.568 45.8961C385.018 45.7594 384.432 45.8306 383.939 46.094L377.744 49.4069L377.749 49.4156C377.3 49.0524 376.827 48.7159 376.333 48.4082H376.342L378.193 42.0079C378.34 41.4987 378.263 40.9562 377.978 40.4997C377.694 40.0432 377.225 39.7101 376.675 39.5738L371.839 38.3735C371.566 38.3059 371.282 38.2886 371.003 38.3226C370.724 38.3567 370.454 38.4414 370.21 38.5719C369.966 38.7024 369.752 38.8761 369.58 39.0832C369.409 39.2903 369.283 39.5266 369.21 39.7787L367.359 46.1786H367.367C366.773 46.2162 366.182 46.2884 365.597 46.3947L365.606 46.3899L362.029 40.6521C361.745 40.1955 361.276 39.8622 360.726 39.7255C360.177 39.5889 359.591 39.6601 359.097 39.9235L354.761 42.2425C354.516 42.3729 354.302 42.5466 354.131 42.7537C353.959 42.9607 353.833 43.1971 353.76 43.4492C353.687 43.7014 353.668 43.9644 353.705 44.2233C353.742 44.4821 353.833 44.7317 353.974 44.9579L357.551 50.6956L357.566 50.6878C357.171 51.1069 356.805 51.5487 356.47 52.0106L356.475 51.9945L349.565 50.2793C349.015 50.143 348.429 50.2145 347.936 50.4781C347.443 50.7417 347.083 51.1759 346.936 51.6851L345.64 56.1647C345.493 56.6739 345.57 57.2164 345.854 57.673C346.139 58.1295 346.608 58.4627 347.157 58.5993L354.068 60.3141L354.075 60.2898C354.116 60.8514 354.196 61.41 354.314 61.9622L354.299 61.9375L348.103 65.2503C347.859 65.3807 347.645 65.5543 347.473 65.7614C347.301 65.9684 347.175 66.2047 347.102 66.4568C347.029 66.7089 347.011 66.9719 347.047 67.2307C347.084 67.4895 347.175 67.7391 347.316 67.9652L349.82 71.9819C350.105 72.4386 350.573 72.7719 351.123 72.9085C351.673 73.0451 352.259 72.9739 352.752 72.7105L358.947 69.3977L358.929 69.3676C359.389 69.7414 359.876 70.0872 360.385 70.4027L360.349 70.394L358.498 76.7938C358.425 77.0459 358.406 77.3089 358.443 77.5677C358.48 77.8265 358.571 78.0761 358.712 78.3021C358.853 78.5282 359.041 78.7264 359.264 78.8853C359.488 79.0442 359.743 79.1608 360.015 79.2284L364.853 80.4287C365.125 80.4963 365.409 80.5137 365.688 80.4796C365.968 80.4456 366.237 80.3609 366.481 80.2304C366.725 80.0999 366.939 79.9261 367.111 79.719C367.282 79.5119 367.408 79.2756 367.481 79.0234L369.333 72.6236L369.297 72.6148C369.908 72.5771 370.516 72.5028 371.117 72.3924L371.085 72.4098L374.662 78.1476C374.803 78.3738 374.99 78.5721 375.214 78.7312C375.437 78.8902 375.692 79.0069 375.965 79.0746C376.237 79.1423 376.521 79.1596 376.8 79.1255C377.08 79.0915 377.35 79.0068 377.594 78.8762L381.93 76.5572C382.174 76.4268 382.388 76.2532 382.56 76.0461C382.732 75.8391 382.858 75.6027 382.931 75.3505C383.004 75.0984 383.023 74.8353 382.986 74.5765C382.949 74.3176 382.858 74.068 382.717 73.8419L379.14 68.1041L379.113 68.1187C379.514 67.6951 379.884 67.2481 380.223 66.7804L380.216 66.8052L387.126 68.5204C387.676 68.6568 388.262 68.5853 388.755 68.3216C389.248 68.058 389.607 67.6239 389.755 67.1146L391.051 62.635C391.196 62.1263 391.118 61.5848 390.833 61.1294C390.549 60.6739 390.081 60.3416 389.532 60.2052V60.2052Z" stroke="#1E223B" stroke-width="2" stroke-linecap="round" stroke-linejoin="round"/>
</g>
<!-- message -->
<g class="appear">
<path d="M240.002 60.2077H226.261L211.922 69.0615V60.2077H201.765C200.497 60.2077 199.282 59.7413 198.385 58.9111C197.489 58.081 196.985 56.955 196.985 55.781V31.4335C196.985 30.2595 197.489 29.1335 198.385 28.3034C199.282 27.4732 200.497 27.0068 201.765 27.0068H240.002C240.63 27.0068 241.252 27.1212 241.832 27.3437C242.411 27.5661 242.938 27.8922 243.382 28.3032C243.826 28.7143 244.178 29.2023 244.418 29.7394C244.659 30.2765 244.782 30.8522 244.782 31.4335V55.781C244.782 56.3624 244.659 56.938 244.418 57.4751C244.178 58.0122 243.826 58.5002 243.382 58.9113C242.938 59.3224 242.411 59.6484 241.832 59.8708C241.252 60.0933 240.63 60.2077 240.002 60.2077Z" fill="white"/>
<path d="M240.002 60.2077H226.261L211.922 69.0615V60.2077H201.765C200.497 60.2077 199.282 59.7413 198.385 58.9111C197.489 58.081 196.985 56.955 196.985 55.781V31.4335C196.985 30.2595 197.489 29.1335 198.385 28.3034C199.282 27.4732 200.497 27.0068 201.765 27.0068H240.002C240.63 27.0068 241.252 27.1212 241.832 27.3437C242.411 27.5661 242.938 27.8922 243.382 28.3032C243.826 28.7143 244.178 29.2023 244.418 29.7394C244.659 30.2765 244.782 30.8522 244.782 31.4335V55.781C244.782 56.3624 244.659 56.938 244.418 57.4751C244.178 58.0122 243.826 58.5002 243.382 58.9113C242.938 59.3224 242.411 59.6484 241.832 59.8708C241.252 60.0933 240.63 60.2077 240.002 60.2077V60.2077Z" stroke="#1E223B" stroke-width="2" stroke-linecap="round" stroke-linejoin="round"/>
<path opacity="0.5" d="M240.49 22.4981H249.388L258.671 28.23V22.4981H265.245C266.066 22.4981 266.853 22.1961 267.433 21.6586C268.013 21.1212 268.339 20.3922 268.339 19.6321V3.86596C268.339 3.10586 268.013 2.37689 267.433 1.83942C266.853 1.30195 266.066 1 265.245 1H240.49C239.669 1 238.882 1.30195 238.302 1.83942C237.722 2.37689 237.396 3.10586 237.396 3.86596V19.6311C237.395 20.0076 237.475 20.3804 237.631 20.7282C237.786 21.076 238.014 21.3921 238.301 21.6583C238.589 21.9245 238.93 22.1357 239.305 22.2798C239.681 22.4239 240.083 22.4981 240.49 22.4981Z" fill="white"/>
<path d="M240.49 22.4981H249.388L258.671 28.23V22.4981H265.245C266.066 22.4981 266.853 22.1961 267.433 21.6586C268.013 21.1212 268.339 20.3922 268.339 19.6321V3.86596C268.339 3.10586 268.013 2.37689 267.433 1.83942C266.853 1.30195 266.066 1 265.245 1H240.49C239.669 1 238.882 1.30195 238.302 1.83942C237.722 2.37689 237.396 3.10586 237.396 3.86596V19.6311C237.395 20.0076 237.475 20.3804 237.631 20.7282C237.786 21.076 238.014 21.3921 238.301 21.6583C238.589 21.9245 238.93 22.1357 239.305 22.2798C239.681 22.4239 240.083 22.4981 240.49 22.4981V22.4981Z" stroke="#1E223B" stroke-width="2" stroke-linecap="round" stroke-linejoin="round"/>
</g>
<path d="M261.12 330.73C260.936 330.73 260.757 330.78 260.605 330.874C260.452 330.968 260.333 331.102 260.263 331.259C260.193 331.416 260.174 331.588 260.21 331.755C260.246 331.921 260.334 332.074 260.463 332.195C260.592 332.315 260.757 332.397 260.937 332.43C261.117 332.463 261.303 332.446 261.473 332.382C261.642 332.317 261.787 332.207 261.889 332.066C261.991 331.925 262.046 331.759 262.046 331.59C262.046 331.477 262.022 331.365 261.976 331.261C261.929 331.157 261.861 331.062 261.775 330.982C261.689 330.902 261.587 330.839 261.474 330.796C261.362 330.752 261.241 330.73 261.12 330.73ZM267.735 334.63C267.577 334.715 267.449 334.841 267.368 334.993C267.287 335.146 267.256 335.317 267.28 335.485C267.304 335.653 267.381 335.811 267.502 335.939C267.622 336.066 267.781 336.158 267.958 336.202C268.135 336.246 268.322 336.24 268.496 336.186C268.669 336.131 268.821 336.03 268.933 335.895C269.044 335.761 269.11 335.599 269.122 335.429C269.134 335.26 269.092 335.091 269 334.944C268.877 334.748 268.675 334.604 268.438 334.546C268.201 334.487 267.948 334.518 267.735 334.632V334.63ZM263.133 331.588C263.132 331.186 263.237 330.789 263.437 330.432C263.637 330.075 263.928 329.768 264.283 329.537L263.606 328.486C262.782 328.995 262.19 329.766 261.942 330.654C262.091 330.767 262.212 330.909 262.295 331.071C262.378 331.232 262.421 331.409 262.421 331.588C262.421 331.767 262.378 331.944 262.295 332.105C262.212 332.267 262.091 332.409 261.942 332.522C262.19 333.41 262.782 334.181 263.606 334.69L264.283 333.639C263.928 333.408 263.638 333.101 263.437 332.744C263.237 332.388 263.132 331.991 263.133 331.589V331.588ZM265.839 329.081C266.515 329.081 267.166 329.316 267.665 329.738C268.164 330.161 268.474 330.741 268.534 331.364L269.855 331.346C269.792 330.431 269.366 329.57 268.659 328.928C268.479 328.991 268.285 329.017 268.093 329.002C267.901 328.988 267.714 328.934 267.547 328.844C267.38 328.755 267.237 328.632 267.127 328.485C267.018 328.338 266.945 328.171 266.914 327.994C265.96 327.749 264.942 327.838 264.055 328.245L264.699 329.314C265.056 329.161 265.445 329.082 265.839 329.083V329.081ZM265.839 334.095C265.445 334.095 265.056 334.015 264.699 333.862L264.055 334.93C264.942 335.336 265.96 335.425 266.914 335.18C266.945 335.004 267.018 334.836 267.127 334.689C267.237 334.542 267.38 334.42 267.547 334.33C267.714 334.241 267.901 334.187 268.093 334.173C268.285 334.158 268.479 334.183 268.659 334.246C269.366 333.604 269.792 332.743 269.855 331.828L268.534 331.81C268.475 332.434 268.165 333.015 267.666 333.438C267.167 333.862 266.515 334.096 265.839 334.096V334.095ZM267.735 328.546C267.894 328.631 268.076 328.67 268.259 328.659C268.442 328.648 268.617 328.587 268.762 328.483C268.907 328.38 269.016 328.239 269.075 328.078C269.134 327.918 269.14 327.745 269.093 327.581C269.045 327.417 268.946 327.27 268.809 327.158C268.671 327.046 268.501 326.975 268.319 326.952C268.137 326.93 267.953 326.958 267.788 327.034C267.624 327.109 267.488 327.227 267.396 327.374C267.335 327.472 267.295 327.579 267.279 327.691C267.263 327.803 267.271 327.917 267.303 328.026C267.334 328.135 267.389 328.237 267.463 328.327C267.537 328.416 267.63 328.491 267.735 328.547V328.546Z" fill="white"/>
<!-- colored cube -->
<g class="appear">
<path d="M33.1814 273.682L47.8966 265.762L47.8515 280.579L33.1357 288.499L33.1814 273.682Z" fill="#777BB4"/>
<path d="M33.1814 273.682L47.8966 265.762L47.8515 280.579L33.1357 288.499L33.1814 273.682Z" stroke="#1E223B" stroke-width="2" stroke-linecap="round" stroke-linejoin="round"/>
<path opacity="0.88" d="M19.2593 266.237L33.9745 258.317L47.8967 265.761L33.1815 273.682L19.2593 266.237Z" fill="#FF5855" stroke="#1E223B" stroke-miterlimit="10"/>
<path d="M33.1817 273.682L33.1361 288.499L19.2139 281.054L19.2595 266.237L33.1817 273.682Z" fill="#0270BB"/>
<path d="M19.2593 266.237L33.9745 258.317L47.8967 265.761L33.1815 273.682L19.2593 266.237Z" stroke="#1E223B" stroke-width="2" stroke-linecap="round" stroke-linejoin="round"/>
<path d="M33.1817 273.682L33.1361 288.499L19.2139 281.054L19.2595 266.237L33.1817 273.682Z" stroke="#1E223B" stroke-width="2" stroke-linecap="round" stroke-linejoin="round"/>
<path opacity="0.59" d="M22.3842 252.784C24.1221 252.784 25.531 251.48 25.531 249.87C25.531 248.26 24.1221 246.955 22.3842 246.955C20.6462 246.955 19.2373 248.26 19.2373 249.87C19.2373 251.48 20.6462 252.784 22.3842 252.784Z" fill="white"/>
<path d="M22.3842 252.784C24.1221 252.784 25.531 251.48 25.531 249.87C25.531 248.26 24.1221 246.955 22.3842 246.955C20.6462 246.955 19.2373 248.26 19.2373 249.87C19.2373 251.48 20.6462 252.784 22.3842 252.784Z" stroke="#1E223B" stroke-width="2" stroke-linecap="round" stroke-linejoin="round"/>
<path opacity="0.59" d="M33.1361 252.784C34.8741 252.784 36.283 251.48 36.283 249.87C36.283 248.26 34.8741 246.955 33.1361 246.955C31.3982 246.955 29.9893 248.26 29.9893 249.87C29.9893 251.48 31.3982 252.784 33.1361 252.784Z" fill="white"/>
<path d="M33.1361 252.784C34.8741 252.784 36.283 251.48 36.283 249.87C36.283 248.26 34.8741 246.955 33.1361 246.955C31.3982 246.955 29.9893 248.26 29.9893 249.87C29.9893 251.48 31.3982 252.784 33.1361 252.784Z" stroke="#1E223B" stroke-width="2" stroke-linecap="round" stroke-linejoin="round"/>
<path opacity="0.59" d="M43.8876 252.784C45.6255 252.784 47.0344 251.48 47.0344 249.87C47.0344 248.26 45.6255 246.955 43.8876 246.955C42.1496 246.955 40.7407 248.26 40.7407 249.87C40.7407 251.48 42.1496 252.784 43.8876 252.784Z" fill="white"/>
<path opacity="0.32" d="M402.475 209.432C413.916 209.432 423.191 200.842 423.191 190.245C423.191 179.648 413.916 171.058 402.475 171.058C391.033 171.058 381.758 179.648 381.758 190.245C381.758 200.842 391.033 209.432 402.475 209.432Z" fill="white"/>
<path d="M43.8876 252.784C45.6255 252.784 47.0344 251.48 47.0344 249.87C47.0344 248.26 45.6255 246.955 43.8876 246.955C42.1496 246.955 40.7407 248.26 40.7407 249.87C40.7407 251.48 42.1496 252.784 43.8876 252.784Z" stroke="#1E223B" stroke-width="2" stroke-linecap="round" stroke-linejoin="round"/>
</g>
<!-- small cube -->
<g class="appear">
<path opacity="0.12" d="M402.759 190.453L391.567 184.429L391.601 195.698L402.793 201.721L402.759 190.453Z" fill="#0270BB"/>
<path d="M402.759 190.453L391.567 184.429L391.601 195.698L402.793 201.721L402.759 190.453Z" stroke="#1E223B" stroke-width="2" stroke-linecap="round" stroke-linejoin="round"/>
<path opacity="0.47" d="M413.347 184.792L402.156 178.768L391.567 184.43L402.759 190.453L413.347 184.792Z" fill="#0270BB"/>
<path d="M413.347 184.792L402.156 178.768L391.567 184.43L402.759 190.453L413.347 184.792Z" stroke="#1E223B" stroke-width="2" stroke-linecap="round" stroke-linejoin="round"/>
<path d="M402.759 190.453L402.793 201.721L413.381 196.06L413.347 184.792L402.759 190.453Z" fill="white" stroke="#1E223B" stroke-width="2" stroke-linecap="round" stroke-linejoin="round"/>
<path d="M402.759 190.453L402.793 201.721L413.381 196.06L413.347 184.792L402.759 190.453Z" stroke="#1E223B" stroke-width="2" stroke-linecap="round" stroke-linejoin="round"/>

<path d="M402.475 209.432C413.916 209.432 423.191 200.842 423.191 190.245C423.191 179.648 413.916 171.058 402.475 171.058C391.033 171.058 381.758 179.648 381.758 190.245C381.758 200.842 391.033 209.432 402.475 209.432Z" stroke="#1E223B" stroke-width="2" stroke-linecap="round" stroke-linejoin="round"/>
<!-- JS CSS -->
<path d="M351.456 70.5007H304.475C301.031 70.5007 298.239 73.0863 298.239 76.2758V93.6001C298.239 96.7896 301.031 99.3752 304.475 99.3752H351.456C354.9 99.3752 357.692 96.7896 357.692 93.6001V76.2758C357.692 73.0863 354.9 70.5007 351.456 70.5007Z" fill="#777BB4"/>
<path d="M351.456 70.5007H304.475C301.031 70.5007 298.239 73.0863 298.239 76.2758V93.6001C298.239 96.7896 301.031 99.3752 304.475 99.3752H351.456C354.9 99.3752 357.692 96.7896 357.692 93.6001V76.2758C357.692 73.0863 354.9 70.5007 351.456 70.5007Z" stroke="#1E223B" stroke-width="2" stroke-linecap="round" stroke-linejoin="round"/>
<path d="M391.139 202.146H354.429C351.81 202.146 349.687 204.112 349.687 206.538V219.714C349.687 222.14 351.81 224.106 354.429 224.106H391.139C393.759 224.106 395.882 222.14 395.882 219.714V206.538C395.882 204.112 393.759 202.146 391.139 202.146Z" fill="#0270BB"/>
<path d="M391.139 202.146H354.429C351.81 202.146 349.687 204.112 349.687 206.538V219.714C349.687 222.14 351.81 224.106 354.429 224.106H391.139C393.759 224.106 395.882 222.14 395.882 219.714V206.538C395.882 204.112 393.759 202.146 391.139 202.146Z" stroke="#1E223B" stroke-width="2" stroke-linecap="round" stroke-linejoin="round"/>
<path d="M356.811 212.993C356.811 209.854 359.328 207.736 362.569 207.736C363.454 207.713 364.329 207.912 365.102 208.312C365.875 208.711 366.518 209.297 366.962 210.006L365.333 210.798C365.049 210.352 364.645 209.982 364.161 209.723C363.676 209.464 363.128 209.325 362.569 209.32C360.397 209.32 358.785 210.844 358.785 212.993C358.785 215.111 360.397 216.665 362.569 216.665C363.127 216.657 363.674 216.517 364.158 216.258C364.642 215.999 365.046 215.631 365.333 215.187L366.978 215.949C366.53 216.66 365.885 217.248 365.11 217.653C364.335 218.057 363.458 218.263 362.569 218.25C359.328 218.25 356.811 216.116 356.811 212.993Z" fill="white"/>
<path d="M369.033 216.634L370.119 215.248C370.56 215.694 371.096 216.05 371.694 216.294C372.292 216.538 372.937 216.664 373.59 216.665C375.17 216.665 375.779 215.949 375.779 215.263C375.779 213.129 369.395 214.456 369.395 210.723C369.395 209.031 370.974 207.736 373.393 207.736C374.144 207.711 374.893 207.826 375.597 208.071C376.3 208.317 376.943 208.69 377.49 209.168L376.404 210.493C375.981 210.113 375.482 209.813 374.934 209.612C374.386 209.411 373.801 209.311 373.212 209.32C372.093 209.32 371.369 209.838 371.369 210.583C371.369 212.488 377.753 211.315 377.753 215.094C377.753 216.785 376.453 218.248 373.508 218.248C372.682 218.279 371.859 218.152 371.088 217.874C370.318 217.596 369.618 217.174 369.033 216.634Z" fill="white"/>
<path d="M380.038 216.634L381.124 215.248C381.565 215.694 382.102 216.05 382.699 216.294C383.297 216.538 383.943 216.664 384.596 216.665C386.175 216.665 386.784 215.949 386.784 215.263C386.784 213.129 380.4 214.456 380.4 210.723C380.4 209.031 381.98 207.736 384.399 207.736C385.15 207.711 385.899 207.826 386.602 208.071C387.305 208.317 387.949 208.69 388.495 209.168L387.409 210.493C386.987 210.113 386.487 209.813 385.939 209.612C385.392 209.411 384.806 209.311 384.217 209.32C383.098 209.32 382.375 209.838 382.375 210.583C382.375 212.488 388.758 211.315 388.758 215.094C388.758 216.785 387.458 218.248 384.513 218.248C383.688 218.279 382.864 218.152 382.094 217.874C381.324 217.596 380.624 217.174 380.038 216.634Z" fill="white"/>
</g>
<!-- window lines -->
<g class="zoom">
<path opacity="0.32" d="M180.752 137.175H230.053" stroke="#1E223B" stroke-width="2" stroke-linecap="round" stroke-linejoin="round"/>
<path opacity="0.32" d="M180.752 141.061H212.22" stroke="#1E223B" stroke-width="2" stroke-linecap="round" stroke-linejoin="round"/>
<path opacity="0.15" d="M166.067 160.005H215.368" stroke="#1E223B" stroke-width="2" stroke-linecap="round" stroke-linejoin="round"/>
<path opacity="0.32" d="M166.067 164.215H197.535" stroke="#1E223B" stroke-width="2" stroke-linecap="round" stroke-linejoin="round"/>
<path opacity="0.32" d="M191.242 168.425H209.598" stroke="#1E223B" stroke-width="2" stroke-linecap="round" stroke-linejoin="round"/>
<path opacity="0.26" d="M166.067 168.425H188.095" stroke="#1E223B" stroke-width="2" stroke-linecap="round" stroke-linejoin="round"/>
<path opacity="0.15" d="M166.067 172.635H184.948" stroke="#1E223B" stroke-width="2" stroke-linecap="round" stroke-linejoin="round"/>
<path d="M168.165 180.569C167.608 180.569 167.075 180.774 166.681 181.138C166.288 181.503 166.067 181.997 166.067 182.512C166.067 183.028 166.288 183.522 166.681 183.886C167.075 184.251 167.608 184.455 168.165 184.455H210.473V180.569H168.165Z" fill="#4AD3A5" stroke="#1E223B" stroke-miterlimit="10"/>
<path d="M234.249 180.569H168.165C167.006 180.569 166.067 181.439 166.067 182.512C166.067 183.585 167.006 184.455 168.165 184.455H234.249C235.407 184.455 236.347 183.585 236.347 182.512C236.347 181.439 235.407 180.569 234.249 180.569Z" stroke="#1E223B" stroke-linecap="round" stroke-linejoin="round"/>
</g>
<path d="M271.356 231.411H127.912C127.26 231.411 126.731 231.9 126.731 232.504V236.633C126.731 237.237 127.26 237.726 127.912 237.726H271.356C272.007 237.726 272.536 237.237 272.536 236.633V232.504C272.536 231.9 272.007 231.411 271.356 231.411Z" fill="#263C72"/>
<path d="M272.536 231.411H126.731V237.726H272.536V231.411Z" stroke="#1E223B" stroke-width="2" stroke-linecap="round" stroke-linejoin="round"/>
<path d="M270.962 246.955H262.57C261.702 246.955 260.997 247.608 260.997 248.413V251.327C260.997 252.132 261.702 252.784 262.57 252.784H270.962C271.831 252.784 272.536 252.132 272.536 251.327V248.413C272.536 247.608 271.831 246.955 270.962 246.955Z" fill="white"/>
<path d="M254.179 246.955H245.787C244.918 246.955 244.214 247.608 244.214 248.413V251.327C244.214 252.132 244.918 252.784 245.787 252.784H254.179C255.048 252.784 255.752 252.132 255.752 251.327V248.413C255.752 247.608 255.048 246.955 254.179 246.955Z" fill="white"/>
<path d="M237.396 246.955H229.004C228.135 246.955 227.431 247.608 227.431 248.413V251.327C227.431 252.132 228.135 252.784 229.004 252.784H237.396C238.265 252.784 238.969 252.132 238.969 251.327V248.413C238.969 247.608 238.265 246.955 237.396 246.955Z" fill="white"/>
<path d="M220.612 246.955H212.221C211.352 246.955 210.647 247.608 210.647 248.413V251.327C210.647 252.132 211.352 252.784 212.221 252.784H220.612C221.481 252.784 222.186 252.132 222.186 251.327V248.413C222.186 247.608 221.481 246.955 220.612 246.955Z" fill="white"/>
<path d="M203.829 246.955H195.438C194.569 246.955 193.864 247.608 193.864 248.413V251.327C193.864 252.132 194.569 252.784 195.438 252.784H203.829C204.698 252.784 205.403 252.132 205.403 251.327V248.413C205.403 247.608 204.698 246.955 203.829 246.955Z" fill="white"/>
<path d="M187.046 246.955H178.654C177.785 246.955 177.081 247.608 177.081 248.413V251.327C177.081 252.132 177.785 252.784 178.654 252.784H187.046C187.915 252.784 188.619 252.132 188.619 251.327V248.413C188.619 247.608 187.915 246.955 187.046 246.955Z" fill="white"/>
<path d="M170.263 246.955H161.871C161.002 246.955 160.298 247.608 160.298 248.413V251.327C160.298 252.132 161.002 252.784 161.871 252.784H170.263C171.132 252.784 171.836 252.132 171.836 251.327V248.413C171.836 247.608 171.132 246.955 170.263 246.955Z" fill="white"/>
<path d="M153.48 246.955H145.088C144.219 246.955 143.515 247.608 143.515 248.413V251.327C143.515 252.132 144.219 252.784 145.088 252.784H153.48C154.349 252.784 155.053 252.132 155.053 251.327V248.413C155.053 247.608 154.349 246.955 153.48 246.955Z" fill="white"/>
<path d="M136.696 246.955H128.305C127.436 246.955 126.731 247.608 126.731 248.413V251.327C126.731 252.132 127.436 252.784 128.305 252.784H136.696C137.565 252.784 138.27 252.132 138.27 251.327V248.413C138.27 247.608 137.565 246.955 136.696 246.955Z" fill="white"/>
<path d="M237.396 259.331H229.004C228.135 259.331 227.431 259.983 227.431 260.788V268.56C227.431 269.365 228.135 270.018 229.004 270.018H237.396C238.265 270.018 238.969 269.365 238.969 268.56V260.788C238.969 259.983 238.265 259.331 237.396 259.331Z" fill="white"/>
<path d="M220.612 259.331H212.221C211.352 259.331 210.647 259.983 210.647 260.788V268.56C210.647 269.365 211.352 270.018 212.221 270.018H220.612C221.481 270.018 222.186 269.365 222.186 268.56V260.788C222.186 259.983 221.481 259.331 220.612 259.331Z" fill="white"/>
<path d="M203.829 259.331H195.438C194.569 259.331 193.864 259.983 193.864 260.788V268.56C193.864 269.365 194.569 270.018 195.438 270.018H203.829C204.698 270.018 205.403 269.365 205.403 268.56V260.788C205.403 259.983 204.698 259.331 203.829 259.331Z" fill="white"/>
<path d="M187.046 259.331H178.654C177.785 259.331 177.081 259.983 177.081 260.788V268.56C177.081 269.365 177.785 270.018 178.654 270.018H187.046C187.915 270.018 188.619 269.365 188.619 268.56V260.788C188.619 259.983 187.915 259.331 187.046 259.331Z" fill="white"/>
<path d="M170.263 259.331H161.871C161.002 259.331 160.298 259.983 160.298 260.788V268.56C160.298 269.365 161.002 270.018 161.871 270.018H170.263C171.132 270.018 171.836 269.365 171.836 268.56V260.788C171.836 259.983 171.132 259.331 170.263 259.331Z" fill="white"/>
<path d="M153.48 259.331H145.088C144.219 259.331 143.515 259.983 143.515 260.788V268.56C143.515 269.365 144.219 270.018 145.088 270.018H153.48C154.349 270.018 155.053 269.365 155.053 268.56V260.788C155.053 259.983 154.349 259.331 153.48 259.331Z" fill="white"/>
<path d="M136.696 259.331H128.305C127.436 259.331 126.731 259.983 126.731 260.788V268.56C126.731 269.365 127.436 270.018 128.305 270.018H136.696C137.565 270.018 138.27 269.365 138.27 268.56V260.788C138.27 259.983 137.565 259.331 136.696 259.331Z" fill="white"/>
<path d="M270.962 259.331H262.57C261.702 259.331 260.997 259.983 260.997 260.788V283.867C260.997 284.672 261.702 285.325 262.57 285.325H270.962C271.831 285.325 272.536 284.672 272.536 283.867V260.788C272.536 259.983 271.831 259.331 270.962 259.331Z" fill="white"/>
<path d="M254.179 259.331H245.787C245.37 259.331 244.97 259.484 244.675 259.757C244.38 260.031 244.214 260.401 244.214 260.788V273.181C244.214 273.567 244.048 273.938 243.753 274.211C243.458 274.484 243.058 274.638 242.64 274.638H229.004C228.587 274.638 228.187 274.791 227.892 275.065C227.596 275.338 227.431 275.709 227.431 276.095V283.867C227.431 284.254 227.596 284.625 227.892 284.898C228.187 285.171 228.587 285.325 229.004 285.325H254.179C254.596 285.325 254.996 285.171 255.291 284.898C255.587 284.625 255.752 284.254 255.752 283.867V260.788C255.752 260.401 255.587 260.031 255.291 259.757C254.996 259.484 254.596 259.331 254.179 259.331Z" fill="white"/>
<path d="M220.612 274.638H212.221C211.352 274.638 210.647 275.29 210.647 276.095V283.867C210.647 284.672 211.352 285.324 212.221 285.324H220.612C221.481 285.324 222.186 284.672 222.186 283.867V276.095C222.186 275.29 221.481 274.638 220.612 274.638Z" fill="white"/>
<path d="M203.829 274.638H195.438C194.569 274.638 193.864 275.29 193.864 276.095V283.867C193.864 284.672 194.569 285.324 195.438 285.324H203.829C204.698 285.324 205.403 284.672 205.403 283.867V276.095C205.403 275.29 204.698 274.638 203.829 274.638Z" fill="white"/>
<path d="M187.046 274.638H178.654C177.785 274.638 177.081 275.29 177.081 276.095V283.867C177.081 284.672 177.785 285.324 178.654 285.324H187.046C187.915 285.324 188.619 284.672 188.619 283.867V276.095C188.619 275.29 187.915 274.638 187.046 274.638Z" fill="white"/>
<path d="M170.263 274.638H161.871C161.002 274.638 160.298 275.29 160.298 276.095V283.867C160.298 284.672 161.002 285.324 161.871 285.324H170.263C171.132 285.324 171.836 284.672 171.836 283.867V276.095C171.836 275.29 171.132 274.638 170.263 274.638Z" fill="white"/>
<path d="M153.48 274.638H128.305C127.436 274.638 126.731 275.29 126.731 276.095V283.867C126.731 284.672 127.436 285.324 128.305 285.324H153.48C154.349 285.324 155.053 284.672 155.053 283.867V276.095C155.053 275.29 154.349 274.638 153.48 274.638Z" fill="white"/>
<path d="M270.962 289.945H262.57C261.702 289.945 260.997 290.597 260.997 291.402V299.174C260.997 299.979 261.702 300.631 262.57 300.631H270.962C271.831 300.631 272.536 299.979 272.536 299.174V291.402C272.536 290.597 271.831 289.945 270.962 289.945Z" fill="white"/>
<path d="M254.179 289.945H245.787C244.918 289.945 244.214 290.597 244.214 291.402V299.174C244.214 299.979 244.918 300.631 245.787 300.631H254.179C255.048 300.631 255.752 299.979 255.752 299.174V291.402C255.752 290.597 255.048 289.945 254.179 289.945Z" fill="white"/>
<path d="M237.396 289.945H229.004C228.135 289.945 227.431 290.597 227.431 291.402V299.174C227.431 299.979 228.135 300.631 229.004 300.631H237.396C238.265 300.631 238.969 299.979 238.969 299.174V291.402C238.969 290.597 238.265 289.945 237.396 289.945Z" fill="white"/>
<path d="M220.612 289.945H178.654C177.786 289.945 177.081 290.597 177.081 291.402V299.174C177.081 299.979 177.786 300.631 178.654 300.631H220.612C221.481 300.631 222.186 299.979 222.186 299.174V291.402C222.186 290.597 221.481 289.945 220.612 289.945Z" fill="white"/>
<path d="M170.263 289.945H161.871C161.002 289.945 160.298 290.597 160.298 291.402V299.174C160.298 299.979 161.002 300.631 161.871 300.631H170.263C171.132 300.631 171.836 299.979 171.836 299.174V291.402C171.836 290.597 171.132 289.945 170.263 289.945Z" fill="white"/>
<path d="M153.48 289.945H145.088C144.219 289.945 143.515 290.597 143.515 291.402V299.174C143.515 299.979 144.219 300.631 145.088 300.631H153.48C154.349 300.631 155.053 299.979 155.053 299.174V291.402C155.053 290.597 154.349 289.945 153.48 289.945Z" fill="white"/>
<path d="M136.696 289.945H128.305C127.436 289.945 126.731 290.597 126.731 291.402V299.174C126.731 299.979 127.436 300.631 128.305 300.631H136.696C137.565 300.631 138.27 299.979 138.27 299.174V291.402C138.27 290.597 137.565 289.945 136.696 289.945Z" fill="white"/>
<path d="M270.962 246.955H262.57C261.702 246.955 260.997 247.608 260.997 248.413V251.327C260.997 252.132 261.702 252.784 262.57 252.784H270.962C271.831 252.784 272.536 252.132 272.536 251.327V248.413C272.536 247.608 271.831 246.955 270.962 246.955Z" stroke="#1E223B" stroke-width="2" stroke-linecap="round" stroke-linejoin="round"/>
<path d="M254.179 246.955H245.787C244.918 246.955 244.214 247.608 244.214 248.413V251.327C244.214 252.132 244.918 252.784 245.787 252.784H254.179C255.048 252.784 255.752 252.132 255.752 251.327V248.413C255.752 247.608 255.048 246.955 254.179 246.955Z" stroke="#1E223B" stroke-width="2" stroke-linecap="round" stroke-linejoin="round"/>
<path d="M237.396 246.955H229.004C228.135 246.955 227.431 247.608 227.431 248.413V251.327C227.431 252.132 228.135 252.784 229.004 252.784H237.396C238.265 252.784 238.969 252.132 238.969 251.327V248.413C238.969 247.608 238.265 246.955 237.396 246.955Z" stroke="#1E223B" stroke-width="2" stroke-linecap="round" stroke-linejoin="round"/>
<path d="M220.612 246.955H212.221C211.352 246.955 210.647 247.608 210.647 248.413V251.327C210.647 252.132 211.352 252.784 212.221 252.784H220.612C221.481 252.784 222.186 252.132 222.186 251.327V248.413C222.186 247.608 221.481 246.955 220.612 246.955Z" stroke="#1E223B" stroke-width="2" stroke-linecap="round" stroke-linejoin="round"/>
<path d="M203.829 246.955H195.438C194.569 246.955 193.864 247.608 193.864 248.413V251.327C193.864 252.132 194.569 252.784 195.438 252.784H203.829C204.698 252.784 205.403 252.132 205.403 251.327V248.413C205.403 247.608 204.698 246.955 203.829 246.955Z" stroke="#1E223B" stroke-width="2" stroke-linecap="round" stroke-linejoin="round"/>
<path d="M187.046 246.955H178.654C177.785 246.955 177.081 247.608 177.081 248.413V251.327C177.081 252.132 177.785 252.784 178.654 252.784H187.046C187.915 252.784 188.619 252.132 188.619 251.327V248.413C188.619 247.608 187.915 246.955 187.046 246.955Z" stroke="#1E223B" stroke-width="2" stroke-linecap="round" stroke-linejoin="round"/>
<path d="M170.263 246.955H161.871C161.002 246.955 160.298 247.608 160.298 248.413V251.327C160.298 252.132 161.002 252.784 161.871 252.784H170.263C171.132 252.784 171.836 252.132 171.836 251.327V248.413C171.836 247.608 171.132 246.955 170.263 246.955Z" stroke="#1E223B" stroke-width="2" stroke-linecap="round" stroke-linejoin="round"/>
<path d="M153.48 246.955H145.088C144.219 246.955 143.515 247.608 143.515 248.413V251.327C143.515 252.132 144.219 252.784 145.088 252.784H153.48C154.349 252.784 155.053 252.132 155.053 251.327V248.413C155.053 247.608 154.349 246.955 153.48 246.955Z" stroke="#1E223B" stroke-width="2" stroke-linecap="round" stroke-linejoin="round"/>
<path d="M136.696 246.955H128.305C127.436 246.955 126.731 247.608 126.731 248.413V251.327C126.731 252.132 127.436 252.784 128.305 252.784H136.696C137.565 252.784 138.27 252.132 138.27 251.327V248.413C138.27 247.608 137.565 246.955 136.696 246.955Z" stroke="#1E223B" stroke-width="2" stroke-linecap="round" stroke-linejoin="round"/>
<path d="M237.396 259.331H229.004C228.135 259.331 227.431 259.983 227.431 260.788V268.56C227.431 269.365 228.135 270.018 229.004 270.018H237.396C238.265 270.018 238.969 269.365 238.969 268.56V260.788C238.969 259.983 238.265 259.331 237.396 259.331Z" stroke="#1E223B" stroke-width="2" stroke-linecap="round" stroke-linejoin="round"/>
<path d="M220.612 259.331H212.221C211.352 259.331 210.647 259.983 210.647 260.788V268.56C210.647 269.365 211.352 270.018 212.221 270.018H220.612C221.481 270.018 222.186 269.365 222.186 268.56V260.788C222.186 259.983 221.481 259.331 220.612 259.331Z" stroke="#1E223B" stroke-width="2" stroke-linecap="round" stroke-linejoin="round"/>
<path d="M203.829 259.331H195.438C194.569 259.331 193.864 259.983 193.864 260.788V268.56C193.864 269.365 194.569 270.018 195.438 270.018H203.829C204.698 270.018 205.403 269.365 205.403 268.56V260.788C205.403 259.983 204.698 259.331 203.829 259.331Z" stroke="#1E223B" stroke-width="2" stroke-linecap="round" stroke-linejoin="round"/>
<path d="M187.046 259.331H178.654C177.785 259.331 177.081 259.983 177.081 260.788V268.56C177.081 269.365 177.785 270.018 178.654 270.018H187.046C187.915 270.018 188.619 269.365 188.619 268.56V260.788C188.619 259.983 187.915 259.331 187.046 259.331Z" stroke="#1E223B" stroke-width="2" stroke-linecap="round" stroke-linejoin="round"/>
<path d="M170.263 259.331H161.871C161.002 259.331 160.298 259.983 160.298 260.788V268.56C160.298 269.365 161.002 270.018 161.871 270.018H170.263C171.132 270.018 171.836 269.365 171.836 268.56V260.788C171.836 259.983 171.132 259.331 170.263 259.331Z" stroke="#1E223B" stroke-width="2" stroke-linecap="round" stroke-linejoin="round"/>
<path d="M153.48 259.331H145.088C144.219 259.331 143.515 259.983 143.515 260.788V268.56C143.515 269.365 144.219 270.018 145.088 270.018H153.48C154.349 270.018 155.053 269.365 155.053 268.56V260.788C155.053 259.983 154.349 259.331 153.48 259.331Z" stroke="#1E223B" stroke-width="2" stroke-linecap="round" stroke-linejoin="round"/>
<path d="M136.696 259.331H128.305C127.436 259.331 126.731 259.983 126.731 260.788V268.56C126.731 269.365 127.436 270.018 128.305 270.018H136.696C137.565 270.018 138.27 269.365 138.27 268.56V260.788C138.27 259.983 137.565 259.331 136.696 259.331Z" stroke="#1E223B" stroke-width="2" stroke-linecap="round" stroke-linejoin="round"/>
<path d="M270.962 259.331H262.57C261.702 259.331 260.997 259.983 260.997 260.788V283.867C260.997 284.672 261.702 285.325 262.57 285.325H270.962C271.831 285.325 272.536 284.672 272.536 283.867V260.788C272.536 259.983 271.831 259.331 270.962 259.331Z" stroke="#1E223B" stroke-width="2" stroke-linecap="round" stroke-linejoin="round"/>
<path d="M254.179 259.331H245.787C245.37 259.331 244.97 259.484 244.675 259.757C244.38 260.031 244.214 260.401 244.214 260.788V273.181C244.214 273.567 244.048 273.938 243.753 274.211C243.458 274.484 243.058 274.638 242.64 274.638H229.004C228.587 274.638 228.187 274.791 227.892 275.065C227.596 275.338 227.431 275.709 227.431 276.095V283.867C227.431 284.254 227.596 284.625 227.892 284.898C228.187 285.171 228.587 285.325 229.004 285.325H254.179C254.596 285.325 254.996 285.171 255.291 284.898C255.587 284.625 255.752 284.254 255.752 283.867V260.788C255.752 260.401 255.587 260.031 255.291 259.757C254.996 259.484 254.596 259.331 254.179 259.331Z" stroke="#1E223B" stroke-width="2" stroke-linecap="round" stroke-linejoin="round"/>
<path d="M220.612 274.638H212.221C211.352 274.638 210.647 275.29 210.647 276.095V283.867C210.647 284.672 211.352 285.324 212.221 285.324H220.612C221.481 285.324 222.186 284.672 222.186 283.867V276.095C222.186 275.29 221.481 274.638 220.612 274.638Z" stroke="#1E223B" stroke-width="2" stroke-linecap="round" stroke-linejoin="round"/>
<path d="M203.829 274.638H195.438C194.569 274.638 193.864 275.29 193.864 276.095V283.867C193.864 284.672 194.569 285.324 195.438 285.324H203.829C204.698 285.324 205.403 284.672 205.403 283.867V276.095C205.403 275.29 204.698 274.638 203.829 274.638Z" stroke="#1E223B" stroke-width="2" stroke-linecap="round" stroke-linejoin="round"/>
<path d="M187.046 274.638H178.654C177.785 274.638 177.081 275.29 177.081 276.095V283.867C177.081 284.672 177.785 285.324 178.654 285.324H187.046C187.915 285.324 188.619 284.672 188.619 283.867V276.095C188.619 275.29 187.915 274.638 187.046 274.638Z" stroke="#1E223B" stroke-width="2" stroke-linecap="round" stroke-linejoin="round"/>
<path d="M170.263 274.638H161.871C161.002 274.638 160.298 275.29 160.298 276.095V283.867C160.298 284.672 161.002 285.324 161.871 285.324H170.263C171.132 285.324 171.836 284.672 171.836 283.867V276.095C171.836 275.29 171.132 274.638 170.263 274.638Z" stroke="#1E223B" stroke-width="2" stroke-linecap="round" stroke-linejoin="round"/>
<path d="M153.48 274.638H128.305C127.436 274.638 126.731 275.29 126.731 276.095V283.867C126.731 284.672 127.436 285.324 128.305 285.324H153.48C154.349 285.324 155.053 284.672 155.053 283.867V276.095C155.053 275.29 154.349 274.638 153.48 274.638Z" stroke="#1E223B" stroke-width="2" stroke-linecap="round" stroke-linejoin="round"/>
<path d="M270.962 289.945H262.57C261.702 289.945 260.997 290.597 260.997 291.402V299.174C260.997 299.979 261.702 300.631 262.57 300.631H270.962C271.831 300.631 272.536 299.979 272.536 299.174V291.402C272.536 290.597 271.831 289.945 270.962 289.945Z" stroke="#1E223B" stroke-width="2" stroke-linecap="round" stroke-linejoin="round"/>
<path d="M254.179 289.945H245.787C244.918 289.945 244.214 290.597 244.214 291.402V299.174C244.214 299.979 244.918 300.631 245.787 300.631H254.179C255.048 300.631 255.752 299.979 255.752 299.174V291.402C255.752 290.597 255.048 289.945 254.179 289.945Z" stroke="#1E223B" stroke-width="2" stroke-linecap="round" stroke-linejoin="round"/>
<path d="M237.396 289.945H229.004C228.135 289.945 227.431 290.597 227.431 291.402V299.174C227.431 299.979 228.135 300.631 229.004 300.631H237.396C238.265 300.631 238.969 299.979 238.969 299.174V291.402C238.969 290.597 238.265 289.945 237.396 289.945Z" stroke="#1E223B" stroke-width="2" stroke-linecap="round" stroke-linejoin="round"/>
<path d="M220.612 289.945H178.654C177.786 289.945 177.081 290.597 177.081 291.402V299.174C177.081 299.979 177.786 300.631 178.654 300.631H220.612C221.481 300.631 222.186 299.979 222.186 299.174V291.402C222.186 290.597 221.481 289.945 220.612 289.945Z" stroke="#1E223B" stroke-width="2" stroke-linecap="round" stroke-linejoin="round"/>
<path d="M170.263 289.945H161.871C161.002 289.945 160.298 290.597 160.298 291.402V299.174C160.298 299.979 161.002 300.631 161.871 300.631H170.263C171.132 300.631 171.836 299.979 171.836 299.174V291.402C171.836 290.597 171.132 289.945 170.263 289.945Z" stroke="#1E223B" stroke-width="2" stroke-linecap="round" stroke-linejoin="round"/>
<path d="M153.48 289.945H145.088C144.219 289.945 143.515 290.597 143.515 291.402V299.174C143.515 299.979 144.219 300.631 145.088 300.631H153.48C154.349 300.631 155.053 299.979 155.053 299.174V291.402C155.053 290.597 154.349 289.945 153.48 289.945Z" stroke="#1E223B" stroke-width="2" stroke-linecap="round" stroke-linejoin="round"/>
<path d="M136.696 289.945H128.305C127.436 289.945 126.731 290.597 126.731 291.402V299.174C126.731 299.979 127.436 300.631 128.305 300.631H136.696C137.565 300.631 138.27 299.979 138.27 299.174V291.402C138.27 290.597 137.565 289.945 136.696 289.945Z" stroke="#1E223B" stroke-width="2" stroke-linecap="round" stroke-linejoin="round"/>
<!-- message lines -->
<g class="appear">
<path d="M207.238 36.7515H235.56" stroke="#1E223B" stroke-width="3" stroke-linecap="round" stroke-linejoin="round"/>
<path d="M207.238 43.3088H229.266" stroke="#1E223B" stroke-width="3" stroke-linecap="round" stroke-linejoin="round"/>
<path d="M207.238 49.8667H219.826" stroke="#1E223B" stroke-width="3" stroke-linecap="round" stroke-linejoin="round"/>
<path d="M245.112 9.30615H259.273" stroke="#1E223B" stroke-width="3" stroke-linecap="round" stroke-linejoin="round"/>
<path d="M245.112 12.7063H254.028" stroke="#1E223B" stroke-width="3" stroke-linecap="round" stroke-linejoin="round"/>
<path d="M244.782 43.8574H246.356" stroke="#1E223B" stroke-width="2" stroke-linecap="round" stroke-linejoin="round"/>
</g>
<path d="M250.519 43.8574H262.169C267.701 43.8574 273.005 45.8924 276.916 49.5148C280.827 53.1372 283.025 58.0501 283.025 63.1729V63.1729C283.025 65.7095 282.485 68.2212 281.437 70.5646C280.389 72.9081 278.853 75.0374 276.916 76.8311C274.98 78.6247 272.681 80.0474 270.15 81.0181C267.62 81.9888 264.908 82.4884 262.169 82.4884H227.783C224.706 82.4884 221.659 83.0496 218.817 84.14C215.974 85.2305 213.391 86.8288 211.216 88.8438C209.04 90.8587 207.314 93.2508 206.137 95.8835C204.96 98.5162 204.354 101.338 204.354 104.188V106.587" stroke="#1E223B" stroke-width="2" stroke-linecap="round" stroke-linejoin="round" stroke-dasharray="5.95 7.94"/>
<!-- window -->
<path class="zoom" d="M204.354 108.515V109.973" stroke="#1E223B" stroke-width="2" stroke-linecap="round" stroke-linejoin="round"/>
<path d="M49.5586 164.427H115.402" stroke="#1E223B" stroke-width="2" stroke-linecap="round" stroke-linejoin="round" stroke-dasharray="6 8"/>
<path d="M47.8696 274.638H61.6371C67.9123 274.638 73.9305 272.329 78.3677 268.22C82.805 264.11 85.2978 258.536 85.2978 252.724V243.498C85.2978 237.716 87.7778 232.17 92.1922 228.082C96.6066 223.993 102.594 221.696 108.837 221.696H116.242" stroke="#1E223B" stroke-width="2" stroke-linecap="round" stroke-linejoin="round"/>
<path d="M117.706 45.426H124.816C129.775 45.4262 134.531 47.2508 138.038 50.4987C141.544 53.7466 143.514 58.1515 143.514 62.7446V62.7446C143.514 65.0189 143.998 67.271 144.938 69.3721C145.878 71.4733 147.255 73.3824 148.991 74.9906C150.728 76.5987 152.789 77.8744 155.058 78.7447C157.327 79.6149 159.758 80.0628 162.214 80.0628H172.543C177.502 80.0629 182.258 81.8876 185.765 85.1355C189.272 88.3833 191.242 92.7883 191.242 97.3814V109.973" stroke="#1E223B" stroke-width="2" stroke-linecap="round" stroke-linejoin="round" stroke-dasharray="6 8"/>
<path d="M283.025 160.974H310.577C312.971 160.974 315.342 160.538 317.555 159.689C319.767 158.841 321.777 157.597 323.471 156.029C325.164 154.461 326.507 152.599 327.424 150.55C328.34 148.501 328.812 146.305 328.812 144.087V99.3757" stroke="#1E223B" stroke-width="2" stroke-linecap="round" stroke-linejoin="round"/>
<!-- circle -->
<path class="appear" d="M397.18 308.894C406.018 308.894 413.182 302.258 413.182 294.073C413.182 285.888 406.018 279.253 397.18 279.253C388.343 279.253 381.179 285.888 381.179 294.073C381.179 302.258 388.343 308.894 397.18 308.894Z" stroke="#1E223B" stroke-width="2" stroke-linecap="round" stroke-linejoin="round"/>
<path d="M283.025 190.453H381.757" stroke="#1E223B" stroke-width="2" stroke-linecap="round" stroke-linejoin="round" stroke-dasharray="6 8"/>
<!-- white circle -->
<g class="appear">
<path d="M382.608 319.703C392.859 319.703 401.168 312.007 401.168 302.514C401.168 293.02 392.859 285.324 382.608 285.324C372.358 285.324 364.049 293.02 364.049 302.514C364.049 312.007 372.358 319.703 382.608 319.703Z" fill="white"/>
<path d="M382.608 319.703C392.859 319.703 401.168 312.007 401.168 302.514C401.168 293.02 392.859 285.324 382.608 285.324C372.358 285.324 364.049 293.02 364.049 302.514C364.049 312.007 372.358 319.703 382.608 319.703Z" stroke="#1E223B" stroke-width="2" stroke-linecap="round" stroke-linejoin="round"/>
</g>
<path d="M364.049 302.514H283.025" stroke="#1E223B" stroke-width="2" stroke-linecap="round" stroke-linejoin="round" stroke-dasharray="6 8"/>
<!-- segment -->
<path class="appear" d="M374.68 318.059L382.609 302.514L400.956 305.122" stroke="#1E223B" stroke-width="2" stroke-linecap="round" stroke-linejoin="round"/>
<!-- HTML CSS -->
<g class="appear">
<path d="M73.6978 55.1465H17.7494C14.624 55.1465 12.0903 57.4931 12.0903 60.3877V75.2619C12.0903 78.1566 14.624 80.5032 17.7494 80.5032H73.6978C76.8233 80.5032 79.3569 78.1566 79.3569 75.2619V60.3877C79.3569 57.4931 76.8233 55.1465 73.6978 55.1465Z" fill="#E44D26" stroke="#1E223B" stroke-width="2" stroke-miterlimit="10"/>
<path d="M73.6978 55.1465H17.7494C14.624 55.1465 12.0903 57.4931 12.0903 60.3877V75.2619C12.0903 78.1566 14.624 80.5032 17.7494 80.5032H73.6978C76.8233 80.5032 79.3569 78.1566 79.3569 75.2619V60.3877C79.3569 57.4931 76.8233 55.1465 73.6978 55.1465Z" stroke="#1E223B" stroke-width="2" stroke-linecap="round" stroke-linejoin="round"/>
<path d="M28.6542 73.5713V68.5399H22.2V73.5713H20.0234V62.0789H22.2V66.7649H28.6542V62.0789H30.8308V73.5713H28.6542Z" fill="white"/>
<path d="M37.8272 73.5715V63.8567H34.0693V62.0823H43.7595V63.8567H40.0017V73.5715H37.8272Z" fill="white"/>
<path d="M57.7135 73.5713V64.6976L53.9183 73.5713H52.99L49.1771 64.6985V73.5713H47.0005V62.0789H50.0697L53.4557 69.9699L56.8224 62.0789H59.8916V73.5713H57.7135Z" fill="white"/>
<path d="M63.7783 73.5713V62.0789H65.9544V71.7939H71.4236V73.5713H63.7783Z" fill="white"/>
<path d="M323.287 78.2031H325.924V87.0625C325.924 87.877 325.742 88.5977 325.379 89.2246C325.022 89.8457 324.515 90.3262 323.859 90.666C323.202 91.0059 322.461 91.1758 321.635 91.1758C320.281 91.1758 319.227 90.833 318.471 90.1475C317.715 89.4561 317.337 88.4805 317.337 87.2207H319.991C319.991 87.8477 320.123 88.3105 320.387 88.6094C320.651 88.9082 321.067 89.0576 321.635 89.0576C322.139 89.0576 322.54 88.8848 322.839 88.5391C323.138 88.1934 323.287 87.7012 323.287 87.0625V78.2031ZM335.719 87.6426C335.719 87.1445 335.543 86.7637 335.191 86.5C334.84 86.2305 334.207 85.9492 333.293 85.6562C332.379 85.3574 331.655 85.0645 331.122 84.7773C329.669 83.9922 328.942 82.9346 328.942 81.6045C328.942 80.9131 329.136 80.2979 329.522 79.7588C329.915 79.2139 330.474 78.7891 331.201 78.4844C331.933 78.1797 332.754 78.0273 333.662 78.0273C334.576 78.0273 335.39 78.1943 336.105 78.5283C336.82 78.8564 337.374 79.3223 337.766 79.9258C338.165 80.5293 338.364 81.2148 338.364 81.9824H335.727C335.727 81.3965 335.543 80.9424 335.174 80.6201C334.804 80.292 334.286 80.1279 333.618 80.1279C332.973 80.1279 332.472 80.2656 332.115 80.541C331.758 80.8105 331.579 81.168 331.579 81.6133C331.579 82.0293 331.787 82.3779 332.203 82.6592C332.625 82.9404 333.243 83.2041 334.057 83.4502C335.557 83.9014 336.65 84.4609 337.336 85.1289C338.021 85.7969 338.364 86.6289 338.364 87.625C338.364 88.7324 337.945 89.6025 337.107 90.2354C336.269 90.8623 335.141 91.1758 333.723 91.1758C332.739 91.1758 331.843 90.9971 331.034 90.6396C330.225 90.2764 329.607 89.7812 329.179 89.1543C328.758 88.5273 328.547 87.8008 328.547 86.9746H331.192C331.192 88.3867 332.036 89.0928 333.723 89.0928C334.35 89.0928 334.84 88.9668 335.191 88.7148C335.543 88.457 335.719 88.0996 335.719 87.6426Z" fill="white"/>
</g>
</svg>
