<svg width="60" height="62" viewBox="0 0 60 62" fill="none" xmlns="http://www.w3.org/2000/svg">
<path d="M58.3061 1.77959C56.8055 0.20976 54.5846 -0.37508 52.5138 0.240541L4.22399 14.5537C2.0391 15.1724 0.490461 16.9485 0.0732905 19.2048C-0.352884 21.501 1.13573 24.416 3.08052 25.6349L18.1797 35.0939C19.7283 36.0635 21.7272 35.8204 23.0087 34.5029L40.2988 16.77C41.1691 15.8465 42.6097 15.8465 43.4801 16.77C44.3504 17.6626 44.3504 19.1093 43.4801 20.0328L26.16 37.7688C24.8754 39.0832 24.6353 41.1301 25.5807 42.7184L34.8065 58.2628C35.887 60.1097 37.7477 61.1562 39.7886 61.1562C40.0286 61.1562 40.2988 61.1562 40.5389 61.1255C42.8798 60.8177 44.7406 59.1863 45.4309 56.8777L59.7467 7.72034C60.377 5.62723 59.8067 3.34943 58.3061 1.77959Z" fill="#777777"/>
</svg>
